STARTFONT 2.1
COMMENT Generated from X font `taipei16' by getbdf
COMMENT ------------------------------------------------------------
COMMENT The original fontname "taipei16" is changed to meet XLFD.
COMMENT				1994.7.27 K.Handa <handa@etl.go.jp>
COMMENT ------------------------------------------------------------
FONT -ETen-Fixed-Medium-R-Normal--16-150-75-75-C-160-Big5.ETen-0
SIZE 15 75 75
FONTBOUNDINGBOX 16 15 0 -2
STARTPROPERTIES 12
FONT_ASCENT 13
FONT_DESCENT 2
DEFAULT_CHAR 41280
COPYRIGHT "Public Domain"
POINT_SIZE 150
FONT "-ETen-Fixed-Medium-R-Normal--16-150-75-75-C-160-Big5.ETen-0"
WEIGHT 10
RESOLUTION 103
RESOLUTION_X 75
RESOLUTION_Y 75
X_HEIGHT 4294967295
QUAD_WIDTH 16
ENDPROPERTIES
CHARS 13503
STARTCHAR 0
ENCODING 41280
SWIDTH 1024 0
DWIDTH 16 0
BBX 0 0 0 0
BITMAP
ENDCHAR
STARTCHAR 1
ENCODING 41281
SWIDTH 1024 0
DWIDTH 16 0
BBX 5 7 2 -2
BITMAP
30
78
78
30
20
40
80
ENDCHAR
STARTCHAR 2
ENCODING 41282
SWIDTH 1024 0
DWIDTH 16 0
BBX 5 5 1 -2
BITMAP
80
60
70
38
18
ENDCHAR
STARTCHAR 3
ENCODING 41283
SWIDTH 1024 0
DWIDTH 16 0
BBX 6 5 1 -2
BITMAP
78
84
84
84
78
ENDCHAR
STARTCHAR 4
ENCODING 41284
SWIDTH 1024 0
DWIDTH 16 0
BBX 4 3 2 -1
BITMAP
60
f0
60
ENDCHAR
STARTCHAR 5
ENCODING 41285
SWIDTH 1024 0
DWIDTH 16 0
BBX 4 4 6 4
BITMAP
60
f0
f0
60
ENDCHAR
STARTCHAR 6
ENCODING 41286
SWIDTH 1024 0
DWIDTH 16 0
BBX 4 10 6 0
BITMAP
60
f0
60
00
00
60
f0
70
30
e0
ENDCHAR
STARTCHAR 7
ENCODING 41287
SWIDTH 1024 0
DWIDTH 16 0
BBX 4 8 6 2
BITMAP
60
f0
60
00
00
60
f0
60
ENDCHAR
STARTCHAR 8
ENCODING 41288
SWIDTH 1024 0
DWIDTH 16 0
BBX 9 15 3 -2
BITMAP
1e00
3f00
7380
e380
e380
4700
0600
0c00
0c00
0800
0800
0000
0800
1c00
1c00
ENDCHAR
STARTCHAR 9
ENCODING 41289
SWIDTH 1024 0
DWIDTH 16 0
BBX 5 15 5 -2
BITMAP
70
f8
f8
f8
f8
70
70
70
20
20
00
20
70
70
20
ENDCHAR
STARTCHAR 10
ENCODING 41290
SWIDTH 1024 0
DWIDTH 16 0
BBX 4 10 6 1
BITMAP
60
f0
f0
60
00
00
60
f0
f0
60
ENDCHAR
STARTCHAR 11
ENCODING 41291
SWIDTH 1024 0
DWIDTH 16 0
BBX 14 3 0 5
BITMAP
6318
f7bc
6318
ENDCHAR
STARTCHAR 12
ENCODING 41292
SWIDTH 1024 0
DWIDTH 16 0
BBX 10 3 3 5
BITMAP
6180
f3c0
6180
ENDCHAR
STARTCHAR 13
ENCODING 41293
SWIDTH 1024 0
DWIDTH 16 0
BBX 4 5 1 -2
BITMAP
60
f0
70
20
40
ENDCHAR
STARTCHAR 14
ENCODING 41294
SWIDTH 1024 0
DWIDTH 16 0
BBX 4 5 2 -2
BITMAP
80
40
60
70
30
ENDCHAR
STARTCHAR 15
ENCODING 41295
SWIDTH 1024 0
DWIDTH 16 0
BBX 4 3 2 -1
BITMAP
60
f0
60
ENDCHAR
STARTCHAR 16
ENCODING 41296
SWIDTH 1024 0
DWIDTH 16 0
BBX 4 4 1 5
BITMAP
60
f0
f0
60
ENDCHAR
STARTCHAR 17
ENCODING 41297
SWIDTH 1024 0
DWIDTH 16 0
BBX 4 10 6 0
BITMAP
60
60
00
00
00
60
f0
30
20
40
ENDCHAR
STARTCHAR 18
ENCODING 41298
SWIDTH 1024 0
DWIDTH 16 0
BBX 2 8 7 2
BITMAP
c0
c0
00
00
00
00
c0
c0
ENDCHAR
STARTCHAR 19
ENCODING 41299
SWIDTH 1024 0
DWIDTH 16 0
BBX 6 10 5 1
BITMAP
78
cc
cc
18
30
30
30
00
30
30
ENDCHAR
STARTCHAR 20
ENCODING 41300
SWIDTH 1024 0
DWIDTH 16 0
BBX 2 12 6 0
BITMAP
c0
c0
c0
c0
c0
c0
c0
c0
00
00
c0
c0
ENDCHAR
STARTCHAR 21
ENCODING 41301
SWIDTH 1024 0
DWIDTH 16 0
BBX 2 15 7 -2
BITMAP
c0
c0
c0
c0
c0
c0
c0
c0
c0
c0
c0
c0
c0
c0
c0
ENDCHAR
STARTCHAR 22
ENCODING 41302
SWIDTH 1024 0
DWIDTH 16 0
BBX 11 2 3 5
BITMAP
ffe0
ffe0
ENDCHAR
STARTCHAR 23
ENCODING 41303
SWIDTH 1024 0
DWIDTH 16 0
BBX 1 15 7 -2
BITMAP
80
80
80
80
80
80
80
80
80
80
80
80
80
80
80
ENDCHAR
STARTCHAR 24
ENCODING 41304
SWIDTH 1024 0
DWIDTH 16 0
BBX 11 1 3 5
BITMAP
ffe0
ENDCHAR
STARTCHAR 25
ENCODING 41305
SWIDTH 1024 0
DWIDTH 16 0
BBX 1 15 1 -2
BITMAP
80
80
80
80
80
80
80
80
80
80
80
80
80
80
80
ENDCHAR
STARTCHAR 26
ENCODING 41306
SWIDTH 1024 0
DWIDTH 16 0
BBX 16 1 0 -2
BITMAP
ffff
ENDCHAR
STARTCHAR 27
ENCODING 41307
SWIDTH 1024 0
DWIDTH 16 0
BBX 4 15 1 -2
BITMAP
60
30
30
60
c0
60
30
30
60
c0
60
30
30
60
c0
ENDCHAR
STARTCHAR 28
ENCODING 41308
SWIDTH 1024 0
DWIDTH 16 0
BBX 16 4 0 -1
BITMAP
2184
73ce
defb
8c61
ENDCHAR
STARTCHAR 29
ENCODING 41309
SWIDTH 1024 0
DWIDTH 16 0
BBX 5 15 11 -2
BITMAP
10
20
60
40
c0
c0
c0
c0
c0
c0
40
60
20
10
08
ENDCHAR
STARTCHAR 30
ENCODING 41310
SWIDTH 1024 0
DWIDTH 16 0
BBX 5 15 0 -2
BITMAP
40
20
30
10
18
18
18
18
18
18
10
30
20
40
80
ENDCHAR
STARTCHAR 31
ENCODING 41311
SWIDTH 1024 0
DWIDTH 16 0
BBX 16 5 0 1
BITMAP
0ff0
3ffc
6006
4002
8001
ENDCHAR
STARTCHAR 32
ENCODING 41312
SWIDTH 1024 0
DWIDTH 16 0
BBX 16 6 0 5
BITMAP
8001
4002
6006
381c
1ff8
07e0
ENDCHAR
STARTCHAR 33
ENCODING 41313
SWIDTH 1024 0
DWIDTH 16 0
BBX 7 15 9 -2
BITMAP
1e
38
30
30
30
30
30
e0
20
30
30
30
30
38
1e
ENDCHAR
STARTCHAR 34
ENCODING 41314
SWIDTH 1024 0
DWIDTH 16 0
BBX 7 15 0 -2
BITMAP
f0
38
18
18
18
18
18
0e
18
18
18
18
18
38
f0
ENDCHAR
STARTCHAR 35
ENCODING 41315
SWIDTH 1024 0
DWIDTH 16 0
BBX 16 5 0 1
BITMAP
0180
3ffc
7e7e
c003
8001
ENDCHAR
STARTCHAR 36
ENCODING 41316
SWIDTH 1024 0
DWIDTH 16 0
BBX 16 5 0 6
BITMAP
8001
c003
7e7e
3ffc
0180
ENDCHAR
STARTCHAR 37
ENCODING 41317
SWIDTH 1024 0
DWIDTH 16 0
BBX 5 15 10 -2
BITMAP
38
60
c0
c0
c0
c0
c0
c0
c0
c0
c0
c0
c0
60
38
ENDCHAR
STARTCHAR 38
ENCODING 41318
SWIDTH 1024 0
DWIDTH 16 0
BBX 5 15 1 -2
BITMAP
e0
30
18
18
18
18
18
18
18
18
18
18
18
30
e0
ENDCHAR
STARTCHAR 39
ENCODING 41319
SWIDTH 1024 0
DWIDTH 16 0
BBX 15 5 0 1
BITMAP
3ff8
7ffc
c006
8002
8002
ENDCHAR
STARTCHAR 40
ENCODING 41320
SWIDTH 1024 0
DWIDTH 16 0
BBX 15 5 0 5
BITMAP
8002
8002
c006
7ffc
3ff8
ENDCHAR
STARTCHAR 41
ENCODING 41321
SWIDTH 1024 0
DWIDTH 16 0
BBX 6 15 9 -2
BITMAP
fc
f8
f0
e0
e0
c0
c0
c0
c0
c0
e0
e0
f0
f8
fc
ENDCHAR
STARTCHAR 42
ENCODING 41322
SWIDTH 1024 0
DWIDTH 16 0
BBX 6 15 1 -2
BITMAP
fc
7c
3c
3c
1c
1c
1c
1c
1c
1c
1c
3c
3c
7c
fc
ENDCHAR
STARTCHAR 43
ENCODING 41323
SWIDTH 1024 0
DWIDTH 16 0
BBX 15 6 0 0
BITMAP
fffe
fffe
fffe
f01e
c006
8002
ENDCHAR
STARTCHAR 44
ENCODING 41324
SWIDTH 1024 0
DWIDTH 16 0
BBX 15 6 0 5
BITMAP
8002
c006
f01e
fffe
fffe
fffe
ENDCHAR
STARTCHAR 45
ENCODING 41325
SWIDTH 1024 0
DWIDTH 16 0
BBX 12 15 3 -2
BITMAP
0360
06c0
0d80
1b00
3600
6c00
d800
d800
6c00
3600
1b00
0d80
06c0
0360
01b0
ENDCHAR
STARTCHAR 46
ENCODING 41326
SWIDTH 1024 0
DWIDTH 16 0
BBX 12 15 1 -2
BITMAP
6c00
3600
1b00
0d80
06c0
0360
01b0
01b0
0360
06c0
0d80
1b00
3600
6c00
d800
ENDCHAR
STARTCHAR 47
ENCODING 41327
SWIDTH 1024 0
DWIDTH 16 0
BBX 15 11 0 0
BITMAP
0380
07c0
0c60
1bb0
37d8
6c6c
d836
b01a
600c
c006
8002
ENDCHAR
STARTCHAR 48
ENCODING 41328
SWIDTH 1024 0
DWIDTH 16 0
BBX 15 11 0 1
BITMAP
8002
c006
600c
b01a
d836
6c6c
37d8
1bb0
0c60
07c0
0380
ENDCHAR
STARTCHAR 49
ENCODING 41329
SWIDTH 1024 0
DWIDTH 16 0
BBX 5 15 10 -2
BITMAP
08
10
10
20
20
40
40
80
40
40
20
20
10
10
08
ENDCHAR
STARTCHAR 50
ENCODING 41330
SWIDTH 1024 0
DWIDTH 16 0
BBX 5 15 1 -2
BITMAP
80
40
40
20
20
10
10
08
10
10
20
20
40
40
80
ENDCHAR
STARTCHAR 51
ENCODING 41331
SWIDTH 1024 0
DWIDTH 16 0
BBX 15 6 0 0
BITMAP
0100
0380
06c0
0c60
3838
e00e
ENDCHAR
STARTCHAR 52
ENCODING 41332
SWIDTH 1024 0
DWIDTH 16 0
BBX 15 6 0 5
BITMAP
e00e
3838
0c60
06c0
0380
0100
ENDCHAR
STARTCHAR 53
ENCODING 41333
SWIDTH 1024 0
DWIDTH 16 0
BBX 7 10 8 3
BITMAP
fe
80
80
80
80
80
80
80
80
80
ENDCHAR
STARTCHAR 54
ENCODING 41334
SWIDTH 1024 0
DWIDTH 16 0
BBX 7 10 1 -2
BITMAP
02
02
02
02
02
02
02
02
02
fe
ENDCHAR
STARTCHAR 55
ENCODING 41335
SWIDTH 1024 0
DWIDTH 16 0
BBX 14 7 1 -1
BITMAP
fffc
0004
0004
0004
0004
0004
0004
ENDCHAR
STARTCHAR 56
ENCODING 41336
SWIDTH 1024 0
DWIDTH 16 0
BBX 14 7 1 6
BITMAP
c000
c000
c000
c000
c000
c000
fffc
ENDCHAR
STARTCHAR 57
ENCODING 41337
SWIDTH 1024 0
DWIDTH 16 0
BBX 6 12 9 1
BITMAP
fc
84
bc
a0
a0
a0
a0
a0
a0
a0
a0
e0
ENDCHAR
STARTCHAR 58
ENCODING 41338
SWIDTH 1024 0
DWIDTH 16 0
BBX 7 11 1 -2
BITMAP
0e
0a
0a
0a
0a
0a
0a
0a
fa
82
fe
ENDCHAR
STARTCHAR 59
ENCODING 41339
SWIDTH 1024 0
DWIDTH 16 0
BBX 14 7 1 -1
BITMAP
fffc
8004
fff4
0014
0014
0014
001c
ENDCHAR
STARTCHAR 60
ENCODING 41340
SWIDTH 1024 0
DWIDTH 16 0
BBX 14 7 1 6
BITMAP
e000
a000
a000
a000
bffc
8004
fffc
ENDCHAR
STARTCHAR 61
ENCODING 41341
SWIDTH 1024 0
DWIDTH 16 0
BBX 3 9 11 1
BITMAP
20
40
c0
c0
c0
c0
c0
40
20
ENDCHAR
STARTCHAR 62
ENCODING 41342
SWIDTH 1024 0
DWIDTH 16 0
BBX 3 9 2 1
BITMAP
80
40
60
60
60
60
60
40
80
ENDCHAR
STARTCHAR 97
ENCODING 41377
SWIDTH 1024 0
DWIDTH 16 0
BBX 4 11 10 0
BITMAP
30
40
40
40
40
80
40
40
40
40
30
ENDCHAR
STARTCHAR 98
ENCODING 41378
SWIDTH 1024 0
DWIDTH 16 0
BBX 4 11 2 0
BITMAP
c0
20
20
20
20
10
20
20
20
20
c0
ENDCHAR
STARTCHAR 99
ENCODING 41379
SWIDTH 1024 0
DWIDTH 16 0
BBX 2 10 10 1
BITMAP
40
80
80
80
80
80
80
80
80
40
ENDCHAR
STARTCHAR 100
ENCODING 41380
SWIDTH 1024 0
DWIDTH 16 0
BBX 2 11 4 0
BITMAP
80
40
40
40
40
40
40
40
40
40
80
ENDCHAR
STARTCHAR 101
ENCODING 41381
SWIDTH 1024 0
DWIDTH 16 0
BBX 4 5 10 8
BITMAP
20
40
e0
f0
60
ENDCHAR
STARTCHAR 102
ENCODING 41382
SWIDTH 1024 0
DWIDTH 16 0
BBX 4 5 2 8
BITMAP
60
f0
70
20
c0
ENDCHAR
STARTCHAR 103
ENCODING 41383
SWIDTH 1024 0
DWIDTH 16 0
BBX 7 5 7 8
BITMAP
22
44
cc
ee
cc
ENDCHAR
STARTCHAR 104
ENCODING 41384
SWIDTH 1024 0
DWIDTH 16 0
BBX 7 4 1 9
BITMAP
ee
66
44
88
ENDCHAR
STARTCHAR 105
ENCODING 41385
SWIDTH 1024 0
DWIDTH 16 0
BBX 8 4 0 9
BITMAP
ee
66
22
11
ENDCHAR
STARTCHAR 106
ENCODING 41386
SWIDTH 1024 0
DWIDTH 16 0
BBX 8 4 7 9
BITMAP
77
66
44
88
ENDCHAR
STARTCHAR 107
ENCODING 41387
SWIDTH 1024 0
DWIDTH 16 0
BBX 6 4 5 9
BITMAP
e0
70
18
04
ENDCHAR
STARTCHAR 108
ENCODING 41388
SWIDTH 1024 0
DWIDTH 16 0
BBX 6 6 5 7
BITMAP
18
3c
38
30
60
80
ENDCHAR
STARTCHAR 109
ENCODING 41389
SWIDTH 1024 0
DWIDTH 16 0
BBX 11 15 3 -2
BITMAP
2080
2080
2080
2080
ffe0
2080
2080
2080
2080
2080
ffe0
2080
2080
2080
2080
ENDCHAR
STARTCHAR 110
ENCODING 41390
SWIDTH 1024 0
DWIDTH 16 0
BBX 13 14 2 -1
BITMAP
1c00
3600
6300
6300
3600
1c00
3800
6cf0
c640
c340
c1c0
c0c0
61e0
3f38
ENDCHAR
STARTCHAR 111
ENCODING 41391
SWIDTH 1024 0
DWIDTH 16 0
BBX 15 14 0 -1
BITMAP
0100
2108
1110
0920
0540
0380
fffe
0380
0540
0920
1110
2108
0100
0100
ENDCHAR
STARTCHAR 112
ENCODING 41392
SWIDTH 1024 0
DWIDTH 16 0
BBX 12 11 2 0
BITMAP
c630
6660
30c0
1980
cf00
c630
0f30
1980
30c0
6660
c630
ENDCHAR
STARTCHAR 113
ENCODING 41393
SWIDTH 1024 0
DWIDTH 16 0
BBX 6 15 5 -2
BITMAP
78
8c
8c
c0
60
70
98
8c
64
38
18
0c
c4
c4
78
ENDCHAR
STARTCHAR 114
ENCODING 41394
SWIDTH 1024 0
DWIDTH 16 0
BBX 12 9 1 0
BITMAP
0420
0e70
0e70
0e70
1ce0
18c0
3180
6300
8400
ENDCHAR
STARTCHAR 115
ENCODING 41395
SWIDTH 1024 0
DWIDTH 16 0
BBX 14 14 1 -1
BITMAP
0780
0840
3030
4008
4008
8004
8004
8004
8004
4008
4008
2010
1860
0780
ENDCHAR
STARTCHAR 116
ENCODING 41396
SWIDTH 1024 0
DWIDTH 16 0
BBX 14 14 1 -1
BITMAP
0780
1fe0
3ff0
7ff8
7ff8
fffc
fffc
fffc
fffc
7ff8
7ff8
3ff0
1fe0
0780
ENDCHAR
STARTCHAR 117
ENCODING 41397
SWIDTH 1024 0
DWIDTH 16 0
BBX 15 13 0 0
BITMAP
0100
0280
0280
0440
0440
0820
0820
1010
1010
2008
2008
4004
fffe
ENDCHAR
STARTCHAR 118
ENCODING 41398
SWIDTH 1024 0
DWIDTH 16 0
BBX 15 12 0 0
BITMAP
0100
0380
07c0
07c0
0fe0
0fe0
1ff0
1ff0
3ff8
3ff8
7ffc
fffe
ENDCHAR
STARTCHAR 119
ENCODING 41399
SWIDTH 1024 0
DWIDTH 16 0
BBX 14 14 1 -1
BITMAP
0780
1860
2310
4cc8
5028
9024
a014
a014
9024
5028
4cc8
2310
1860
0780
ENDCHAR
STARTCHAR 120
ENCODING 41400
SWIDTH 1024 0
DWIDTH 16 0
BBX 15 15 0 -2
BITMAP
0100
0280
0280
0440
0440
fc7e
4004
2008
1010
0820
0920
1290
1450
2828
3018
ENDCHAR
STARTCHAR 121
ENCODING 41401
SWIDTH 1024 0
DWIDTH 16 0
BBX 15 15 0 -2
BITMAP
0100
0380
0380
07c0
07c0
fffe
7ffc
3ff8
1ff0
0fe0
0fe0
1ef0
1c70
3838
3018
ENDCHAR
STARTCHAR 122
ENCODING 41402
SWIDTH 1024 0
DWIDTH 16 0
BBX 15 15 0 -2
BITMAP
0100
0380
06c0
0c60
1830
3018
600c
c006
600c
3018
1830
0c60
06c0
0380
0100
ENDCHAR
STARTCHAR 123
ENCODING 41403
SWIDTH 1024 0
DWIDTH 16 0
BBX 15 15 0 -2
BITMAP
0100
0380
07c0
0fe0
1ff0
3ff8
7ffc
fffe
7ffc
3ff8
1ff0
0fe0
07c0
0380
0100
ENDCHAR
STARTCHAR 124
ENCODING 41404
SWIDTH 1024 0
DWIDTH 16 0
BBX 14 14 1 -1
BITMAP
fffc
8004
8004
8004
8004
8004
8004
8004
8004
8004
8004
8004
8004
fffc
ENDCHAR
STARTCHAR 125
ENCODING 41405
SWIDTH 1024 0
DWIDTH 16 0
BBX 14 14 1 -1
BITMAP
fffc
fffc
fffc
fffc
fffc
fffc
fffc
fffc
fffc
fffc
fffc
fffc
fffc
fffc
ENDCHAR
STARTCHAR 126
ENCODING 41406
SWIDTH 1024 0
DWIDTH 16 0
BBX 15 13 0 -2
BITMAP
fffe
4004
4004
2008
2008
1010
1010
0820
0820
0440
0440
0280
0100
ENDCHAR
STARTCHAR 127
ENCODING 41407
SWIDTH 1024 0
DWIDTH 16 0
BBX 15 13 0 -2
BITMAP
fffe
7ffc
7ffc
3ff8
3ff8
1ff0
1ff0
0fe0
0fe0
07c0
07c0
0380
0100
ENDCHAR
STARTCHAR 128
ENCODING 41408
SWIDTH 1024 0
DWIDTH 16 0
BBX 14 14 1 -1
BITMAP
0780
1860
2010
4008
5fe8
8104
8104
89c4
8904
4908
5fe8
2010
1860
0780
ENDCHAR
STARTCHAR 129
ENCODING 41409
SWIDTH 1024 0
DWIDTH 16 0
BBX 14 14 0 -1
BITMAP
3804
4408
8010
8020
8040
8480
4938
3244
0484
0904
1104
2108
4110
80e0
ENDCHAR
STARTCHAR 130
ENCODING 41410
SWIDTH 1024 0
DWIDTH 16 0
BBX 15 1 0 12
BITMAP
fffe
ENDCHAR
STARTCHAR 131
ENCODING 41411
SWIDTH 1024 0
DWIDTH 16 0
BBX 15 1 0 12
BITMAP
fffe
ENDCHAR
STARTCHAR 132
ENCODING 41412
SWIDTH 1024 0
DWIDTH 16 0
BBX 16 1 0 -2
BITMAP
ffff
ENDCHAR
STARTCHAR 133
ENCODING 41413
SWIDTH 1024 0
DWIDTH 16 0
BBX 16 1 0 -2
BITMAP
ffff
ENDCHAR
STARTCHAR 134
ENCODING 41414
SWIDTH 1024 0
DWIDTH 16 0
BBX 14 1 1 12
BITMAP
e39c
ENDCHAR
STARTCHAR 135
ENCODING 41415
SWIDTH 1024 0
DWIDTH 16 0
BBX 14 1 1 12
BITMAP
fb3c
ENDCHAR
STARTCHAR 136
ENCODING 41416
SWIDTH 1024 0
DWIDTH 16 0
BBX 13 1 2 -2
BITMAP
e738
ENDCHAR
STARTCHAR 137
ENCODING 41417
SWIDTH 1024 0
DWIDTH 16 0
BBX 12 1 2 -2
BITMAP
f6f0
ENDCHAR
STARTCHAR 138
ENCODING 41418
SWIDTH 1024 0
DWIDTH 16 0
BBX 14 4 1 8
BITMAP
1860
3cf0
6798
c30c
ENDCHAR
STARTCHAR 139
ENCODING 41419
SWIDTH 1024 0
DWIDTH 16 0
BBX 16 4 0 8
BITMAP
1c38
3e7c
77ee
e3c7
ENDCHAR
STARTCHAR 140
ENCODING 41420
SWIDTH 1024 0
DWIDTH 16 0
BBX 8 9 3 2
BITMAP
24
24
ff
24
24
24
ff
24
24
ENDCHAR
STARTCHAR 141
ENCODING 41421
SWIDTH 1024 0
DWIDTH 16 0
BBX 12 13 2 0
BITMAP
3800
4400
4400
4400
4400
2800
1000
2880
4440
8280
8100
4280
3c70
ENDCHAR
STARTCHAR 142
ENCODING 41422
SWIDTH 1024 0
DWIDTH 16 0
BBX 12 14 0 -1
BITMAP
8610
c630
6660
36c0
1f80
0f00
0600
0600
0f00
1f80
36c0
6660
c630
8610
ENDCHAR
STARTCHAR 143
ENCODING 41423
SWIDTH 1024 0
DWIDTH 16 0
BBX 12 12 2 0
BITMAP
0600
0600
0600
0600
0600
fff0
fff0
0600
0600
0600
0600
0600
ENDCHAR
STARTCHAR 144
ENCODING 41424
SWIDTH 1024 0
DWIDTH 16 0
BBX 12 2 2 5
BITMAP
fff0
fff0
ENDCHAR
STARTCHAR 145
ENCODING 41425
SWIDTH 1024 0
DWIDTH 16 0
BBX 11 10 3 1
BITMAP
c060
60c0
3180
1b00
0e00
0e00
1b00
3180
60c0
c060
ENDCHAR
STARTCHAR 146
ENCODING 41426
SWIDTH 1024 0
DWIDTH 16 0
BBX 14 11 1 1
BITMAP
0300
0300
0000
0000
0000
fffc
fffc
0000
0000
0300
0300
ENDCHAR
STARTCHAR 147
ENCODING 41427
SWIDTH 1024 0
DWIDTH 16 0
BBX 12 14 2 -1
BITMAP
0600
0600
0600
0600
0600
fff0
fff0
0600
0600
0600
0600
0000
fff0
fff0
ENDCHAR
STARTCHAR 148
ENCODING 41428
SWIDTH 1024 0
DWIDTH 16 0
BBX 13 11 1 0
BITMAP
07f8
0400
0400
0c00
0800
0800
9800
d000
5000
6000
2000
ENDCHAR
STARTCHAR 149
ENCODING 41429
SWIDTH 1024 0
DWIDTH 16 0
BBX 13 13 1 -1
BITMAP
0018
0060
0180
0600
1800
6000
8000
6000
1800
0600
0180
0060
0018
ENDCHAR
STARTCHAR 150
ENCODING 41430
SWIDTH 1024 0
DWIDTH 16 0
BBX 15 15 0 -2
BITMAP
c000
3000
0c00
0300
00c0
0030
000c
0002
000c
0030
00c0
0300
0c00
3000
c000
ENDCHAR
STARTCHAR 151
ENCODING 41431
SWIDTH 1024 0
DWIDTH 16 0
BBX 12 6 2 3
BITMAP
fff0
fff0
0000
0000
fff0
fff0
ENDCHAR
STARTCHAR 152
ENCODING 41432
SWIDTH 1024 0
DWIDTH 16 0
BBX 13 14 1 -1
BITMAP
0018
00e0
0700
3800
c000
3800
0700
00e0
0018
0000
7ff8
0000
0000
7ff8
ENDCHAR
STARTCHAR 153
ENCODING 41433
SWIDTH 1024 0
DWIDTH 16 0
BBX 13 14 1 -1
BITMAP
c000
3800
0700
00e0
0018
00e0
0700
3800
c000
0000
fff8
0000
0000
fff8
ENDCHAR
STARTCHAR 154
ENCODING 41434
SWIDTH 1024 0
DWIDTH 16 0
BBX 12 15 2 -2
BITMAP
0060
0040
00c0
0080
fff0
fff0
0300
0600
fff0
fff0
0c00
0800
1800
1000
3000
ENDCHAR
STARTCHAR 155
ENCODING 41435
SWIDTH 1024 0
DWIDTH 16 0
BBX 14 6 0 3
BITMAP
3870
4488
8304
8304
4488
3870
ENDCHAR
STARTCHAR 156
ENCODING 41436
SWIDTH 1024 0
DWIDTH 16 0
BBX 15 10 0 1
BITMAP
6000
6000
0000
fffe
0000
0000
fffe
0000
000c
000c
ENDCHAR
STARTCHAR 157
ENCODING 41437
SWIDTH 1024 0
DWIDTH 16 0
BBX 15 7 0 3
BITMAP
fffe
0000
0000
fffe
0000
0000
fffe
ENDCHAR
STARTCHAR 158
ENCODING 41438
SWIDTH 1024 0
DWIDTH 16 0
BBX 7 8 5 2
BITMAP
10
10
10
fe
10
10
10
10
ENDCHAR
STARTCHAR 159
ENCODING 41439
SWIDTH 1024 0
DWIDTH 16 0
BBX 8 1 4 6
BITMAP
ff
ENDCHAR
STARTCHAR 160
ENCODING 41440
SWIDTH 1024 0
DWIDTH 16 0
BBX 6 9 3 1
BITMAP
0c
18
30
60
c0
60
30
18
0c
ENDCHAR
STARTCHAR 161
ENCODING 41441
SWIDTH 1024 0
DWIDTH 16 0
BBX 6 9 7 1
BITMAP
c0
60
30
18
0c
18
30
60
c0
ENDCHAR
STARTCHAR 162
ENCODING 41442
SWIDTH 1024 0
DWIDTH 16 0
BBX 8 5 4 4
BITMAP
ff
00
00
00
ff
ENDCHAR
STARTCHAR 163
ENCODING 41443
SWIDTH 1024 0
DWIDTH 16 0
BBX 14 5 0 3
BITMAP
1800
7e00
c30c
01f8
0060
ENDCHAR
STARTCHAR 164
ENCODING 41444
SWIDTH 1024 0
DWIDTH 16 0
BBX 14 13 1 0
BITMAP
0780
0cc0
1860
3030
2010
6018
6018
4008
c00c
c00c
8004
8004
8004
ENDCHAR
STARTCHAR 165
ENCODING 41445
SWIDTH 1024 0
DWIDTH 16 0
BBX 12 13 2 -1
BITMAP
8010
8010
8010
8010
c030
c030
4020
6060
6060
30c0
30c0
1980
0f00
ENDCHAR
STARTCHAR 166
ENCODING 41446
SWIDTH 1024 0
DWIDTH 16 0
BBX 14 10 1 1
BITMAP
0300
0300
0300
0300
0300
0300
0300
0300
fffc
fffc
ENDCHAR
STARTCHAR 167
ENCODING 41447
SWIDTH 1024 0
DWIDTH 16 0
BBX 12 12 2 0
BITMAP
0030
0060
00c0
0180
0300
0600
0c00
1800
3000
6000
fff0
fff0
ENDCHAR
STARTCHAR 168
ENCODING 41448
SWIDTH 1024 0
DWIDTH 16 0
BBX 12 12 2 0
BITMAP
c000
c000
c000
c000
c000
c000
c000
c000
c000
c000
fff0
fff0
ENDCHAR
STARTCHAR 169
ENCODING 41449
SWIDTH 1024 0
DWIDTH 16 0
BBX 12 12 2 0
BITMAP
0010
0030
0070
00d0
0190
0310
0610
0c10
1810
3010
6010
fff0
ENDCHAR
STARTCHAR 170
ENCODING 41450
SWIDTH 1024 0
DWIDTH 16 0
BBX 15 15 0 -2
BITMAP
c000
4000
4000
4000
4000
4e1a
5126
5124
5118
5110
513c
5142
ee42
0042
003c
ENDCHAR
STARTCHAR 171
ENCODING 41451
SWIDTH 1024 0
DWIDTH 16 0
BBX 15 13 0 0
BITMAP
e000
6000
6000
6000
6700
6378
638c
630c
630c
630c
630c
630c
f71e
ENDCHAR
STARTCHAR 172
ENCODING 41452
SWIDTH 1024 0
DWIDTH 16 0
BBX 12 15 2 -2
BITMAP
01e0
0130
0110
0300
0200
0200
0600
0600
0400
0400
0c00
8800
c800
7800
3000
ENDCHAR
STARTCHAR 173
ENCODING 41453
SWIDTH 1024 0
DWIDTH 16 0
BBX 12 15 3 -2
BITMAP
01c0
0260
0220
0200
0f80
1240
2220
4210
2220
1240
0f80
8200
c200
7400
3800
ENDCHAR
STARTCHAR 174
ENCODING 41454
SWIDTH 1024 0
DWIDTH 16 0
BBX 12 10 2 1
BITMAP
6060
f0f0
6060
0000
0000
0000
0000
0600
0f00
0600
ENDCHAR
STARTCHAR 175
ENCODING 41455
SWIDTH 1024 0
DWIDTH 16 0
BBX 14 12 1 0
BITMAP
0300
0780
0300
0000
0000
0000
0000
0000
0000
6018
f03c
6018
ENDCHAR
STARTCHAR 176
ENCODING 41456
SWIDTH 1024 0
DWIDTH 16 0
BBX 13 15 1 -2
BITMAP
0f80
1040
1040
1040
1040
0880
0700
0200
0200
fff8
0200
0200
0200
0200
0200
ENDCHAR
STARTCHAR 177
ENCODING 41457
SWIDTH 1024 0
DWIDTH 16 0
BBX 11 15 3 -2
BITMAP
0400
0e00
1500
2480
4440
8420
0400
0400
0e00
1100
2080
2080
2080
1100
0e00
ENDCHAR
STARTCHAR 178
ENCODING 41458
SWIDTH 1024 0
DWIDTH 16 0
BBX 14 14 1 -1
BITMAP
0780
1fe0
3330
6318
4308
c30c
fffc
fffc
c30c
4308
6318
3330
1fe0
0780
ENDCHAR
STARTCHAR 179
ENCODING 41459
SWIDTH 1024 0
DWIDTH 16 0
BBX 14 14 1 -1
BITMAP
0780
1860
2010
4008
4008
8304
8784
8784
8304
4008
4008
2010
1860
0780
ENDCHAR
STARTCHAR 180
ENCODING 41460
SWIDTH 1024 0
DWIDTH 16 0
BBX 12 15 2 -2
BITMAP
0600
0f00
1f80
36c0
6660
c630
0600
0600
0600
0600
0600
0600
0600
0600
0600
ENDCHAR
STARTCHAR 181
ENCODING 41461
SWIDTH 1024 0
DWIDTH 16 0
BBX 12 15 2 -2
BITMAP
0600
0600
0600
0600
0600
0600
0600
0600
8610
c630
6660
36c0
1f80
0f00
0600
ENDCHAR
STARTCHAR 182
ENCODING 41462
SWIDTH 1024 0
DWIDTH 16 0
BBX 15 12 1 0
BITMAP
0400
0c00
1800
3000
6000
fffe
fffe
6000
3000
1800
0c00
0400
ENDCHAR
STARTCHAR 183
ENCODING 41463
SWIDTH 1024 0
DWIDTH 16 0
BBX 15 12 0 0
BITMAP
00c0
0060
0030
0018
000c
fffe
fffe
000c
0018
0030
0060
00c0
ENDCHAR
STARTCHAR 184
ENCODING 41464
SWIDTH 1024 0
DWIDTH 16 0
BBX 12 12 2 0
BITMAP
fe00
c000
a000
9000
8800
8400
8200
0100
0080
0040
0020
0010
ENDCHAR
STARTCHAR 185
ENCODING 41465
SWIDTH 1024 0
DWIDTH 16 0
BBX 12 12 1 0
BITMAP
03f0
0030
0050
0090
0110
0210
0400
0800
1000
2000
4000
8000
ENDCHAR
STARTCHAR 186
ENCODING 41466
SWIDTH 1024 0
DWIDTH 16 0
BBX 13 13 1 0
BITMAP
0008
0010
0020
0040
0080
0100
0200
8400
8800
9000
a000
c000
fc00
ENDCHAR
STARTCHAR 187
ENCODING 41467
SWIDTH 1024 0
DWIDTH 16 0
BBX 12 12 2 0
BITMAP
8000
4000
2000
1000
0800
0400
0210
0110
0090
0050
0030
03f0
ENDCHAR
STARTCHAR 188
ENCODING 41468
SWIDTH 1024 0
DWIDTH 16 0
BBX 4 15 6 -2
BITMAP
d0
d0
d0
d0
d0
d0
d0
d0
d0
d0
d0
d0
d0
d0
d0
ENDCHAR
STARTCHAR 189
ENCODING 41469
SWIDTH 1024 0
DWIDTH 16 0
BBX 2 15 7 -2
BITMAP
c0
c0
c0
c0
c0
c0
c0
c0
c0
c0
c0
c0
c0
c0
c0
ENDCHAR
STARTCHAR 190
ENCODING 41470
SWIDTH 1024 0
DWIDTH 16 0
BBX 14 14 0 -1
BITMAP
000c
0018
0030
0060
00c0
0180
0300
0600
0c00
1800
3000
6000
c000
8000
ENDCHAR
STARTCHAR 191
ENCODING 41536
SWIDTH 1024 0
DWIDTH 16 0
BBX 15 15 0 -2
BITMAP
c000
6000
3000
1800
0c00
0600
0300
0180
00c0
0060
0030
0018
000c
0006
0002
ENDCHAR
STARTCHAR 192
ENCODING 41537
SWIDTH 1024 0
DWIDTH 16 0
BBX 8 15 4 -2
BITMAP
01
02
02
04
04
08
08
10
10
20
20
40
40
80
80
ENDCHAR
STARTCHAR 193
ENCODING 41538
SWIDTH 1024 0
DWIDTH 16 0
BBX 8 15 4 -2
BITMAP
80
40
40
20
20
10
10
08
08
04
04
02
02
01
01
ENDCHAR
STARTCHAR 194
ENCODING 41539
SWIDTH 1024 0
DWIDTH 16 0
BBX 10 15 3 -2
BITMAP
3f00
6d80
ccc0
ccc0
cc00
6c00
3c00
0f00
0d80
4cc0
ecc0
ccc0
6d80
3f00
0c00
ENDCHAR
STARTCHAR 195
ENCODING 41540
SWIDTH 1024 0
DWIDTH 16 0
BBX 14 14 1 -1
BITMAP
f87c
6018
3030
1860
0cc0
0780
7ff8
0300
0300
7ff8
0300
0300
0300
0fc0
ENDCHAR
STARTCHAR 196
ENCODING 41541
SWIDTH 1024 0
DWIDTH 16 0
BBX 14 15 1 -2
BITMAP
fffc
fffc
0000
0000
fffc
fffc
0300
0300
0300
0300
0300
0300
0300
0300
0300
ENDCHAR
STARTCHAR 197
ENCODING 41542
SWIDTH 1024 0
DWIDTH 16 0
BBX 11 15 3 -2
BITMAP
0080
0780
1940
2260
6260
4400
c400
c800
c800
5000
7000
3180
2f00
4000
4000
ENDCHAR
STARTCHAR 198
ENCODING 41543
SWIDTH 1024 0
DWIDTH 16 0
BBX 12 14 2 -1
BITMAP
0780
0c40
18e0
18e0
1840
1800
ff00
1800
1800
7800
9c10
9a10
99e0
7000
ENDCHAR
STARTCHAR 199
ENCODING 41544
SWIDTH 1024 0
DWIDTH 16 0
BBX 14 14 0 -1
BITMAP
1c04
2208
4210
8220
8240
8480
8938
7244
0484
0904
1104
2108
4110
80e0
ENDCHAR
STARTCHAR 200
ENCODING 41545
SWIDTH 1024 0
DWIDTH 16 0
BBX 13 14 1 -1
BITMAP
0fc0
3060
4010
4788
88c8
90c8
90c8
90c8
90c8
88d8
4770
4008
3070
0fc0
ENDCHAR
STARTCHAR 201
ENCODING 41546
SWIDTH 1024 0
DWIDTH 16 0
BBX 14 15 1 -2
BITMAP
7000
89e0
8bf4
761c
060c
0c04
0c04
0c00
0c00
0c00
0c04
060c
0718
03f8
00e0
ENDCHAR
STARTCHAR 202
ENCODING 41547
SWIDTH 1024 0
DWIDTH 16 0
BBX 16 14 0 -1
BITMAP
7000
8bff
8903
7101
0101
0108
01f8
0118
0108
0100
0100
0100
0100
07c0
ENDCHAR
STARTCHAR 203
ENCODING 41548
SWIDTH 1024 0
DWIDTH 16 0
BBX 7 14 4 -1
BITMAP
10
10
7c
96
96
90
78
14
52
92
92
7c
10
10
ENDCHAR
STARTCHAR 204
ENCODING 41549
SWIDTH 1024 0
DWIDTH 16 0
BBX 10 10 3 1
BITMAP
0040
3080
4900
8a00
9400
6b00
1480
2880
4900
8600
ENDCHAR
STARTCHAR 205
ENCODING 41550
SWIDTH 1024 0
DWIDTH 16 0
BBX 10 10 4 1
BITMAP
3e00
4100
9900
a500
a500
a500
9d00
8640
4080
3f00
ENDCHAR
STARTCHAR 206
ENCODING 41551
SWIDTH 1024 0
DWIDTH 16 0
BBX 15 13 0 0
BITMAP
001c
00cc
00cc
000c
d1cc
7ccc
54cc
54cc
54cc
54cc
54cc
54cc
fffe
ENDCHAR
STARTCHAR 207
ENCODING 41552
SWIDTH 1024 0
DWIDTH 16 0
BBX 15 9 0 0
BITMAP
d4d4
7c7c
5454
5454
5454
5454
5454
5454
fefe
ENDCHAR
STARTCHAR 208
ENCODING 41553
SWIDTH 1024 0
DWIDTH 16 0
BBX 15 9 0 0
BITMAP
3c54
66fc
c654
c654
c054
c054
c254
6654
3cfe
ENDCHAR
STARTCHAR 209
ENCODING 41554
SWIDTH 1024 0
DWIDTH 16 0
BBX 15 13 0 0
BITMAP
c000
4000
4000
4000
4000
4ed4
447c
4854
5054
6854
4454
4254
e6fe
ENDCHAR
STARTCHAR 210
ENCODING 41555
SWIDTH 1024 0
DWIDTH 16 0
BBX 15 13 0 0
BITMAP
e782
4282
42c6
44c6
48c6
50ee
60aa
50aa
4892
4492
4282
4282
e7c6
ENDCHAR
STARTCHAR 211
ENCODING 41556
SWIDTH 1024 0
DWIDTH 16 0
BBX 14 14 0 -1
BITMAP
0038
0044
0008
0010
0020
ed7c
5b00
4900
4900
4900
4900
4900
4900
ff80
ENDCHAR
STARTCHAR 212
ENCODING 41557
SWIDTH 1024 0
DWIDTH 16 0
BBX 15 11 0 -2
BITMAP
d470
7c8a
548a
548c
5488
5470
5460
5498
fe84
0084
0078
ENDCHAR
STARTCHAR 213
ENCODING 41558
SWIDTH 1024 0
DWIDTH 16 0
BBX 15 15 0 -2
BITMAP
c000
4000
4000
4000
403a
4f46
4446
4844
5838
6c18
4424
4642
efc2
0042
003c
ENDCHAR
STARTCHAR 214
ENCODING 41559
SWIDTH 1024 0
DWIDTH 16 0
BBX 15 9 0 0
BITMAP
3c3c
4646
8282
8282
8080
8080
8080
4242
3c3c
ENDCHAR
STARTCHAR 215
ENCODING 41560
SWIDTH 1024 0
DWIDTH 16 0
BBX 5 4 1 9
BITMAP
70
88
88
70
ENDCHAR
STARTCHAR 216
ENCODING 41561
SWIDTH 1024 0
DWIDTH 16 0
BBX 15 15 0 -2
BITMAP
0810
0810
ff10
0810
7f7e
4110
4110
4110
7f10
3412
2412
6412
4412
c402
87fe
ENDCHAR
STARTCHAR 217
ENCODING 41562
SWIDTH 1024 0
DWIDTH 16 0
BBX 15 15 0 -2
BITMAP
0804
0808
ff90
0830
7f50
4110
41fe
4110
7f10
1410
3410
6412
4412
c402
87fe
ENDCHAR
STARTCHAR 218
ENCODING 41563
SWIDTH 1024 0
DWIDTH 16 0
BBX 15 15 0 -2
BITMAP
0800
0808
fff0
0820
7ffc
4120
4120
41fe
7f20
1422
3422
2422
643e
c402
87fe
ENDCHAR
STARTCHAR 219
ENCODING 41564
SWIDTH 1024 0
DWIDTH 16 0
BBX 15 15 0 -2
BITMAP
0838
0808
ff48
0848
0984
7f02
4178
4128
4128
7f28
1448
348a
653a
c402
87fe
ENDCHAR
STARTCHAR 220
ENCODING 41565
SWIDTH 1024 0
DWIDTH 16 0
BBX 15 15 0 -2
BITMAP
08fc
0810
ff20
0840
7f7c
4144
4144
4144
7f7c
1444
3444
3446
647e
c402
87fe
ENDCHAR
STARTCHAR 221
ENCODING 41566
SWIDTH 1024 0
DWIDTH 16 0
BBX 15 15 0 -2
BITMAP
10fe
1080
febe
10aa
febe
82aa
82be
8288
fe88
28fe
2908
6a7e
4802
c802
8ffe
ENDCHAR
STARTCHAR 222
ENCODING 41567
SWIDTH 1024 0
DWIDTH 16 0
BBX 15 15 0 -2
BITMAP
1024
fe3e
1224
1224
2424
45bc
8a40
0420
1bd8
e006
3ff8
2448
3ff8
2448
2458
ENDCHAR
STARTCHAR 223
ENCODING 41568
SWIDTH 1024 0
DWIDTH 16 0
BBX 15 15 0 -2
BITMAP
ff00
4008
4430
7ce0
4420
65fc
5420
5c20
4c20
4420
4420
4c20
7422
c402
07fe
ENDCHAR
STARTCHAR 224
ENCODING 41569
SWIDTH 1024 0
DWIDTH 16 0
BBX 15 15 0 -2
BITMAP
10fe
9280
54be
54aa
38aa
febe
10aa
38aa
54be
5488
5488
92fe
1088
1108
123e
ENDCHAR
STARTCHAR 225
ENCODING 41570
SWIDTH 1024 0
DWIDTH 16 0
BBX 16 2 0 -2
BITMAP
ffff
ffff
ENDCHAR
STARTCHAR 226
ENCODING 41571
SWIDTH 1024 0
DWIDTH 16 0
BBX 16 4 0 -2
BITMAP
ffff
ffff
ffff
ffff
ENDCHAR
STARTCHAR 227
ENCODING 41572
SWIDTH 1024 0
DWIDTH 16 0
BBX 16 6 0 -2
BITMAP
ffff
ffff
ffff
ffff
ffff
ffff
ENDCHAR
STARTCHAR 228
ENCODING 41573
SWIDTH 1024 0
DWIDTH 16 0
BBX 16 8 0 -2
BITMAP
ffff
ffff
ffff
ffff
ffff
ffff
ffff
ffff
ENDCHAR
STARTCHAR 229
ENCODING 41574
SWIDTH 1024 0
DWIDTH 16 0
BBX 16 10 0 -2
BITMAP
ffff
ffff
ffff
ffff
ffff
ffff
ffff
ffff
ffff
ffff
ENDCHAR
STARTCHAR 230
ENCODING 41575
SWIDTH 1024 0
DWIDTH 16 0
BBX 16 12 0 -2
BITMAP
ffff
ffff
ffff
ffff
ffff
ffff
ffff
ffff
ffff
ffff
ffff
ffff
ENDCHAR
STARTCHAR 231
ENCODING 41576
SWIDTH 1024 0
DWIDTH 16 0
BBX 16 14 0 -2
BITMAP
ffff
ffff
ffff
ffff
ffff
ffff
ffff
ffff
ffff
ffff
ffff
ffff
ffff
ffff
ENDCHAR
STARTCHAR 232
ENCODING 41577
SWIDTH 1024 0
DWIDTH 16 0
BBX 16 15 0 -2
BITMAP
ffff
ffff
ffff
ffff
ffff
ffff
ffff
ffff
ffff
ffff
ffff
ffff
ffff
ffff
ffff
ENDCHAR
STARTCHAR 233
ENCODING 41578
SWIDTH 1024 0
DWIDTH 16 0
BBX 2 15 0 -2
BITMAP
c0
c0
c0
c0
c0
c0
c0
c0
c0
c0
c0
c0
c0
c0
c0
ENDCHAR
STARTCHAR 234
ENCODING 41579
SWIDTH 1024 0
DWIDTH 16 0
BBX 4 15 0 -2
BITMAP
f0
f0
f0
f0
f0
f0
f0
f0
f0
f0
f0
f0
f0
f0
f0
ENDCHAR
STARTCHAR 235
ENCODING 41580
SWIDTH 1024 0
DWIDTH 16 0
BBX 6 15 0 -2
BITMAP
fc
fc
fc
fc
fc
fc
fc
fc
fc
fc
fc
fc
fc
fc
fc
ENDCHAR
STARTCHAR 236
ENCODING 41581
SWIDTH 1024 0
DWIDTH 16 0
BBX 8 15 0 -2
BITMAP
ff
ff
ff
ff
ff
ff
ff
ff
ff
ff
ff
ff
ff
ff
ff
ENDCHAR
STARTCHAR 237
ENCODING 41582
SWIDTH 1024 0
DWIDTH 16 0
BBX 10 15 0 -2
BITMAP
ffc0
ffc0
ffc0
ffc0
ffc0
ffc0
ffc0
ffc0
ffc0
ffc0
ffc0
ffc0
ffc0
ffc0
ffc0
ENDCHAR
STARTCHAR 238
ENCODING 41583
SWIDTH 1024 0
DWIDTH 16 0
BBX 12 15 0 -2
BITMAP
fff0
fff0
fff0
fff0
fff0
fff0
fff0
fff0
fff0
fff0
fff0
fff0
fff0
fff0
fff0
ENDCHAR
STARTCHAR 239
ENCODING 41584
SWIDTH 1024 0
DWIDTH 16 0
BBX 14 15 0 -2
BITMAP
fffc
fffc
fffc
fffc
fffc
fffc
fffc
fffc
fffc
fffc
fffc
fffc
fffc
fffc
fffc
ENDCHAR
STARTCHAR 240
ENCODING 41585
SWIDTH 1024 0
DWIDTH 16 0
BBX 16 15 0 -2
BITMAP
0180
0180
0180
0180
0180
0180
ffff
ffff
0180
0180
0180
0180
0180
0180
0180
ENDCHAR
STARTCHAR 241
ENCODING 41586
SWIDTH 1024 0
DWIDTH 16 0
BBX 16 8 0 5
BITMAP
0180
0180
0180
0180
0180
0180
ffff
ffff
ENDCHAR
STARTCHAR 242
ENCODING 41587
SWIDTH 1024 0
DWIDTH 16 0
BBX 16 9 0 -2
BITMAP
ffff
ffff
0180
0180
0180
0180
0180
0180
0180
ENDCHAR
STARTCHAR 243
ENCODING 41588
SWIDTH 1024 0
DWIDTH 16 0
BBX 9 15 0 -2
BITMAP
0180
0180
0180
0180
0180
0180
ff80
ff80
0180
0180
0180
0180
0180
0180
0180
ENDCHAR
STARTCHAR 244
ENCODING 41589
SWIDTH 1024 0
DWIDTH 16 0
BBX 9 15 7 -2
BITMAP
c000
c000
c000
c000
c000
c000
ff80
ff80
c000
c000
c000
c000
c000
c000
c000
ENDCHAR
STARTCHAR 245
ENCODING 41590
SWIDTH 1024 0
DWIDTH 16 0
BBX 16 1 0 12
BITMAP
ffff
ENDCHAR
STARTCHAR 246
ENCODING 41591
SWIDTH 1024 0
DWIDTH 16 0
BBX 16 2 0 5
BITMAP
ffff
ffff
ENDCHAR
STARTCHAR 247
ENCODING 41592
SWIDTH 1024 0
DWIDTH 16 0
BBX 2 15 7 -2
BITMAP
c0
c0
c0
c0
c0
c0
c0
c0
c0
c0
c0
c0
c0
c0
c0
ENDCHAR
STARTCHAR 248
ENCODING 41593
SWIDTH 1024 0
DWIDTH 16 0
BBX 2 15 14 -2
BITMAP
c0
c0
c0
c0
c0
c0
c0
c0
c0
c0
c0
c0
c0
c0
c0
ENDCHAR
STARTCHAR 249
ENCODING 41594
SWIDTH 1024 0
DWIDTH 16 0
BBX 9 9 7 -2
BITMAP
ff80
ff80
c000
c000
c000
c000
c000
c000
c000
ENDCHAR
STARTCHAR 250
ENCODING 41595
SWIDTH 1024 0
DWIDTH 16 0
BBX 9 9 0 -2
BITMAP
ff80
ff80
0180
0180
0180
0180
0180
0180
0180
ENDCHAR
STARTCHAR 251
ENCODING 41596
SWIDTH 1024 0
DWIDTH 16 0
BBX 9 8 7 5
BITMAP
c000
c000
c000
c000
c000
c000
ff80
ff80
ENDCHAR
STARTCHAR 252
ENCODING 41597
SWIDTH 1024 0
DWIDTH 16 0
BBX 9 8 0 5
BITMAP
0180
0180
0180
0180
0180
0180
ff80
ff80
ENDCHAR
STARTCHAR 253
ENCODING 41598
SWIDTH 1024 0
DWIDTH 16 0
BBX 8 8 7 -2
BITMAP
0f
3f
70
60
c0
c0
c0
c0
ENDCHAR
STARTCHAR 288
ENCODING 41633
SWIDTH 1024 0
DWIDTH 16 0
BBX 8 8 0 -2
BITMAP
f0
fc
0e
06
03
03
03
03
ENDCHAR
STARTCHAR 289
ENCODING 41634
SWIDTH 1024 0
DWIDTH 16 0
BBX 8 7 7 6
BITMAP
c0
c0
c0
60
70
3f
0f
ENDCHAR
STARTCHAR 290
ENCODING 41635
SWIDTH 1024 0
DWIDTH 16 0
BBX 8 7 0 6
BITMAP
03
03
03
06
0e
fc
f0
ENDCHAR
STARTCHAR 291
ENCODING 41636
SWIDTH 1024 0
DWIDTH 16 0
BBX 16 9 0 1
BITMAP
ffff
ffff
0000
0000
0000
0000
0000
ffff
ffff
ENDCHAR
STARTCHAR 292
ENCODING 41637
SWIDTH 1024 0
DWIDTH 16 0
BBX 9 15 7 -2
BITMAP
c000
c000
c000
ff80
ff80
c000
c000
c000
c000
c000
ff80
ff80
c000
c000
c000
ENDCHAR
STARTCHAR 293
ENCODING 41638
SWIDTH 1024 0
DWIDTH 16 0
BBX 16 15 0 -2
BITMAP
0180
0180
0180
ffff
ffff
0180
0180
0180
0180
0180
ffff
ffff
0180
0180
0180
ENDCHAR
STARTCHAR 294
ENCODING 41639
SWIDTH 1024 0
DWIDTH 16 0
BBX 9 15 0 -2
BITMAP
0180
0180
0180
ff80
ff80
0180
0180
0180
0180
0180
ff80
ff80
0180
0180
0180
ENDCHAR
STARTCHAR 295
ENCODING 41640
SWIDTH 1024 0
DWIDTH 16 0
BBX 15 15 1 -2
BITMAP
0002
0006
000e
001e
003e
007e
00fe
01fe
03fe
07fe
0ffe
1ffe
3ffe
7ffe
fffe
ENDCHAR
STARTCHAR 296
ENCODING 41641
SWIDTH 1024 0
DWIDTH 16 0
BBX 15 15 0 -2
BITMAP
8000
c000
e000
f000
f800
fc00
fe00
ff00
ff80
ffc0
ffe0
fff0
fff8
fffc
fffe
ENDCHAR
STARTCHAR 297
ENCODING 41642
SWIDTH 1024 0
DWIDTH 16 0
BBX 15 15 1 -2
BITMAP
fffe
7ffe
3ffe
1ffe
0ffe
07fe
03fe
01fe
00fe
007e
003e
001e
000e
0006
0002
ENDCHAR
STARTCHAR 298
ENCODING 41643
SWIDTH 1024 0
DWIDTH 16 0
BBX 15 15 0 -2
BITMAP
fffe
fffc
fff8
fff0
ffe0
ffc0
ff80
ff00
fe00
fc00
f800
f000
e000
c000
8000
ENDCHAR
STARTCHAR 299
ENCODING 41644
SWIDTH 1024 0
DWIDTH 16 0
BBX 16 15 0 -2
BITMAP
0003
0006
000c
0018
0030
0060
00c0
0180
0300
0600
0c00
1800
3000
6000
c000
ENDCHAR
STARTCHAR 300
ENCODING 41645
SWIDTH 1024 0
DWIDTH 16 0
BBX 16 15 0 -2
BITMAP
c000
6000
3000
1800
0c00
0600
0300
0180
00c0
0060
0030
0018
000c
0006
0003
ENDCHAR
STARTCHAR 301
ENCODING 41646
SWIDTH 1024 0
DWIDTH 16 0
BBX 16 15 0 -2
BITMAP
c003
6006
300c
1818
0c30
0660
03c0
0180
03c0
0660
0c30
1818
300c
6006
c003
ENDCHAR
STARTCHAR 302
ENCODING 41647
SWIDTH 1024 0
DWIDTH 16 0
BBX 11 14 3 -1
BITMAP
3f80
60c0
c060
c0e0
c1e0
c360
c660
cc60
d860
f060
e060
c060
60c0
3f80
ENDCHAR
STARTCHAR 303
ENCODING 41648
SWIDTH 1024 0
DWIDTH 16 0
BBX 8 14 4 -1
BITMAP
18
38
78
18
18
18
18
18
18
18
18
18
18
ff
ENDCHAR
STARTCHAR 304
ENCODING 41649
SWIDTH 1024 0
DWIDTH 16 0
BBX 11 14 3 -1
BITMAP
3f80
60c0
c060
c060
c0e0
01c0
0700
0c00
3800
6000
c020
c020
ffe0
ffe0
ENDCHAR
STARTCHAR 305
ENCODING 41650
SWIDTH 1024 0
DWIDTH 16 0
BBX 11 14 3 -1
BITMAP
1f00
60c0
c060
c060
00c0
0380
0f00
0380
00c0
0060
c060
c060
60c0
1f00
ENDCHAR
STARTCHAR 306
ENCODING 41651
SWIDTH 1024 0
DWIDTH 16 0
BBX 13 14 1 -1
BITMAP
00c0
01c0
03c0
06c0
0cc0
18c0
30c0
60c0
c0c0
c0c0
fff8
00c0
00c0
03f0
ENDCHAR
STARTCHAR 307
ENCODING 41652
SWIDTH 1024 0
DWIDTH 16 0
BBX 11 14 3 -1
BITMAP
ffc0
ffc0
c000
c000
c000
df00
e0c0
c060
0060
0060
c060
c060
60c0
1f00
ENDCHAR
STARTCHAR 308
ENCODING 41653
SWIDTH 1024 0
DWIDTH 16 0
BBX 11 14 3 -1
BITMAP
1f80
60c0
c0c0
c000
c000
c000
df80
e0c0
c060
c060
c060
c060
60c0
3f00
ENDCHAR
STARTCHAR 309
ENCODING 41654
SWIDTH 1024 0
DWIDTH 16 0
BBX 11 14 3 -1
BITMAP
ffe0
ffe0
8060
8060
00c0
0180
0300
0600
0c00
0c00
0c00
0c00
0c00
0c00
ENDCHAR
STARTCHAR 310
ENCODING 41655
SWIDTH 1024 0
DWIDTH 16 0
BBX 12 14 2 -1
BITMAP
0f00
30c0
6060
6060
6060
30c0
1f80
30c0
6060
c030
c030
c030
6060
1f80
ENDCHAR
STARTCHAR 311
ENCODING 41656
SWIDTH 1024 0
DWIDTH 16 0
BBX 11 14 3 -1
BITMAP
1e00
6180
c0c0
c060
c060
c060
c0e0
61e0
1e60
0060
c0c0
e0c0
6180
1e00
ENDCHAR
STARTCHAR 312
ENCODING 41657
SWIDTH 1024 0
DWIDTH 16 0
BBX 8 13 4 0
BITMAP
ff
18
18
18
18
18
18
18
18
18
18
18
ff
ENDCHAR
STARTCHAR 313
ENCODING 41658
SWIDTH 1024 0
DWIDTH 16 0
BBX 9 13 4 0
BITMAP
ff80
3600
3600
3600
3600
3600
3600
3600
3600
3600
3600
3600
ff80
ENDCHAR
STARTCHAR 314
ENCODING 41659
SWIDTH 1024 0
DWIDTH 16 0
BBX 11 13 2 0
BITMAP
ffe0
36c0
36c0
36c0
36c0
36c0
36c0
36c0
36c0
36c0
36c0
36c0
ffe0
ENDCHAR
STARTCHAR 315
ENCODING 41660
SWIDTH 1024 0
DWIDTH 16 0
BBX 15 13 0 0
BITMAP
fe0e
6404
6404
6404
6208
6208
6208
6110
6110
6110
60a0
60a0
f840
ENDCHAR
STARTCHAR 316
ENCODING 41661
SWIDTH 1024 0
DWIDTH 16 0
BBX 15 13 0 0
BITMAP
f83e
2008
2008
2008
2008
1010
1010
0820
0820
0440
0280
0280
0100
ENDCHAR
STARTCHAR 317
ENCODING 41662
SWIDTH 1024 0
DWIDTH 16 0
BBX 15 13 0 0
BITMAP
e1de
408c
408c
408c
408c
408c
618c
210c
330c
120c
1e0c
0c0c
0c1e
ENDCHAR
STARTCHAR 318
ENCODING 41663
SWIDTH 1024 0
DWIDTH 16 0
BBX 15 13 0 0
BITMAP
f1fe
4094
4094
4094
4094
6194
2114
2114
3314
1214
1e14
0c14
0c3e
ENDCHAR
STARTCHAR 319
ENCODING 41664
SWIDTH 1024 0
DWIDTH 16 0
BBX 15 13 0 0
BITMAP
e3fe
4154
4154
4154
4154
4154
6354
2254
2254
2254
3654
1454
08fe
ENDCHAR
STARTCHAR 320
ENCODING 41665
SWIDTH 1024 0
DWIDTH 16 0
BBX 15 13 0 0
BITMAP
fe0e
6404
660c
6318
61b0
60e0
6040
60e0
61b0
6318
660c
6404
fe0e
ENDCHAR
STARTCHAR 321
ENCODING 41666
SWIDTH 1024 0
DWIDTH 16 0
BBX 14 13 1 0
BITMAP
f03c
6018
3030
1860
0cc0
0780
0300
0780
0cc0
1860
3030
6018
f03c
ENDCHAR
STARTCHAR 322
ENCODING 41667
SWIDTH 1024 0
DWIDTH 16 0
BBX 2 15 7 -2
BITMAP
c0
c0
c0
c0
c0
c0
c0
c0
c0
c0
c0
c0
c0
c0
40
ENDCHAR
STARTCHAR 323
ENCODING 41668
SWIDTH 1024 0
DWIDTH 16 0
BBX 6 15 5 -2
BITMAP
0c
4c
cc
cc
cc
cc
cc
cc
cc
cc
cc
cc
4c
0c
04
ENDCHAR
STARTCHAR 324
ENCODING 41669
SWIDTH 1024 0
DWIDTH 16 0
BBX 10 15 3 -2
BITMAP
00c0
40c0
c0c0
c4c0
ccc0
ccc0
ccc0
ccc0
ccc0
ccc0
ccc0
c4c0
40c0
00c0
0040
ENDCHAR
STARTCHAR 325
ENCODING 41670
SWIDTH 1024 0
DWIDTH 16 0
BBX 13 12 1 0
BITMAP
c018
6030
3060
18c0
0d80
0700
0700
0d80
18c0
3060
6030
c018
ENDCHAR
STARTCHAR 326
ENCODING 41671
SWIDTH 1024 0
DWIDTH 16 0
BBX 8 13 5 -1
BITMAP
33
33
66
6c
78
38
6c
c6
c6
c6
c6
cc
78
ENDCHAR
STARTCHAR 327
ENCODING 41672
SWIDTH 1024 0
DWIDTH 16 0
BBX 13 7 2 4
BITMAP
0400
0600
0600
0600
0620
fff0
fff8
ENDCHAR
STARTCHAR 328
ENCODING 41673
SWIDTH 1024 0
DWIDTH 16 0
BBX 14 10 1 2
BITMAP
0200
0300
0300
0310
fff8
fffc
0000
0040
3fe0
3ff0
ENDCHAR
STARTCHAR 329
ENCODING 41674
SWIDTH 1024 0
DWIDTH 16 0
BBX 15 14 0 -1
BITMAP
0200
0300
0300
0320
7ff0
7ff8
0000
0000
1fe0
1fe0
0000
0008
fffc
fffe
ENDCHAR
STARTCHAR 330
ENCODING 41675
SWIDTH 1024 0
DWIDTH 16 0
BBX 13 14 2 -1
BITMAP
0400
0c00
1800
3fe0
7ff0
6060
30c0
1980
0f00
0600
0f00
19c0
70f8
e030
ENDCHAR
STARTCHAR 331
ENCODING 41676
SWIDTH 1024 0
DWIDTH 16 0
BBX 13 14 2 -1
BITMAP
0600
0600
0600
0600
0600
0610
fff8
0600
0600
0600
0600
0600
0600
0600
ENDCHAR
STARTCHAR 332
ENCODING 41677
SWIDTH 1024 0
DWIDTH 16 0
BBX 15 13 0 0
BITMAP
0880
0cc0
0ee0
0cc0
0cc0
0cc8
fffc
fffe
0cc0
0cc0
0cc0
0cc0
0cc0
ENDCHAR
STARTCHAR 333
ENCODING 41678
SWIDTH 1024 0
DWIDTH 16 0
BBX 15 12 0 0
BITMAP
3330
3330
3330
3330
fffc
fffe
3330
3330
3330
3330
3330
3320
ENDCHAR
STARTCHAR 334
ENCODING 41679
SWIDTH 1024 0
DWIDTH 16 0
BBX 14 14 1 -1
BITMAP
0300
0300
0780
0780
0cc0
0cc0
1860
1860
1fe0
3030
3030
6018
6018
f03c
ENDCHAR
STARTCHAR 335
ENCODING 41680
SWIDTH 1024 0
DWIDTH 16 0
BBX 11 14 3 -1
BITMAP
fe00
6180
60c0
60c0
60c0
6180
7f00
6180
60c0
6060
6060
6060
60c0
ff00
ENDCHAR
STARTCHAR 336
ENCODING 41681
SWIDTH 1024 0
DWIDTH 16 0
BBX 12 14 2 -1
BITMAP
0f10
30d0
6070
c030
c010
c000
c000
c000
c000
c010
c030
6060
30c0
0f00
ENDCHAR
STARTCHAR 337
ENCODING 41682
SWIDTH 1024 0
DWIDTH 16 0
BBX 12 14 2 -1
BITMAP
ff00
61c0
6070
6030
6030
6030
6030
6030
6030
6030
6030
6060
61c0
ff00
ENDCHAR
STARTCHAR 338
ENCODING 41683
SWIDTH 1024 0
DWIDTH 16 0
BBX 10 14 3 -1
BITMAP
ffc0
60c0
6040
6000
6200
6200
7e00
6200
6200
6000
6000
6040
60c0
ffc0
ENDCHAR
STARTCHAR 339
ENCODING 41684
SWIDTH 1024 0
DWIDTH 16 0
BBX 10 14 3 -1
BITMAP
ffc0
60c0
6040
6000
6200
6200
7e00
6200
6200
6000
6000
6000
6000
f000
ENDCHAR
STARTCHAR 340
ENCODING 41685
SWIDTH 1024 0
DWIDTH 16 0
BBX 12 14 2 -1
BITMAP
1f20
30e0
6060
c020
c020
c000
c000
c0f0
c060
c060
c060
60e0
31e0
1f60
ENDCHAR
STARTCHAR 341
ENCODING 41686
SWIDTH 1024 0
DWIDTH 16 0
BBX 12 14 2 -1
BITMAP
f0f0
6060
6060
6060
6060
6060
7fe0
6060
6060
6060
6060
6060
6060
f0f0
ENDCHAR
STARTCHAR 342
ENCODING 41687
SWIDTH 1024 0
DWIDTH 16 0
BBX 6 14 5 -1
BITMAP
fc
30
30
30
30
30
30
30
30
30
30
30
30
fc
ENDCHAR
STARTCHAR 343
ENCODING 41688
SWIDTH 1024 0
DWIDTH 16 0
BBX 10 14 3 -1
BITMAP
07c0
0180
0180
0180
0180
0180
0180
0180
0180
c180
c180
c380
6700
3c00
ENDCHAR
STARTCHAR 344
ENCODING 41689
SWIDTH 1024 0
DWIDTH 16 0
BBX 13 14 2 -1
BITMAP
f1f0
60c0
6180
6300
6600
6c00
7800
7c00
6600
6300
6180
60c0
6060
f0f8
ENDCHAR
STARTCHAR 345
ENCODING 41690
SWIDTH 1024 0
DWIDTH 16 0
BBX 11 14 3 -1
BITMAP
f000
6000
6000
6000
6000
6000
6000
6000
6000
6000
6020
6060
60e0
ffe0
ENDCHAR
STARTCHAR 346
ENCODING 41691
SWIDTH 1024 0
DWIDTH 16 0
BBX 15 14 0 -1
BITMAP
f01e
701c
783c
783c
6c6c
6c6c
644c
66cc
66cc
628c
638c
610c
600c
f03e
ENDCHAR
STARTCHAR 347
ENCODING 41692
SWIDTH 1024 0
DWIDTH 16 0
BBX 14 14 0 -1
BITMAP
e03c
7018
7818
7c18
6e18
6718
6398
61d8
60f8
6078
6038
6018
6018
f03c
ENDCHAR
STARTCHAR 348
ENCODING 41693
SWIDTH 1024 0
DWIDTH 16 0
BBX 12 14 2 -1
BITMAP
1f80
70e0
e070
c030
c030
c030
c030
c030
c030
c030
c030
e070
70e0
1f80
ENDCHAR
STARTCHAR 349
ENCODING 41694
SWIDTH 1024 0
DWIDTH 16 0
BBX 11 14 3 -1
BITMAP
ff00
61c0
60e0
6060
6060
60e0
61c0
7f00
6000
6000
6000
6000
6000
f000
ENDCHAR
STARTCHAR 350
ENCODING 41695
SWIDTH 1024 0
DWIDTH 16 0
BBX 14 15 1 -2
BITMAP
1f80
70e0
e070
c030
c030
c030
c030
c030
c030
c030
cf30
e1f0
70e0
1fec
0038
ENDCHAR
STARTCHAR 351
ENCODING 41696
SWIDTH 1024 0
DWIDTH 16 0
BBX 12 14 3 -1
BITMAP
fe00
6380
61c0
60c0
60c0
61c0
6380
7f00
6e00
6600
6300
6180
60c0
f1f0
ENDCHAR
STARTCHAR 352
ENCODING 41697
SWIDTH 1024 0
DWIDTH 16 0
BBX 11 14 3 -1
BITMAP
3f40
61c0
c0c0
c040
6000
3800
0e00
0380
00c0
8060
c060
e060
b0c0
9f80
ENDCHAR
STARTCHAR 353
ENCODING 41698
SWIDTH 1024 0
DWIDTH 16 0
BBX 12 14 2 -1
BITMAP
fff0
e670
c630
8610
0600
0600
0600
0600
0600
0600
0600
0600
0600
0f00
ENDCHAR
STARTCHAR 354
ENCODING 41699
SWIDTH 1024 0
DWIDTH 16 0
BBX 12 14 2 -1
BITMAP
f0f0
6060
6060
6060
6060
6060
6060
6060
6060
6060
6060
6060
39c0
1f80
ENDCHAR
STARTCHAR 355
ENCODING 41700
SWIDTH 1024 0
DWIDTH 16 0
BBX 13 14 1 -1
BITMAP
f078
6030
6030
6030
6030
6030
6030
6030
6030
3060
18c0
0d80
0700
0200
ENDCHAR
STARTCHAR 356
ENCODING 41701
SWIDTH 1024 0
DWIDTH 16 0
BBX 15 14 0 -1
BITMAP
e38e
4104
4104
638c
238c
2288
2288
36d8
36d8
1450
1c70
0820
0820
0820
ENDCHAR
STARTCHAR 357
ENCODING 41702
SWIDTH 1024 0
DWIDTH 16 0
BBX 15 14 0 -1
BITMAP
f83e
3018
1830
0c60
0440
06c0
0380
0100
0380
06c0
0c60
1830
3018
f83e
ENDCHAR
STARTCHAR 358
ENCODING 41703
SWIDTH 1024 0
DWIDTH 16 0
BBX 14 14 1 -1
BITMAP
f03c
6018
3030
1860
0cc0
0780
0300
0300
0300
0300
0300
0300
0300
0780
ENDCHAR
STARTCHAR 359
ENCODING 41704
SWIDTH 1024 0
DWIDTH 16 0
BBX 12 14 2 -1
BITMAP
7ff0
6030
4030
0060
00c0
0180
0300
0600
0c00
1800
3000
6010
c030
fff0
ENDCHAR
STARTCHAR 360
ENCODING 41705
SWIDTH 1024 0
DWIDTH 16 0
BBX 10 9 3 -1
BITMAP
3e00
c300
0300
3f00
6300
c300
c300
c740
7d80
ENDCHAR
STARTCHAR 361
ENCODING 41706
SWIDTH 1024 0
DWIDTH 16 0
BBX 10 14 3 -1
BITMAP
e000
6000
6000
6000
6000
7f00
7180
60c0
60c0
60c0
60c0
60c0
7180
ff00
ENDCHAR
STARTCHAR 362
ENCODING 41707
SWIDTH 1024 0
DWIDTH 16 0
BBX 9 9 3 -1
BITMAP
3f00
6180
c180
c180
c000
c000
c000
6080
3f00
ENDCHAR
STARTCHAR 363
ENCODING 41708
SWIDTH 1024 0
DWIDTH 16 0
BBX 10 14 3 -1
BITMAP
01c0
00c0
00c0
00c0
00c0
3ec0
61c0
c0c0
c0c0
c0c0
c0c0
c0c0
61c0
3ec0
ENDCHAR
STARTCHAR 364
ENCODING 41709
SWIDTH 1024 0
DWIDTH 16 0
BBX 10 9 3 -1
BITMAP
3f00
6180
c0c0
c0c0
ffc0
c000
c000
60c0
3f80
ENDCHAR
STARTCHAR 365
ENCODING 41710
SWIDTH 1024 0
DWIDTH 16 0
BBX 9 14 3 -1
BITMAP
0f00
1980
1980
1800
1800
ff00
1800
1800
1800
1800
1800
1800
1800
3c00
ENDCHAR
STARTCHAR 366
ENCODING 41711
SWIDTH 1024 0
DWIDTH 16 0
BBX 10 11 3 -2
BITMAP
3ec0
6380
6300
6300
3e00
1c00
6300
c180
c180
6300
3e00
ENDCHAR
STARTCHAR 367
ENCODING 41712
SWIDTH 1024 0
DWIDTH 16 0
BBX 11 14 3 -1
BITMAP
e000
6000
6000
6000
6000
6f00
7980
70c0
60c0
60c0
60c0
60c0
60c0
f1e0
ENDCHAR
STARTCHAR 368
ENCODING 41713
SWIDTH 1024 0
DWIDTH 16 0
BBX 4 13 6 -1
BITMAP
60
60
00
00
e0
60
60
60
60
60
60
60
f0
ENDCHAR
STARTCHAR 369
ENCODING 41714
SWIDTH 1024 0
DWIDTH 16 0
BBX 6 14 4 -1
BITMAP
0c
0c
00
00
1c
0c
0c
0c
0c
0c
cc
cc
cc
78
ENDCHAR
STARTCHAR 370
ENCODING 41715
SWIDTH 1024 0
DWIDTH 16 0
BBX 12 14 3 -1
BITMAP
e000
6000
6000
6000
6000
67c0
6300
6600
6c00
7e00
7300
6180
60c0
f1f0
ENDCHAR
STARTCHAR 371
ENCODING 41716
SWIDTH 1024 0
DWIDTH 16 0
BBX 4 14 6 -1
BITMAP
e0
60
60
60
60
60
60
60
60
60
60
60
60
f0
ENDCHAR
STARTCHAR 372
ENCODING 41717
SWIDTH 1024 0
DWIDTH 16 0
BBX 14 9 1 -1
BITMAP
def0
7398
6318
6318
6318
6318
6318
6318
f39c
ENDCHAR
STARTCHAR 373
ENCODING 41718
SWIDTH 1024 0
DWIDTH 16 0
BBX 10 9 3 -1
BITMAP
df00
7180
6180
6180
6180
6180
6180
6180
f3c0
ENDCHAR
STARTCHAR 374
ENCODING 41719
SWIDTH 1024 0
DWIDTH 16 0
BBX 10 9 3 -1
BITMAP
3f00
6180
c0c0
c0c0
c0c0
c0c0
c0c0
6180
3f00
ENDCHAR
STARTCHAR 375
ENCODING 41720
SWIDTH 1024 0
DWIDTH 16 0
BBX 10 10 3 -2
BITMAP
df00
7180
60c0
60c0
60c0
7180
7f00
6000
6000
f000
ENDCHAR
STARTCHAR 376
ENCODING 41721
SWIDTH 1024 0
DWIDTH 16 0
BBX 10 10 3 -2
BITMAP
3e00
6380
c180
c180
c180
6380
3f80
0180
0180
03c0
ENDCHAR
STARTCHAR 377
ENCODING 41722
SWIDTH 1024 0
DWIDTH 16 0
BBX 8 9 4 -1
BITMAP
de
77
63
60
60
60
60
60
f0
ENDCHAR
STARTCHAR 378
ENCODING 41723
SWIDTH 1024 0
DWIDTH 16 0
BBX 8 9 4 -1
BITMAP
7e
c7
c1
70
18
0e
83
c3
7e
ENDCHAR
STARTCHAR 379
ENCODING 41724
SWIDTH 1024 0
DWIDTH 16 0
BBX 9 13 3 -2
BITMAP
1800
1800
1800
ff00
1800
1800
1800
1800
1800
1980
1b80
1f00
0c00
ENDCHAR
STARTCHAR 380
ENCODING 41725
SWIDTH 1024 0
DWIDTH 16 0
BBX 11 9 3 -1
BITMAP
e380
6180
6180
6180
6180
6180
6180
6380
3ee0
ENDCHAR
STARTCHAR 381
ENCODING 41726
SWIDTH 1024 0
DWIDTH 16 0
BBX 11 9 3 -1
BITMAP
f1e0
60c0
3180
3180
1b00
1b00
0e00
0e00
0400
ENDCHAR
STARTCHAR 382
ENCODING 41792
SWIDTH 1024 0
DWIDTH 16 0
BBX 13 9 1 -1
BITMAP
e738
4210
4210
4210
4210
4510
28a0
1040
1040
ENDCHAR
STARTCHAR 383
ENCODING 41793
SWIDTH 1024 0
DWIDTH 16 0
BBX 12 9 2 -1
BITMAP
f9f0
30c0
1980
0f00
0600
0f00
1980
30c0
f9f0
ENDCHAR
STARTCHAR 384
ENCODING 41794
SWIDTH 1024 0
DWIDTH 16 0
BBX 11 10 3 -2
BITMAP
f1e0
60c0
3180
1980
0f00
0700
0600
cc00
dc00
7800
ENDCHAR
STARTCHAR 385
ENCODING 41795
SWIDTH 1024 0
DWIDTH 16 0
BBX 9 9 4 -1
BITMAP
ff00
c300
8600
0c00
1800
3000
6080
c180
ff80
ENDCHAR
STARTCHAR 386
ENCODING 41796
SWIDTH 1024 0
DWIDTH 16 0
BBX 13 14 2 -1
BITMAP
0200
0700
0700
0d80
0d80
0d80
18c0
18c0
1fc0
3060
3060
6030
6030
f078
ENDCHAR
STARTCHAR 387
ENCODING 41797
SWIDTH 1024 0
DWIDTH 16 0
BBX 11 14 3 -1
BITMAP
ff00
6380
60c0
60c0
60c0
6180
7f00
6180
60c0
6060
6060
6060
60c0
ff80
ENDCHAR
STARTCHAR 388
ENCODING 41798
SWIDTH 1024 0
DWIDTH 16 0
BBX 11 14 3 -1
BITMAP
ffe0
60e0
6060
6020
6000
6000
6000
6000
6000
6000
6000
6000
6000
f000
ENDCHAR
STARTCHAR 389
ENCODING 41799
SWIDTH 1024 0
DWIDTH 16 0
BBX 14 14 1 -1
BITMAP
0300
0300
0780
0480
0cc0
0840
1860
1020
3030
2010
6018
4008
c00c
fffc
ENDCHAR
STARTCHAR 390
ENCODING 41800
SWIDTH 1024 0
DWIDTH 16 0
BBX 10 14 3 -1
BITMAP
ffc0
60c0
6040
6000
6200
6200
7e00
6200
6200
6000
6000
6040
60c0
ffc0
ENDCHAR
STARTCHAR 391
ENCODING 41801
SWIDTH 1024 0
DWIDTH 16 0
BBX 13 14 2 -1
BITMAP
7ff8
6038
4030
0060
00c0
0180
0300
0600
0c00
1800
3000
6010
c030
fff0
ENDCHAR
STARTCHAR 392
ENCODING 41802
SWIDTH 1024 0
DWIDTH 16 0
BBX 12 14 2 -1
BITMAP
f0f0
6060
6060
6060
6060
6060
7fe0
6060
6060
6060
6060
6060
6060
f0f0
ENDCHAR
STARTCHAR 393
ENCODING 41803
SWIDTH 1024 0
DWIDTH 16 0
BBX 11 12 2 0
BITMAP
1f00
71c0
c060
c060
d160
df60
df60
d160
c060
c060
71c0
1f00
ENDCHAR
STARTCHAR 394
ENCODING 41804
SWIDTH 1024 0
DWIDTH 16 0
BBX 6 14 5 -1
BITMAP
fc
30
30
30
30
30
30
30
30
30
30
30
30
fc
ENDCHAR
STARTCHAR 395
ENCODING 41805
SWIDTH 1024 0
DWIDTH 16 0
BBX 13 14 2 -1
BITMAP
f0f0
6060
60c0
6180
6300
6600
6c00
7e00
7300
6180
60c0
6060
6030
f078
ENDCHAR
STARTCHAR 396
ENCODING 41806
SWIDTH 1024 0
DWIDTH 16 0
BBX 14 14 1 -1
BITMAP
0300
0300
0780
0cc0
0cc0
0cc0
1860
1860
3030
3030
6018
6018
c00c
e01c
ENDCHAR
STARTCHAR 397
ENCODING 41807
SWIDTH 1024 0
DWIDTH 16 0
BBX 14 14 1 -1
BITMAP
e01c
7038
7038
7878
6858
6858
6cd8
6cd8
6498
6498
6798
6318
6318
f03c
ENDCHAR
STARTCHAR 398
ENCODING 41808
SWIDTH 1024 0
DWIDTH 16 0
BBX 13 14 2 -1
BITMAP
f078
7030
7830
7c30
6c30
6630
6730
6330
61b0
61f0
60f0
6070
6070
f030
ENDCHAR
STARTCHAR 399
ENCODING 41809
SWIDTH 1024 0
DWIDTH 16 0
BBX 12 14 2 -1
BITMAP
3ff0
7fe0
4020
0000
0000
1020
3fc0
4080
0000
0000
0000
4010
7ff0
ffe0
ENDCHAR
STARTCHAR 400
ENCODING 41810
SWIDTH 1024 0
DWIDTH 16 0
BBX 12 13 2 -1
BITMAP
1f80
70e0
c030
c030
c030
c030
c030
c030
c030
c030
c030
70e0
1f80
ENDCHAR
STARTCHAR 401
ENCODING 41811
SWIDTH 1024 0
DWIDTH 16 0
BBX 12 14 2 -1
BITMAP
fff0
6060
6060
6060
6060
6060
6060
6060
6060
6060
6060
6060
6060
f0f0
ENDCHAR
STARTCHAR 402
ENCODING 41812
SWIDTH 1024 0
DWIDTH 16 0
BBX 11 14 3 -1
BITMAP
ff00
61c0
60e0
6060
6060
60e0
61c0
7f00
6000
6000
6000
6000
6000
f000
ENDCHAR
STARTCHAR 403
ENCODING 41813
SWIDTH 1024 0
DWIDTH 16 0
BBX 11 14 3 -1
BITMAP
ffe0
ffe0
6060
3020
1800
0c00
0600
0600
0c00
1800
3020
6060
ffe0
ffe0
ENDCHAR
STARTCHAR 404
ENCODING 41814
SWIDTH 1024 0
DWIDTH 16 0
BBX 12 14 2 -1
BITMAP
fff0
e670
c630
8610
0600
0600
0600
0600
0600
0600
0600
0600
0600
0f00
ENDCHAR
STARTCHAR 405
ENCODING 41815
SWIDTH 1024 0
DWIDTH 16 0
BBX 12 14 2 -1
BITMAP
39c0
7fe0
c730
c630
c630
0600
0600
0600
0600
0600
0600
0600
0600
0f00
ENDCHAR
STARTCHAR 406
ENCODING 41816
SWIDTH 1024 0
DWIDTH 16 0
BBX 14 14 1 -1
BITMAP
0780
0300
0fc0
3b70
6318
c30c
c30c
c30c
c30c
6318
3b70
0fc0
0300
0780
ENDCHAR
STARTCHAR 407
ENCODING 41817
SWIDTH 1024 0
DWIDTH 16 0
BBX 14 14 1 -1
BITMAP
f83c
6018
3030
1860
0cc0
0780
0300
0300
0780
0cc0
1860
3030
6018
f87c
ENDCHAR
STARTCHAR 408
ENCODING 41818
SWIDTH 1024 0
DWIDTH 16 0
BBX 16 14 0 -1
BITMAP
63c6
f18f
9999
1998
1998
1998
1998
1998
0db0
0db0
07e0
0180
0180
03c0
ENDCHAR
STARTCHAR 409
ENCODING 41819
SWIDTH 1024 0
DWIDTH 16 0
BBX 13 13 2 0
BITMAP
0f00
1980
30c0
6060
6060
6060
6060
6060
30c0
1980
1980
d998
f9f8
ENDCHAR
STARTCHAR 410
ENCODING 41820
SWIDTH 1024 0
DWIDTH 16 0
BBX 12 9 3 -1
BITMAP
1e70
3bc0
6180
c180
c180
c180
c380
66c0
3c70
ENDCHAR
STARTCHAR 411
ENCODING 41821
SWIDTH 1024 0
DWIDTH 16 0
BBX 12 15 2 -2
BITMAP
03c0
0660
0c30
1c30
1860
30c0
3780
3180
70c0
6060
6060
f0c0
cf80
c000
c000
ENDCHAR
STARTCHAR 412
ENCODING 41822
SWIDTH 1024 0
DWIDTH 16 0
BBX 9 9 3 -1
BITMAP
3180
7b80
cf00
8600
0600
0e00
0c00
1c00
3800
ENDCHAR
STARTCHAR 413
ENCODING 41823
SWIDTH 1024 0
DWIDTH 16 0
BBX 9 14 4 -1
BITMAP
1e00
3300
3180
1880
0f00
1e00
7300
6300
c300
c300
c300
c700
ee00
7c00
ENDCHAR
STARTCHAR 414
ENCODING 41824
SWIDTH 1024 0
DWIDTH 16 0
BBX 8 9 4 -1
BITMAP
3e
63
40
78
78
c0
c1
7f
1c
ENDCHAR
STARTCHAR 415
ENCODING 41825
SWIDTH 1024 0
DWIDTH 16 0
BBX 7 15 4 -2
BITMAP
30
62
c6
7c
18
30
60
c0
c0
c0
f0
7c
0e
ce
7c
ENDCHAR
STARTCHAR 416
ENCODING 41826
SWIDTH 1024 0
DWIDTH 16 0
BBX 10 10 2 -2
BITMAP
7780
ddc0
18c0
18c0
30c0
30c0
30c0
30c0
3180
0180
ENDCHAR
STARTCHAR 417
ENCODING 41827
SWIDTH 1024 0
DWIDTH 16 0
BBX 10 14 3 -1
BITMAP
0f00
1980
3180
60c0
60c0
e0c0
ffc0
c0c0
c1c0
c180
c380
e300
6600
3c00
ENDCHAR
STARTCHAR 418
ENCODING 41828
SWIDTH 1024 0
DWIDTH 16 0
BBX 7 9 4 -1
BITMAP
18
18
30
70
60
e2
c6
fc
70
ENDCHAR
STARTCHAR 419
ENCODING 41829
SWIDTH 1024 0
DWIDTH 16 0
BBX 11 10 2 -1
BITMAP
3000
78c0
d9c0
9b00
3600
3e00
3b00
3320
73e0
e1c0
ENDCHAR
STARTCHAR 420
ENCODING 41830
SWIDTH 1024 0
DWIDTH 16 0
BBX 10 13 4 -1
BITMAP
f000
1800
0c00
0c00
0c00
1c00
3c00
3c00
6c00
6600
c300
c3c0
c1c0
ENDCHAR
STARTCHAR 421
ENCODING 41831
SWIDTH 1024 0
DWIDTH 16 0
BBX 11 9 3 -1
BITMAP
3180
3180
3180
3180
6180
6300
6320
77e0
ddc0
ENDCHAR
STARTCHAR 422
ENCODING 41832
SWIDTH 1024 0
DWIDTH 16 0
BBX 9 9 4 -1
BITMAP
c180
6180
7180
3180
3300
6600
6600
7c00
7000
ENDCHAR
STARTCHAR 423
ENCODING 41833
SWIDTH 1024 0
DWIDTH 16 0
BBX 8 15 4 -2
BITMAP
1c
30
7f
60
60
30
3f
60
c0
c0
70
3c
0e
63
3e
ENDCHAR
STARTCHAR 424
ENCODING 41834
SWIDTH 1024 0
DWIDTH 16 0
BBX 10 9 3 -1
BITMAP
1f00
3180
60c0
c0c0
c0c0
c0c0
c180
6300
3e00
ENDCHAR
STARTCHAR 425
ENCODING 41835
SWIDTH 1024 0
DWIDTH 16 0
BBX 10 10 3 -1
BITMAP
00c0
7fc0
ff80
3300
3300
3300
3300
7340
e3c0
c380
ENDCHAR
STARTCHAR 426
ENCODING 41836
SWIDTH 1024 0
DWIDTH 16 0
BBX 10 10 3 -2
BITMAP
0f00
3980
30c0
60c0
60c0
e0c0
e180
ff00
c000
c000
ENDCHAR
STARTCHAR 427
ENCODING 41837
SWIDTH 1024 0
DWIDTH 16 0
BBX 11 10 3 -1
BITMAP
0020
1e60
33c0
6180
c180
c180
c180
c300
6600
3c00
ENDCHAR
STARTCHAR 428
ENCODING 41838
SWIDTH 1024 0
DWIDTH 16 0
BBX 9 10 3 -1
BITMAP
0180
3f00
fe00
1800
1800
3000
3000
7200
7e00
3800
ENDCHAR
STARTCHAR 429
ENCODING 41839
SWIDTH 1024 0
DWIDTH 16 0
BBX 8 9 4 -1
BITMAP
c7
63
63
63
63
63
63
66
3c
ENDCHAR
STARTCHAR 430
ENCODING 41840
SWIDTH 1024 0
DWIDTH 16 0
BBX 11 15 2 -2
BITMAP
0180
0180
0180
0f80
1fc0
3360
6360
6760
6660
36c0
3f80
0f00
0c00
1800
f000
ENDCHAR
STARTCHAR 431
ENCODING 41841
SWIDTH 1024 0
DWIDTH 16 0
BBX 12 10 2 0
BITMAP
3060
78e0
4d80
0700
0600
0e00
1b00
3310
e3b0
c1e0
ENDCHAR
STARTCHAR 432
ENCODING 41842
SWIDTH 1024 0
DWIDTH 16 0
BBX 10 15 3 -2
BITMAP
0300
0300
0300
0300
0700
3640
66c0
e6c0
ccc0
ccc0
edc0
6d80
3f00
1800
3800
ENDCHAR
STARTCHAR 433
ENCODING 41843
SWIDTH 1024 0
DWIDTH 16 0
BBX 11 9 3 -1
BITMAP
38c0
6060
c060
c660
c660
cc60
cc60
eec0
3b80
ENDCHAR
STARTCHAR 434
ENCODING 41844
SWIDTH 1024 0
DWIDTH 16 0
BBX 12 14 2 -1
BITMAP
1800
1800
3000
6000
ffe0
7ff0
0030
0030
0030
0060
00c0
1980
0f00
0600
ENDCHAR
STARTCHAR 435
ENCODING 41845
SWIDTH 1024 0
DWIDTH 16 0
BBX 13 14 1 -1
BITMAP
0c00
0c00
1800
3060
7ff0
0060
30c0
1980
0f00
0600
0f00
1dc0
30f0
e078
ENDCHAR
STARTCHAR 436
ENCODING 41846
SWIDTH 1024 0
DWIDTH 16 0
BBX 12 11 2 0
BITMAP
0060
fff0
c030
c030
c030
c030
c030
c030
c030
c030
c030
ENDCHAR
STARTCHAR 437
ENCODING 41847
SWIDTH 1024 0
DWIDTH 16 0
BBX 13 11 1 0
BITMAP
4000
fff8
c000
c000
c000
c000
c000
c000
c000
c000
fff8
ENDCHAR
STARTCHAR 438
ENCODING 41848
SWIDTH 1024 0
DWIDTH 16 0
BBX 15 14 0 -1
BITMAP
0e00
1c08
31fc
3ffe
0186
0186
030c
070c
0e18
1c18
3830
f0f0
6060
0060
ENDCHAR
STARTCHAR 439
ENCODING 41849
SWIDTH 1024 0
DWIDTH 16 0
BBX 14 14 1 -1
BITMAP
0300
0380
0380
4308
fffc
4300
0300
0300
0600
0c00
1860
3ff0
3ff8
1818
ENDCHAR
STARTCHAR 440
ENCODING 41850
SWIDTH 1024 0
DWIDTH 16 0
BBX 9 14 4 -1
BITMAP
1800
fc00
c600
0c00
1800
3f00
1180
0180
0300
0300
0200
6600
3c00
1800
ENDCHAR
STARTCHAR 441
ENCODING 41851
SWIDTH 1024 0
DWIDTH 16 0
BBX 15 15 0 -2
BITMAP
0c00
0e60
1c60
30c8
3ffc
1ffe
0306
0306
060c
0c0c
1c18
3830
f070
61e0
00c0
ENDCHAR
STARTCHAR 442
ENCODING 41852
SWIDTH 1024 0
DWIDTH 16 0
BBX 12 12 2 0
BITMAP
0c60
0c60
18c0
3180
6300
c600
c600
6300
3180
18c0
0c60
0e70
ENDCHAR
STARTCHAR 443
ENCODING 41853
SWIDTH 1024 0
DWIDTH 16 0
BBX 13 14 1 -1
BITMAP
0030
fff8
7e00
0600
0c00
1fe0
1ff0
0030
0030
0060
0060
18c0
0f80
0700
ENDCHAR
STARTCHAR 444
ENCODING 41854
SWIDTH 1024 0
DWIDTH 16 0
BBX 14 14 1 -1
BITMAP
0008
1ffc
3800
1800
1800
1800
1800
1800
1800
1800
1800
3800
7000
e000
ENDCHAR
STARTCHAR 479
ENCODING 41889
SWIDTH 1024 0
DWIDTH 16 0
BBX 10 15 2 -2
BITMAP
00c0
60c0
e0c0
60c0
60c0
61c0
67c0
7ec0
78c0
20c0
00c0
00c0
00c0
01c0
0080
ENDCHAR
STARTCHAR 480
ENCODING 41890
SWIDTH 1024 0
DWIDTH 16 0
BBX 9 14 3 -1
BITMAP
0380
0380
0700
0e00
1c00
3800
7000
e000
7000
3800
1c00
0e00
0700
0380
ENDCHAR
STARTCHAR 481
ENCODING 41891
SWIDTH 1024 0
DWIDTH 16 0
BBX 12 13 2 -1
BITMAP
fff0
fff0
0600
0600
0600
0600
0600
0600
0600
0600
0600
0600
0600
ENDCHAR
STARTCHAR 482
ENCODING 41892
SWIDTH 1024 0
DWIDTH 16 0
BBX 13 12 2 0
BITMAP
0300
c318
6318
6318
6318
6318
7ff8
0300
0300
0300
0310
7ff8
ENDCHAR
STARTCHAR 483
ENCODING 41893
SWIDTH 1024 0
DWIDTH 16 0
BBX 11 15 3 -2
BITMAP
0700
0cc0
19e0
3380
e700
0e00
1e00
7600
6600
0600
0600
0600
0600
0e00
0400
ENDCHAR
STARTCHAR 484
ENCODING 41894
SWIDTH 1024 0
DWIDTH 16 0
BBX 13 14 1 -1
BITMAP
0810
1ff8
0038
0030
07f0
0fe0
0c00
1800
1800
3000
3000
7000
e000
c000
ENDCHAR
STARTCHAR 485
ENCODING 41895
SWIDTH 1024 0
DWIDTH 16 0
BBX 11 13 3 0
BITMAP
0040
ffe0
8060
8060
9860
9c60
8e60
8660
8060
8060
8060
ffe0
00c0
ENDCHAR
STARTCHAR 486
ENCODING 41896
SWIDTH 1024 0
DWIDTH 16 0
BBX 12 14 2 -1
BITMAP
ffe0
3070
3060
3060
3460
36e0
33c0
3180
3000
3000
3000
3000
7000
2000
ENDCHAR
STARTCHAR 487
ENCODING 41897
SWIDTH 1024 0
DWIDTH 16 0
BBX 12 14 2 -1
BITMAP
0700
0700
47f0
fff0
fe00
0c00
19c0
1fe0
1c60
00e0
01c0
0380
0f00
0e00
ENDCHAR
STARTCHAR 488
ENCODING 41898
SWIDTH 1024 0
DWIDTH 16 0
BBX 15 13 0 -1
BITMAP
0300
0380
0300
0300
0600
0600
0c20
0c30
1c18
39fc
fffe
7e0e
6004
ENDCHAR
STARTCHAR 489
ENCODING 41899
SWIDTH 1024 0
DWIDTH 16 0
BBX 12 14 2 -2
BITMAP
e070
6060
30c0
1980
0f00
0600
0600
0600
0600
0600
0600
0600
0e00
0400
ENDCHAR
STARTCHAR 490
ENCODING 41900
SWIDTH 1024 0
DWIDTH 16 0
BBX 12 13 2 -1
BITMAP
fff0
7ff0
0600
0600
0600
1e00
7c00
e000
c000
c060
e0e0
7fc0
1f00
ENDCHAR
STARTCHAR 491
ENCODING 41901
SWIDTH 1024 0
DWIDTH 16 0
BBX 12 15 2 -2
BITMAP
0e00
0600
0600
7ff0
fff0
0600
0600
1e00
7c00
e000
c030
c030
6060
3fc0
0f00
ENDCHAR
STARTCHAR 492
ENCODING 41902
SWIDTH 1024 0
DWIDTH 16 0
BBX 14 13 0 0
BITMAP
1860
38e0
1860
1860
fffc
1860
1860
1860
1860
18e0
1840
1830
0fe0
ENDCHAR
STARTCHAR 493
ENCODING 41903
SWIDTH 1024 0
DWIDTH 16 0
BBX 13 14 1 -1
BITMAP
0010
3ff8
18c0
30c0
6180
7ff0
2718
0e18
1c18
3830
7070
e1e0
c1c0
0080
ENDCHAR
STARTCHAR 494
ENCODING 41904
SWIDTH 1024 0
DWIDTH 16 0
BBX 14 13 1 -1
BITMAP
0c00
1e00
3e00
fb00
e300
0180
0180
00c0
00c0
0060
0070
003c
0018
ENDCHAR
STARTCHAR 495
ENCODING 41905
SWIDTH 1024 0
DWIDTH 16 0
BBX 13 13 2 0
BITMAP
0c00
0e20
1c70
f860
70c0
7180
3b00
1e00
1c40
3860
73f0
fff8
7030
ENDCHAR
STARTCHAR 496
ENCODING 41906
SWIDTH 1024 0
DWIDTH 16 0
BBX 14 13 1 -1
BITMAP
0030
3ff8
0030
1860
0cc0
0780
0300
0780
0cc0
1860
3030
e01c
c00c
ENDCHAR
STARTCHAR 497
ENCODING 41907
SWIDTH 1024 0
DWIDTH 16 0
BBX 12 13 2 -1
BITMAP
ffc0
1860
1860
30c0
6180
7fe0
0030
0030
0060
00c0
0180
0700
0600
ENDCHAR
STARTCHAR 498
ENCODING 41908
SWIDTH 1024 0
DWIDTH 16 0
BBX 13 12 1 0
BITMAP
1800
3800
6000
c030
fff8
0030
0030
0060
0060
00c0
01c0
0180
ENDCHAR
STARTCHAR 499
ENCODING 41909
SWIDTH 1024 0
DWIDTH 16 0
BBX 14 14 1 -1
BITMAP
0300
0700
0300
0300
7ff0
0300
0200
0600
0500
0d80
1980
3180
e188
c0fc
ENDCHAR
STARTCHAR 500
ENCODING 41910
SWIDTH 1024 0
DWIDTH 16 0
BBX 11 9 2 1
BITMAP
0200
0300
0600
0c00
1800
3000
6000
c040
ffe0
ENDCHAR
STARTCHAR 501
ENCODING 41911
SWIDTH 1024 0
DWIDTH 16 0
BBX 14 12 1 0
BITMAP
0100
1380
1180
1180
1180
1180
1180
1180
1180
3180
6180
c0fc
ENDCHAR
STARTCHAR 502
ENCODING 41912
SWIDTH 1024 0
DWIDTH 16 0
BBX 12 2 2 5
BITMAP
fff0
fff0
ENDCHAR
STARTCHAR 503
ENCODING 41913
SWIDTH 1024 0
DWIDTH 16 0
BBX 13 12 1 0
BITMAP
2010
7038
3060
18c0
0d80
0700
0700
0d80
18c0
3060
e038
c018
ENDCHAR
STARTCHAR 504
ENCODING 41914
SWIDTH 1024 0
DWIDTH 16 0
BBX 12 12 2 -1
BITMAP
c030
c030
c030
c030
c030
c030
c030
c030
c030
c030
fff0
0020
ENDCHAR
STARTCHAR 505
ENCODING 41915
SWIDTH 1024 0
DWIDTH 16 0
BBX 3 3 7 5
BITMAP
c0
e0
c0
ENDCHAR
STARTCHAR 506
ENCODING 41916
SWIDTH 1024 0
DWIDTH 16 0
BBX 0 0 0 0
BITMAP
ENDCHAR
STARTCHAR 507
ENCODING 41917
SWIDTH 1024 0
DWIDTH 16 0
BBX 7 7 5 2
BITMAP
02
0c
38
70
e0
c0
80
ENDCHAR
STARTCHAR 508
ENCODING 41918
SWIDTH 1024 0
DWIDTH 16 0
BBX 9 8 5 2
BITMAP
0180
0300
c600
cc00
d800
f000
e000
c000
ENDCHAR
STARTCHAR 509
ENCODING 41919
SWIDTH 1024 0
DWIDTH 16 0
BBX 7 7 5 2
BITMAP
e0
f0
78
18
0c
04
02
ENDCHAR
STARTCHAR 573
ENCODING 42048
SWIDTH 1024 0
DWIDTH 16 0
BBX 15 2 0 5
BITMAP
0004
fffe
ENDCHAR
STARTCHAR 574
ENCODING 42049
SWIDTH 1024 0
DWIDTH 16 0
BBX 13 13 1 -1
BITMAP
ffe0
0040
0080
0100
0200
0400
0800
1000
2000
4000
8008
8008
7ff8
ENDCHAR
STARTCHAR 575
ENCODING 42050
SWIDTH 1024 0
DWIDTH 16 0
BBX 15 14 0 -1
BITMAP
0004
fffe
0100
0100
0100
0100
0100
0100
0100
0100
0100
0100
0500
0200
ENDCHAR
STARTCHAR 576
ENCODING 42051
SWIDTH 1024 0
DWIDTH 16 0
BBX 15 14 0 -1
BITMAP
0400
0400
0400
0400
0404
fffe
0400
0400
0400
0400
0400
0400
0400
03fc
ENDCHAR
STARTCHAR 577
ENCODING 42052
SWIDTH 1024 0
DWIDTH 16 0
BBX 15 14 0 -1
BITMAP
0020
7ff0
0820
0840
0884
08fe
0804
0804
1004
1004
2004
4088
8050
0020
ENDCHAR
STARTCHAR 578
ENCODING 42053
SWIDTH 1024 0
DWIDTH 16 0
BBX 15 14 0 -1
BITMAP
0800
0800
0840
ffe0
0840
0840
0840
0840
0840
0840
1040
1042
2042
c03e
ENDCHAR
STARTCHAR 579
ENCODING 42054
SWIDTH 1024 0
DWIDTH 16 0
BBX 15 14 0 -1
BITMAP
0004
fffe
0010
0020
0040
0180
0080
0080
0080
0080
0080
0480
0280
0100
ENDCHAR
STARTCHAR 580
ENCODING 42055
SWIDTH 1024 0
DWIDTH 16 0
BBX 15 11 0 0
BITMAP
0010
3ff8
0000
0000
0000
0000
0000
0000
0000
0004
fffe
ENDCHAR
STARTCHAR 581
ENCODING 42056
SWIDTH 1024 0
DWIDTH 16 0
BBX 14 14 1 -1
BITMAP
0200
0200
0200
0200
0200
0200
0500
0500
0880
0880
1040
2020
401c
8008
ENDCHAR
STARTCHAR 582
ENCODING 42057
SWIDTH 1024 0
DWIDTH 16 0
BBX 15 14 0 -1
BITMAP
1040
1040
1040
1040
1040
1040
1040
1040
1040
1040
1042
2042
4042
807e
ENDCHAR
STARTCHAR 583
ENCODING 42058
SWIDTH 1024 0
DWIDTH 16 0
BBX 15 14 0 -1
BITMAP
0400
0200
0100
0100
0280
0280
0440
0440
0820
0820
1010
2010
400e
8004
ENDCHAR
STARTCHAR 584
ENCODING 42059
SWIDTH 1024 0
DWIDTH 16 0
BBX 14 14 1 -1
BITMAP
0080
08c0
0880
0880
0880
0880
0880
1040
1040
1040
2020
2010
401c
8008
ENDCHAR
STARTCHAR 585
ENCODING 42060
SWIDTH 1024 0
DWIDTH 16 0
BBX 15 14 0 -1
BITMAP
0820
0ff0
0820
0820
0820
0820
0820
0820
0820
0820
0822
1022
2022
c01e
ENDCHAR
STARTCHAR 586
ENCODING 42061
SWIDTH 1024 0
DWIDTH 16 0
BBX 15 14 0 -1
BITMAP
0004
fffe
0204
0204
0204
0204
0204
0204
0404
0804
0804
1044
2028
4010
ENDCHAR
STARTCHAR 587
ENCODING 42062
SWIDTH 1024 0
DWIDTH 16 0
BBX 15 14 0 -1
BITMAP
0004
fffe
0004
0004
0044
0084
0104
0204
0404
0804
3004
e044
0028
0010
ENDCHAR
STARTCHAR 588
ENCODING 42063
SWIDTH 1024 0
DWIDTH 16 0
BBX 15 14 0 -1
BITMAP
0200
0200
0204
fffe
0204
0204
0204
0204
0404
0404
0804
1044
2028
c010
ENDCHAR
STARTCHAR 589
ENCODING 42064
SWIDTH 1024 0
DWIDTH 16 0
BBX 14 14 1 -1
BITMAP
8000
8000
8040
8040
81c0
8300
8400
9800
e000
8000
8004
8004
8004
7ffc
ENDCHAR
STARTCHAR 590
ENCODING 42065
SWIDTH 1024 0
DWIDTH 16 0
BBX 15 14 0 -1
BITMAP
0100
0100
0100
0100
0104
fffe
0100
0100
0100
0100
0100
0100
0100
0100
ENDCHAR
STARTCHAR 591
ENCODING 42066
SWIDTH 1024 0
DWIDTH 16 0
BBX 6 14 6 -1
BITMAP
80
80
80
80
a0
98
8c
84
80
80
80
80
80
80
ENDCHAR
STARTCHAR 592
ENCODING 42067
SWIDTH 1024 0
DWIDTH 16 0
BBX 15 14 0 -1
BITMAP
0010
7ff8
1010
1020
0820
0840
0440
0280
0100
0280
0440
0830
300e
c004
ENDCHAR
STARTCHAR 593
ENCODING 42068
SWIDTH 1024 0
DWIDTH 16 0
BBX 15 12 0 0
BITMAP
0008
7ffc
0000
0000
0000
0010
3ff8
0000
0000
0000
0004
fffe
ENDCHAR
STARTCHAR 594
ENCODING 42069
SWIDTH 1024 0
DWIDTH 16 0
BBX 15 14 0 -1
BITMAP
0004
fffe
0200
0200
0280
0240
0230
0210
0200
0200
0200
0200
0200
0200
ENDCHAR
STARTCHAR 595
ENCODING 42070
SWIDTH 1024 0
DWIDTH 16 0
BBX 15 14 0 -1
BITMAP
0040
0040
0044
fffe
0040
0840
0840
0440
0280
0100
0280
0460
181e
e004
ENDCHAR
STARTCHAR 596
ENCODING 42071
SWIDTH 1024 0
DWIDTH 16 0
BBX 15 14 0 -1
BITMAP
0100
0100
0100
0100
0110
01f8
0100
0100
0100
0100
0100
0100
0104
fffe
ENDCHAR
STARTCHAR 597
ENCODING 42072
SWIDTH 1024 0
DWIDTH 16 0
BBX 10 14 2 -1
BITMAP
8040
40c0
3100
1200
0400
0400
0400
0400
0400
0400
0400
0400
0400
0400
ENDCHAR
STARTCHAR 598
ENCODING 42073
SWIDTH 1024 0
DWIDTH 16 0
BBX 15 14 0 -1
BITMAP
0200
0200
0220
7ff0
0220
0220
0220
0520
05a0
04a2
0822
0822
301e
c000
ENDCHAR
STARTCHAR 599
ENCODING 42074
SWIDTH 1024 0
DWIDTH 16 0
BBX 14 14 1 -1
BITMAP
0040
1fe0
1040
1040
1440
1240
1340
1140
1040
1044
2044
2044
403c
8000
ENDCHAR
STARTCHAR 600
ENCODING 42075
SWIDTH 1024 0
DWIDTH 16 0
BBX 15 14 0 -1
BITMAP
0400
0420
07f0
0820
1020
2040
0040
0080
0140
0220
0420
0810
300e
c004
ENDCHAR
STARTCHAR 601
ENCODING 42076
SWIDTH 1024 0
DWIDTH 16 0
BBX 15 14 0 -1
BITMAP
0100
0200
0400
0800
1020
2040
c080
0100
0200
0400
0810
1008
fffc
0002
ENDCHAR
STARTCHAR 602
ENCODING 42077
SWIDTH 1024 0
DWIDTH 16 0
BBX 15 14 0 -1
BITMAP
0100
0108
111c
11e8
1708
3908
d110
1120
1100
1100
1102
1002
1002
0ffe
ENDCHAR
STARTCHAR 603
ENCODING 42078
SWIDTH 1024 0
DWIDTH 16 0
BBX 15 14 0 -1
BITMAP
0800
1008
1ffc
2000
4020
9ff0
0040
0080
0100
0200
0402
0802
1002
0ffe
ENDCHAR
STARTCHAR 604
ENCODING 42079
SWIDTH 1024 0
DWIDTH 16 0
BBX 15 14 0 -1
BITMAP
0010
3ff8
0100
0100
0104
fffe
0100
0100
0100
0100
0100
0100
0500
0200
ENDCHAR
STARTCHAR 605
ENCODING 42080
SWIDTH 1024 0
DWIDTH 16 0
BBX 15 14 0 -1
BITMAP
0200
0100
0100
0004
fffe
1000
1000
1000
1000
1000
1000
1000
1008
0ffc
ENDCHAR
STARTCHAR 606
ENCODING 42081
SWIDTH 1024 0
DWIDTH 16 0
BBX 15 14 0 -1
BITMAP
0004
fffe
0440
0440
0440
0440
0440
0440
0440
0840
0842
1042
203e
c000
ENDCHAR
STARTCHAR 607
ENCODING 42082
SWIDTH 1024 0
DWIDTH 16 0
BBX 14 14 1 -1
BITMAP
0008
fffc
0208
0208
4208
3208
1a08
0608
0408
0408
0808
1088
2050
c020
ENDCHAR
STARTCHAR 608
ENCODING 42083
SWIDTH 1024 0
DWIDTH 16 0
BBX 15 14 0 -1
BITMAP
1000
1004
3ffe
2004
4004
8004
0404
0204
0304
0104
0004
0044
0028
0010
ENDCHAR
STARTCHAR 609
ENCODING 42084
SWIDTH 1024 0
DWIDTH 16 0
BBX 15 14 0 -1
BITMAP
0020
00f0
3f00
0100
0100
0104
fffe
0100
0100
0100
0100
0100
0100
0100
ENDCHAR
STARTCHAR 610
ENCODING 42085
SWIDTH 1024 0
DWIDTH 16 0
BBX 15 14 0 -1
BITMAP
0008
3ffc
0008
1208
1110
0910
0420
02c0
0100
0280
0440
0830
300e
c004
ENDCHAR
STARTCHAR 611
ENCODING 42086
SWIDTH 1024 0
DWIDTH 16 0
BBX 11 11 2 0
BITMAP
0040
ffe0
8040
8040
8040
8040
8040
8040
8040
ffc0
8040
ENDCHAR
STARTCHAR 612
ENCODING 42087
SWIDTH 1024 0
DWIDTH 16 0
BBX 15 14 0 -1
BITMAP
0100
0100
0100
0100
0108
7ffc
0100
0100
0100
0100
0100
0100
0104
fffe
ENDCHAR
STARTCHAR 613
ENCODING 42088
SWIDTH 1024 0
DWIDTH 16 0
BBX 15 14 0 -1
BITMAP
0100
0100
0100
0100
0104
fffe
0100
0100
0100
0100
0100
0100
0110
3ff8
ENDCHAR
STARTCHAR 614
ENCODING 42089
SWIDTH 1024 0
DWIDTH 16 0
BBX 13 14 1 -1
BITMAP
0400
0410
0ff8
0810
1010
2020
4820
8640
0280
0300
0400
0800
3000
c000
ENDCHAR
STARTCHAR 615
ENCODING 42090
SWIDTH 1024 0
DWIDTH 16 0
BBX 15 14 0 -1
BITMAP
0100
0100
0100
0104
fffe
0100
0100
0280
0240
0440
0420
0810
100e
6004
ENDCHAR
STARTCHAR 616
ENCODING 42091
SWIDTH 1024 0
DWIDTH 16 0
BBX 15 14 0 -1
BITMAP
0100
0100
0200
0204
fffe
0420
0820
1020
0c40
0280
0180
0660
1818
6008
ENDCHAR
STARTCHAR 617
ENCODING 42092
SWIDTH 1024 0
DWIDTH 16 0
BBX 15 14 0 -1
BITMAP
0010
3ff8
0020
0040
0180
0104
fffe
0100
0100
0100
0100
0100
0500
0200
ENDCHAR
STARTCHAR 618
ENCODING 42093
SWIDTH 1024 0
DWIDTH 16 0
BBX 12 14 1 -1
BITMAP
7fe0
0040
0080
0300
0210
0260
0380
0e00
3200
c200
8200
0200
0a00
0400
ENDCHAR
STARTCHAR 619
ENCODING 42094
SWIDTH 1024 0
DWIDTH 16 0
BBX 12 14 2 -1
BITMAP
ffc0
0080
0100
4600
2400
1400
0c00
0400
0600
0500
04c0
0430
1400
0800
ENDCHAR
STARTCHAR 620
ENCODING 42095
SWIDTH 1024 0
DWIDTH 16 0
BBX 15 14 0 -1
BITMAP
0040
0040
0040
0044
fffe
0040
0840
0440
0440
0040
0040
0040
0140
0080
ENDCHAR
STARTCHAR 621
ENCODING 42096
SWIDTH 1024 0
DWIDTH 16 0
BBX 15 14 0 -1
BITMAP
0100
0100
0100
0100
0100
0920
1910
2108
4104
8102
0100
0100
0500
0200
ENDCHAR
STARTCHAR 622
ENCODING 42097
SWIDTH 1024 0
DWIDTH 16 0
BBX 15 14 0 -1
BITMAP
0200
0200
0200
fffe
0280
0280
0280
0480
0480
0480
0882
1082
2082
c07e
ENDCHAR
STARTCHAR 623
ENCODING 42098
SWIDTH 1024 0
DWIDTH 16 0
BBX 14 14 0 -1
BITMAP
0008
3ffc
2008
2008
2008
3ff8
2008
2000
2000
2000
2000
4000
4000
8000
ENDCHAR
STARTCHAR 624
ENCODING 42099
SWIDTH 1024 0
DWIDTH 16 0
BBX 13 14 1 -1
BITMAP
0200
0200
0200
0200
0200
8208
8208
8208
8208
8208
8208
8208
fff8
8008
ENDCHAR
STARTCHAR 625
ENCODING 42100
SWIDTH 1024 0
DWIDTH 16 0
BBX 13 14 1 -1
BITMAP
0008
2008
2108
2108
2108
2108
2108
2108
2108
2108
2108
4008
8008
0008
ENDCHAR
STARTCHAR 626
ENCODING 42101
SWIDTH 1024 0
DWIDTH 16 0
BBX 15 13 0 -1
BITMAP
0008
7ffc
0100
0100
0100
0100
0100
0100
0100
0100
0100
0104
fffe
ENDCHAR
STARTCHAR 627
ENCODING 42102
SWIDTH 1024 0
DWIDTH 16 0
BBX 15 14 0 -1
BITMAP
0008
fffc
0008
0008
0008
0008
7ff8
4008
4000
4000
4002
4002
4002
3ffe
ENDCHAR
STARTCHAR 628
ENCODING 42103
SWIDTH 1024 0
DWIDTH 16 0
BBX 15 14 0 -1
BITMAP
0008
fffc
0008
0008
4008
4008
7ff8
4008
4000
4000
4002
4002
4002
3ffe
ENDCHAR
STARTCHAR 629
ENCODING 42104
SWIDTH 1024 0
DWIDTH 16 0
BBX 15 14 0 -1
BITMAP
0010
fff8
4010
4010
4010
4010
7ff0
4010
4000
4000
4002
4002
4002
3ffe
ENDCHAR
STARTCHAR 630
ENCODING 42105
SWIDTH 1024 0
DWIDTH 16 0
BBX 12 14 2 -1
BITMAP
0400
0400
0420
fff0
8420
8420
8420
8420
8420
84a0
8440
0400
0400
0400
ENDCHAR
STARTCHAR 631
ENCODING 42106
SWIDTH 1024 0
DWIDTH 16 0
BBX 15 14 0 -1
BITMAP
0010
3ff8
0100
0100
0100
0104
fffe
0100
0100
0100
0100
0100
0100
0100
ENDCHAR
STARTCHAR 632
ENCODING 42107
SWIDTH 1024 0
DWIDTH 16 0
BBX 15 14 0 -1
BITMAP
0820
0820
0820
0820
0824
fffe
0820
0820
0820
0820
1020
2020
4020
8020
ENDCHAR
STARTCHAR 633
ENCODING 42108
SWIDTH 1024 0
DWIDTH 16 0
BBX 15 14 0 -1
BITMAP
0200
0240
0220
03fe
fe00
0200
0100
0100
0080
0080
0044
0024
001c
0008
ENDCHAR
STARTCHAR 634
ENCODING 42109
SWIDTH 1024 0
DWIDTH 16 0
BBX 14 14 0 -1
BITMAP
0010
7ff8
0010
0010
7ff0
4000
8008
fffc
0008
0008
0008
0010
0660
0180
ENDCHAR
STARTCHAR 635
ENCODING 42110
SWIDTH 1024 0
DWIDTH 16 0
BBX 15 14 0 -1
BITMAP
0080
0080
0084
fffe
0080
0180
0180
0280
0480
0880
1080
6080
0280
0100
ENDCHAR
STARTCHAR 670
ENCODING 42145
SWIDTH 1024 0
DWIDTH 16 0
BBX 15 14 0 -1
BITMAP
0020
3ff0
0420
0420
0420
0420
0424
fffe
0840
0840
0840
0840
0848
7ffc
ENDCHAR
STARTCHAR 671
ENCODING 42146
SWIDTH 1024 0
DWIDTH 16 0
BBX 15 14 0 -1
BITMAP
0004
fffe
0100
0110
21f8
2100
2104
3ffe
0004
0004
0004
0004
0098
0060
ENDCHAR
STARTCHAR 672
ENCODING 42147
SWIDTH 1024 0
DWIDTH 16 0
BBX 15 14 0 -1
BITMAP
0004
fffe
0080
0100
0100
0340
0520
0918
110c
2104
4100
0100
0100
0100
ENDCHAR
STARTCHAR 673
ENCODING 42148
SWIDTH 1024 0
DWIDTH 16 0
BBX 14 14 1 -1
BITMAP
0200
0200
0208
fffc
8208
8208
8208
fff8
8208
0200
0200
0200
0200
0200
ENDCHAR
STARTCHAR 674
ENCODING 42149
SWIDTH 1024 0
DWIDTH 16 0
BBX 15 14 0 -1
BITMAP
0100
0120
01f0
3f00
0100
0110
3ff8
0100
0104
fffe
0100
0100
0100
0100
ENDCHAR
STARTCHAR 675
ENCODING 42150
SWIDTH 1024 0
DWIDTH 16 0
BBX 15 14 0 -1
BITMAP
0010
1ff8
1010
1210
1110
1110
1010
fffe
1010
1010
1010
1010
2050
4020
ENDCHAR
STARTCHAR 676
ENCODING 42151
SWIDTH 1024 0
DWIDTH 16 0
BBX 14 13 1 0
BITMAP
0400
0200
0020
fff0
0040
0080
0100
0200
0400
1800
6000
9000
0ffc
ENDCHAR
STARTCHAR 677
ENCODING 42152
SWIDTH 1024 0
DWIDTH 16 0
BBX 15 14 0 -1
BITMAP
0010
3ff8
0410
0410
fffe
0410
0410
3ff0
0410
0400
0800
1000
2000
4000
ENDCHAR
STARTCHAR 678
ENCODING 42153
SWIDTH 1024 0
DWIDTH 16 0
BBX 15 14 0 -1
BITMAP
0020
3ff0
0040
0280
0184
fffe
0104
0108
0100
0100
0100
0100
0500
0200
ENDCHAR
STARTCHAR 679
ENCODING 42154
SWIDTH 1024 0
DWIDTH 16 0
BBX 15 14 0 -1
BITMAP
0020
1ff0
0000
0000
0004
fffe
0200
0400
0420
0810
1008
7ffc
2002
0002
ENDCHAR
STARTCHAR 680
ENCODING 42155
SWIDTH 1024 0
DWIDTH 16 0
BBX 15 14 0 -1
BITMAP
0820
0820
0820
7ffc
0820
0820
0824
fffe
0820
0820
1020
1020
2020
4020
ENDCHAR
STARTCHAR 681
ENCODING 42156
SWIDTH 1024 0
DWIDTH 16 0
BBX 15 14 0 -1
BITMAP
0008
7ffc
0800
0800
0820
0ff0
0820
0820
1020
3fe0
1040
0080
0084
fffe
ENDCHAR
STARTCHAR 682
ENCODING 42157
SWIDTH 1024 0
DWIDTH 16 0
BBX 15 14 0 -1
BITMAP
0008
7ffc
0200
0200
0200
0210
3ff8
0410
0410
0410
0810
0810
0810
fffe
ENDCHAR
STARTCHAR 683
ENCODING 42158
SWIDTH 1024 0
DWIDTH 16 0
BBX 15 14 0 -1
BITMAP
0200
0104
fffe
0000
0020
0ff0
0820
0820
0820
0820
1022
1022
2022
401e
ENDCHAR
STARTCHAR 684
ENCODING 42159
SWIDTH 1024 0
DWIDTH 16 0
BBX 15 14 0 -1
BITMAP
0800
0808
17fc
1000
3000
5000
9000
1000
1000
1004
1ffe
1000
1000
1000
ENDCHAR
STARTCHAR 685
ENCODING 42160
SWIDTH 1024 0
DWIDTH 16 0
BBX 15 14 0 -1
BITMAP
0840
0840
1040
1040
3044
5ffe
9040
1040
1040
1040
1040
1040
1040
1040
ENDCHAR
STARTCHAR 686
ENCODING 42161
SWIDTH 1024 0
DWIDTH 16 0
BBX 15 14 0 -1
BITMAP
0800
0804
0bfe
1020
1020
3020
5020
9020
1020
1020
1020
1120
10a0
1040
ENDCHAR
STARTCHAR 687
ENCODING 42162
SWIDTH 1024 0
DWIDTH 16 0
BBX 15 14 0 -1
BITMAP
0440
0440
0840
0840
1050
304c
5046
9042
1040
1040
1040
1040
1040
1040
ENDCHAR
STARTCHAR 688
ENCODING 42163
SWIDTH 1024 0
DWIDTH 16 0
BBX 15 14 0 -1
BITMAP
0900
0900
1110
17f8
3110
5110
9110
1110
1110
1210
1212
1412
180e
1000
ENDCHAR
STARTCHAR 689
ENCODING 42164
SWIDTH 1024 0
DWIDTH 16 0
BBX 15 14 0 -1
BITMAP
1000
1008
27fc
2108
6110
a124
213e
2104
2104
2204
2204
2444
2428
2810
ENDCHAR
STARTCHAR 690
ENCODING 42165
SWIDTH 1024 0
DWIDTH 16 0
BBX 15 14 0 -1
BITMAP
0100
0280
0440
0820
1010
2fee
c004
0000
1ff0
0010
0020
0040
0080
0100
ENDCHAR
STARTCHAR 691
ENCODING 42166
SWIDTH 1024 0
DWIDTH 16 0
BBX 15 14 0 -1
BITMAP
0100
0280
0440
0820
1010
244e
c444
0440
0440
0840
0840
0840
1040
2040
ENDCHAR
STARTCHAR 692
ENCODING 42167
SWIDTH 1024 0
DWIDTH 16 0
BBX 15 14 0 -1
BITMAP
0008
3ffc
2000
2080
2080
2080
2080
2140
2220
2220
4410
4808
900e
2004
ENDCHAR
STARTCHAR 693
ENCODING 42168
SWIDTH 1024 0
DWIDTH 16 0
BBX 15 14 0 -1
BITMAP
0010
3ff8
0000
0004
fffe
0440
0440
0440
0440
0840
0842
1042
2042
c03e
ENDCHAR
STARTCHAR 694
ENCODING 42169
SWIDTH 1024 0
DWIDTH 16 0
BBX 15 14 0 -1
BITMAP
0200
0440
0820
1010
7ff8
2488
0488
0480
0880
0880
1082
1082
2082
c07e
ENDCHAR
STARTCHAR 695
ENCODING 42170
SWIDTH 1024 0
DWIDTH 16 0
BBX 14 14 1 -1
BITMAP
0c00
0600
0208
fffc
8208
8208
8508
8888
9068
a028
8008
8008
8028
8010
ENDCHAR
STARTCHAR 696
ENCODING 42171
SWIDTH 1024 0
DWIDTH 16 0
BBX 15 14 0 -1
BITMAP
0400
0200
0300
0104
fffe
0000
0000
0440
0c20
0810
1018
100c
200c
4004
ENDCHAR
STARTCHAR 697
ENCODING 42172
SWIDTH 1024 0
DWIDTH 16 0
BBX 15 14 0 -1
BITMAP
0440
0820
0820
1010
2010
5fee
8404
0820
1ff0
0020
0020
0220
0140
0080
ENDCHAR
STARTCHAR 698
ENCODING 42173
SWIDTH 1024 0
DWIDTH 16 0
BBX 15 14 0 -1
BITMAP
00c0
0480
0440
0840
0820
1010
210e
c104
0200
0400
0840
1020
3ff0
1010
ENDCHAR
STARTCHAR 699
ENCODING 42174
SWIDTH 1024 0
DWIDTH 16 0
BBX 15 14 0 -1
BITMAP
0004
7ffe
4004
8008
0040
07e0
0440
0440
0440
0440
0840
0842
3042
c03e
ENDCHAR
STARTCHAR 700
ENCODING 42175
SWIDTH 1024 0
DWIDTH 16 0
BBX 15 14 0 -1
BITMAP
8002
9012
8822
8442
8282
8102
8282
8442
8822
901a
a00a
8002
fffe
8002
ENDCHAR
STARTCHAR 701
ENCODING 42176
SWIDTH 1024 0
DWIDTH 16 0
BBX 15 14 0 -1
BITMAP
0080
0480
0440
0820
1010
2008
5fee
8424
0420
0420
0820
0820
1140
2080
ENDCHAR
STARTCHAR 702
ENCODING 42177
SWIDTH 1024 0
DWIDTH 16 0
BBX 15 14 0 -1
BITMAP
2000
2004
21fe
2044
3e44
e044
2044
2044
2044
2444
2884
3104
0228
0c10
ENDCHAR
STARTCHAR 703
ENCODING 42178
SWIDTH 1024 0
DWIDTH 16 0
BBX 14 14 0 -1
BITMAP
0004
4104
2104
1124
1224
0a24
0424
0a24
0924
1104
1084
2084
c014
0008
ENDCHAR
STARTCHAR 704
ENCODING 42179
SWIDTH 1024 0
DWIDTH 16 0
BBX 15 14 0 -1
BITMAP
0800
0804
0ffe
1004
2004
cfe4
0004
0004
0fe4
0004
0004
0044
0028
0010
ENDCHAR
STARTCHAR 705
ENCODING 42180
SWIDTH 1024 0
DWIDTH 16 0
BBX 15 14 0 -1
BITMAP
0800
0804
0ffe
1004
2204
4404
8404
0884
1044
3fc4
1044
0004
0028
0010
ENDCHAR
STARTCHAR 706
ENCODING 42181
SWIDTH 1024 0
DWIDTH 16 0
BBX 15 14 0 -1
BITMAP
1000
1000
1004
1ffe
2444
4444
8444
0844
0884
1084
2104
4204
0428
0810
ENDCHAR
STARTCHAR 707
ENCODING 42182
SWIDTH 1024 0
DWIDTH 16 0
BBX 15 14 0 -1
BITMAP
0880
0880
1080
1080
3084
50fe
9080
1080
1080
1080
1082
1082
107e
1000
ENDCHAR
STARTCHAR 708
ENCODING 42183
SWIDTH 1024 0
DWIDTH 16 0
BBX 15 13 0 0
BITMAP
0008
fffc
4440
4440
4440
4440
4440
4440
4440
483c
5000
4004
3ffe
ENDCHAR
STARTCHAR 709
ENCODING 42184
SWIDTH 1024 0
DWIDTH 16 0
BBX 15 14 0 -1
BITMAP
0800
0810
0ff8
1100
2100
4100
0104
fffe
0100
0100
0100
0100
0100
0100
ENDCHAR
STARTCHAR 710
ENCODING 42185
SWIDTH 1024 0
DWIDTH 16 0
BBX 15 14 0 -1
BITMAP
0120
07a0
7c20
0420
0420
0424
fffe
0420
0420
0820
0820
1020
2020
0020
ENDCHAR
STARTCHAR 711
ENCODING 42186
SWIDTH 1024 0
DWIDTH 16 0
BBX 15 14 0 -1
BITMAP
1110
1110
1110
1110
1110
1114
fffe
1110
1110
1110
1110
2110
2110
4010
ENDCHAR
STARTCHAR 712
ENCODING 42187
SWIDTH 1024 0
DWIDTH 16 0
BBX 15 14 0 -1
BITMAP
0200
0100
0004
fffe
0100
0100
0140
0120
0110
0110
0100
0100
0100
0100
ENDCHAR
STARTCHAR 713
ENCODING 42188
SWIDTH 1024 0
DWIDTH 16 0
BBX 15 14 0 -1
BITMAP
0004
3ffe
2000
2010
27f8
2410
2410
2410
2490
2460
2402
2402
4402
83fe
ENDCHAR
STARTCHAR 714
ENCODING 42189
SWIDTH 1024 0
DWIDTH 16 0
BBX 15 14 0 -1
BITMAP
0400
0404
fffe
0400
0ff0
0810
1420
1220
2140
4080
8140
0630
180e
6004
ENDCHAR
STARTCHAR 715
ENCODING 42190
SWIDTH 1024 0
DWIDTH 16 0
BBX 15 14 0 -1
BITMAP
0020
7ff0
0820
0840
0840
0ff8
1408
1210
1110
20a0
20c0
4130
860e
1804
ENDCHAR
STARTCHAR 716
ENCODING 42191
SWIDTH 1024 0
DWIDTH 16 0
BBX 15 14 0 -1
BITMAP
0008
3ffc
2000
2000
3ff8
2408
2210
2220
2140
2080
4140
4230
840e
1804
ENDCHAR
STARTCHAR 717
ENCODING 42192
SWIDTH 1024 0
DWIDTH 16 0
BBX 15 13 0 -1
BITMAP
0010
3ff8
0100
0100
0100
0104
fffe
0100
0100
0100
0100
0110
3ff8
ENDCHAR
STARTCHAR 718
ENCODING 42193
SWIDTH 1024 0
DWIDTH 16 0
BBX 15 14 0 -1
BITMAP
0008
7ffc
0100
0100
0104
fffe
0100
0280
0440
0440
0820
1010
200e
c004
ENDCHAR
STARTCHAR 719
ENCODING 42194
SWIDTH 1024 0
DWIDTH 16 0
BBX 15 14 0 -1
BITMAP
0100
0108
7ffc
0100
0104
fffe
0100
0280
0280
0440
0440
0830
100e
6004
ENDCHAR
STARTCHAR 720
ENCODING 42195
SWIDTH 1024 0
DWIDTH 16 0
BBX 15 14 0 -1
BITMAP
0100
0100
0100
0104
fffe
0100
0100
0280
0280
0440
0640
0930
310e
c004
ENDCHAR
STARTCHAR 721
ENCODING 42196
SWIDTH 1024 0
DWIDTH 16 0
BBX 15 14 0 -1
BITMAP
0010
01f8
3f00
0100
0100
0104
fffe
0100
0280
0440
0420
0810
300e
c004
ENDCHAR
STARTCHAR 722
ENCODING 42197
SWIDTH 1024 0
DWIDTH 16 0
BBX 15 14 0 -1
BITMAP
0240
7f40
0240
0440
0840
0840
0b40
1c40
e840
0842
0842
0842
2842
103e
ENDCHAR
STARTCHAR 723
ENCODING 42198
SWIDTH 1024 0
DWIDTH 16 0
BBX 13 14 1 -1
BITMAP
0200
0200
1240
1220
2218
4200
8220
0220
0240
0080
0100
0200
0400
f800
ENDCHAR
STARTCHAR 724
ENCODING 42199
SWIDTH 1024 0
DWIDTH 16 0
BBX 15 14 0 -1
BITMAP
0100
0120
0110
0104
fffe
0280
0280
0480
0480
0880
0882
1082
2082
407e
ENDCHAR
STARTCHAR 725
ENCODING 42200
SWIDTH 1024 0
DWIDTH 16 0
BBX 15 14 0 -1
BITMAP
0010
1ff8
1010
1010
1ff0
1410
1400
1200
1100
1080
2040
2030
400e
8004
ENDCHAR
STARTCHAR 726
ENCODING 42201
SWIDTH 1024 0
DWIDTH 16 0
BBX 15 14 0 -1
BITMAP
0100
0100
0104
fffe
0100
2108
2108
2108
3ff8
2108
0100
0102
0102
00fe
ENDCHAR
STARTCHAR 727
ENCODING 42202
SWIDTH 1024 0
DWIDTH 16 0
BBX 14 14 1 -1
BITMAP
0010
fff8
8210
8210
8210
8210
fff0
8010
8000
8000
8000
8004
8004
7ffc
ENDCHAR
STARTCHAR 728
ENCODING 42203
SWIDTH 1024 0
DWIDTH 16 0
BBX 15 14 0 -1
BITMAP
0804
11fe
1004
2204
2204
4404
fc04
0804
1004
2404
4204
ff44
4128
0110
ENDCHAR
STARTCHAR 729
ENCODING 42204
SWIDTH 1024 0
DWIDTH 16 0
BBX 15 13 0 -1
BITMAP
0820
0820
0824
fffe
0820
0820
0820
0820
0820
0820
0820
0fe0
0820
ENDCHAR
STARTCHAR 730
ENCODING 42205
SWIDTH 1024 0
DWIDTH 16 0
BBX 13 14 1 -1
BITMAP
fff0
0420
0420
ffe0
8420
8408
fff8
8408
0408
0408
0490
0460
0400
0400
ENDCHAR
STARTCHAR 731
ENCODING 42206
SWIDTH 1024 0
DWIDTH 16 0
BBX 14 14 0 -1
BITMAP
0108
7f8c
0108
0108
3f08
2008
4008
ff08
0108
0108
0108
1108
0a08
0408
ENDCHAR
STARTCHAR 732
ENCODING 42207
SWIDTH 1024 0
DWIDTH 16 0
BBX 15 13 0 0
BITMAP
0100
0080
00c0
0880
0800
2808
2804
2802
4802
8802
0810
0810
07f0
ENDCHAR
STARTCHAR 733
ENCODING 42208
SWIDTH 1024 0
DWIDTH 16 0
BBX 15 14 0 -1
BITMAP
0480
0440
0404
04fe
ff00
0420
0430
0240
0280
0100
0280
0c44
7034
000c
ENDCHAR
STARTCHAR 734
ENCODING 42209
SWIDTH 1024 0
DWIDTH 16 0
BBX 15 14 0 -1
BITMAP
0030
01c0
3e04
3ffe
2004
2004
2004
3ffc
2004
2000
2000
4000
4000
8000
ENDCHAR
STARTCHAR 735
ENCODING 42210
SWIDTH 1024 0
DWIDTH 16 0
BBX 15 14 0 -1
BITMAP
0010
00f8
7f00
0100
0110
3ff8
0100
0104
fffe
0100
0100
0100
0900
0600
ENDCHAR
STARTCHAR 736
ENCODING 42211
SWIDTH 1024 0
DWIDTH 16 0
BBX 15 14 0 -1
BITMAP
0840
0840
0840
ff40
0840
0a40
0c40
3840
c840
0840
0842
0842
283e
1000
ENDCHAR
STARTCHAR 737
ENCODING 42212
SWIDTH 1024 0
DWIDTH 16 0
BBX 15 14 0 -1
BITMAP
0100
0104
fffe
0100
1ff0
0820
0820
0440
0280
0100
0280
0c60
301e
c004
ENDCHAR
STARTCHAR 738
ENCODING 42213
SWIDTH 1024 0
DWIDTH 16 0
BBX 15 14 0 -1
BITMAP
0200
0104
fffe
1010
0820
0420
0440
0280
0100
0280
0460
0810
300e
c004
ENDCHAR
STARTCHAR 739
ENCODING 42214
SWIDTH 1024 0
DWIDTH 16 0
BBX 15 14 0 -1
BITMAP
0840
0640
0240
1040
0c40
0440
0044
007e
ffc0
0040
0040
0040
0040
0040
ENDCHAR
STARTCHAR 740
ENCODING 42215
SWIDTH 1024 0
DWIDTH 16 0
BBX 14 14 1 -1
BITMAP
0020
0070
3f80
2000
2008
3ffc
2080
2080
2080
2080
4080
4080
8080
0080
ENDCHAR
STARTCHAR 741
ENCODING 42216
SWIDTH 1024 0
DWIDTH 16 0
BBX 15 14 0 -1
BITMAP
0400
0300
0104
fffe
0400
0410
07f8
0410
0410
0810
1010
2010
4120
80c0
ENDCHAR
STARTCHAR 742
ENCODING 42217
SWIDTH 1024 0
DWIDTH 16 0
BBX 11 14 2 -1
BITMAP
0040
ffe0
8040
8040
8040
8040
ffc0
8040
8040
8040
8040
8040
ffc0
8040
ENDCHAR
STARTCHAR 743
ENCODING 42218
SWIDTH 1024 0
DWIDTH 16 0
BBX 14 11 1 0
BITMAP
0008
fffc
8008
8008
8008
fff8
8008
8008
8008
fff8
8008
ENDCHAR
STARTCHAR 744
ENCODING 42219
SWIDTH 1024 0
DWIDTH 16 0
BBX 12 14 1 -1
BITMAP
0020
3ff0
2020
2020
3fe0
2020
2020
3fe0
2020
2020
2020
2020
40a0
8040
ENDCHAR
STARTCHAR 745
ENCODING 42220
SWIDTH 1024 0
DWIDTH 16 0
BBX 15 14 0 -1
BITMAP
0100
0100
0104
fffe
0100
0380
0340
0520
0910
1108
210e
c104
0100
0100
ENDCHAR
STARTCHAR 746
ENCODING 42221
SWIDTH 1024 0
DWIDTH 16 0
BBX 15 14 0 -1
BITMAP
0800
0808
1ffc
1008
2110
4120
8100
0280
0280
0440
0820
1010
200e
c004
ENDCHAR
STARTCHAR 747
ENCODING 42222
SWIDTH 1024 0
DWIDTH 16 0
BBX 15 14 0 -1
BITMAP
0100
0100
0100
1100
1100
1110
11f8
1100
1100
1100
1100
1100
1104
fffe
ENDCHAR
STARTCHAR 748
ENCODING 42223
SWIDTH 1024 0
DWIDTH 16 0
BBX 15 14 0 -1
BITMAP
0004
fffe
0200
0208
07fc
0c08
0a10
1190
20a0
4040
0080
0300
0c00
3000
ENDCHAR
STARTCHAR 749
ENCODING 42224
SWIDTH 1024 0
DWIDTH 16 0
BBX 15 14 0 -1
BITMAP
0010
1ff8
1110
1110
1110
1110
fffe
1110
2210
2210
3ffc
0810
1050
0020
ENDCHAR
STARTCHAR 750
ENCODING 42225
SWIDTH 1024 0
DWIDTH 16 0
BBX 14 14 1 -1
BITMAP
0100
8100
8100
8100
8100
8908
fdfc
8100
8100
8100
8104
8d04
b104
e0fc
ENDCHAR
STARTCHAR 751
ENCODING 42226
SWIDTH 1024 0
DWIDTH 16 0
BBX 15 14 0 -1
BITMAP
0040
01e0
3e00
0200
0220
3ff0
0200
0208
fffc
0200
0200
0202
0202
01fe
ENDCHAR
STARTCHAR 752
ENCODING 42227
SWIDTH 1024 0
DWIDTH 16 0
BBX 13 14 2 -1
BITMAP
0080
83c0
fc00
8400
8400
8420
fff0
8200
8100
8100
8888
9048
a028
c018
ENDCHAR
STARTCHAR 753
ENCODING 42228
SWIDTH 1024 0
DWIDTH 16 0
BBX 15 14 0 -1
BITMAP
0100
0100
0108
0118
7d20
05c0
0580
0960
1110
210e
4104
8100
0500
0200
ENDCHAR
STARTCHAR 754
ENCODING 42229
SWIDTH 1024 0
DWIDTH 16 0
BBX 14 14 1 -1
BITMAP
0200
0200
0200
8210
c230
6260
1280
0200
0500
0880
1040
2020
401c
8008
ENDCHAR
STARTCHAR 755
ENCODING 42230
SWIDTH 1024 0
DWIDTH 16 0
BBX 15 14 0 -1
BITMAP
0010
0078
1f80
1120
1120
1120
1120
1120
1110
2110
2108
410e
8104
0100
ENDCHAR
STARTCHAR 756
ENCODING 42231
SWIDTH 1024 0
DWIDTH 16 0
BBX 15 14 0 -1
BITMAP
0820
1010
200c
4024
0820
0440
0440
0280
0100
0280
0440
0830
300e
c004
ENDCHAR
STARTCHAR 757
ENCODING 42232
SWIDTH 1024 0
DWIDTH 16 0
BBX 15 14 0 -1
BITMAP
1030
0c40
0280
0100
02c0
0c30
7028
0840
0440
0280
0280
0c60
301e
c004
ENDCHAR
STARTCHAR 758
ENCODING 42233
SWIDTH 1024 0
DWIDTH 16 0
BBX 11 14 1 -1
BITMAP
2020
2020
2020
2020
3fe0
2000
2000
3fe0
2020
2020
2020
2020
4020
8020
ENDCHAR
STARTCHAR 759
ENCODING 42234
SWIDTH 1024 0
DWIDTH 16 0
BBX 15 14 0 -1
BITMAP
0008
3ffc
2040
2040
2044
3ffe
0140
0240
0440
0840
3040
c040
0140
0080
ENDCHAR
STARTCHAR 760
ENCODING 42235
SWIDTH 1024 0
DWIDTH 16 0
BBX 15 14 0 -1
BITMAP
0100
1100
1110
1ff8
2100
4100
0104
fffe
0100
0100
0100
0100
0100
0100
ENDCHAR
STARTCHAR 761
ENCODING 42236
SWIDTH 1024 0
DWIDTH 16 0
BBX 15 14 0 -1
BITMAP
0140
0130
0110
0104
fffe
0100
0100
0280
0280
0440
0420
0810
100e
6004
ENDCHAR
STARTCHAR 762
ENCODING 42237
SWIDTH 1024 0
DWIDTH 16 0
BBX 15 14 0 -1
BITMAP
0008
7ffc
0100
0100
0100
0100
0110
3ff8
0100
0100
0100
0100
0104
fffe
ENDCHAR
STARTCHAR 763
ENCODING 42238
SWIDTH 1024 0
DWIDTH 16 0
BBX 15 14 0 -1
BITMAP
0004
fffe
0100
0100
0104
7ffe
4104
4184
4244
4424
4824
4004
4014
4008
ENDCHAR
STARTCHAR 764
ENCODING 42304
SWIDTH 1024 0
DWIDTH 16 0
BBX 15 14 0 -1
BITMAP
0110
2110
2110
2110
fffe
2110
2110
2110
2110
21f0
2110
2000
2000
1ffc
ENDCHAR
STARTCHAR 765
ENCODING 42305
SWIDTH 1024 0
DWIDTH 16 0
BBX 15 14 0 -1
BITMAP
0008
7ffc
0080
0100
0300
0560
0910
1108
2104
4104
0100
0100
0104
fffe
ENDCHAR
STARTCHAR 766
ENCODING 42306
SWIDTH 1024 0
DWIDTH 16 0
BBX 15 13 0 -1
BITMAP
1fe0
1020
1020
1020
1fe0
1020
1020
1fe0
1020
1020
1020
1024
fffe
ENDCHAR
STARTCHAR 767
ENCODING 42307
SWIDTH 1024 0
DWIDTH 16 0
BBX 15 14 0 -1
BITMAP
0020
0070
0180
1e00
1000
1010
1ff8
1040
1040
1040
1040
1040
1044
fffe
ENDCHAR
STARTCHAR 768
ENCODING 42308
SWIDTH 1024 0
DWIDTH 16 0
BBX 15 14 0 -1
BITMAP
0200
0100
0108
7ffc
0100
0100
0100
0110
3ff8
0100
0100
0100
0104
fffe
ENDCHAR
STARTCHAR 769
ENCODING 42309
SWIDTH 1024 0
DWIDTH 16 0
BBX 15 14 0 -1
BITMAP
0800
0804
0ffe
1200
2210
43f8
8200
0200
0208
03fc
0200
0200
0200
0200
ENDCHAR
STARTCHAR 770
ENCODING 42310
SWIDTH 1024 0
DWIDTH 16 0
BBX 14 14 1 -1
BITMAP
0030
ffc0
0400
0300
0100
7ff0
0020
00c0
0300
0c00
1000
6000
9000
0ffc
ENDCHAR
STARTCHAR 771
ENCODING 42311
SWIDTH 1024 0
DWIDTH 16 0
BBX 15 14 0 -1
BITMAP
0018
3fe0
0100
1110
0d30
0540
0104
fffe
0100
0100
0100
0100
0500
0200
ENDCHAR
STARTCHAR 772
ENCODING 42312
SWIDTH 1024 0
DWIDTH 16 0
BBX 15 14 0 -1
BITMAP
0010
2010
2010
2010
2210
2110
2190
2090
2410
2820
3030
6048
c18c
8606
ENDCHAR
STARTCHAR 773
ENCODING 42313
SWIDTH 1024 0
DWIDTH 16 0
BBX 15 14 0 -1
BITMAP
0810
0810
1010
1010
37fe
5010
9010
1110
1090
1090
1010
1010
1050
1020
ENDCHAR
STARTCHAR 774
ENCODING 42314
SWIDTH 1024 0
DWIDTH 16 0
BBX 15 14 0 -1
BITMAP
0bfc
0808
1010
1020
3040
5044
9ffe
1020
1020
1020
1020
1020
1140
1080
ENDCHAR
STARTCHAR 775
ENCODING 42315
SWIDTH 1024 0
DWIDTH 16 0
BBX 15 14 0 -1
BITMAP
0840
0840
1040
1044
37fe
5040
9040
1040
1040
1040
1048
13fc
1000
1000
ENDCHAR
STARTCHAR 776
ENCODING 42316
SWIDTH 1024 0
DWIDTH 16 0
BBX 15 14 0 -1
BITMAP
0840
0840
1040
1248
327c
53c8
9e48
1248
1250
1240
1242
1202
11fe
1000
ENDCHAR
STARTCHAR 777
ENCODING 42317
SWIDTH 1024 0
DWIDTH 16 0
BBX 15 14 0 -1
BITMAP
0820
0820
1024
17fe
3020
5120
9120
10a0
10a0
1040
1060
1090
110e
1604
ENDCHAR
STARTCHAR 778
ENCODING 42318
SWIDTH 1024 0
DWIDTH 16 0
BBX 15 14 0 -1
BITMAP
0880
08a0
0890
1090
1084
30fe
5f80
9040
1040
1020
1012
1012
100a
1006
ENDCHAR
STARTCHAR 779
ENCODING 42319
SWIDTH 1024 0
DWIDTH 16 0
BBX 15 14 0 -1
BITMAP
0100
0280
0440
0820
1010
2fee
c004
1ff0
0010
0020
0440
0280
0100
0080
ENDCHAR
STARTCHAR 780
ENCODING 42320
SWIDTH 1024 0
DWIDTH 16 0
BBX 14 14 0 -1
BITMAP
1040
1040
2040
2444
6444
a444
2444
2444
2444
2444
2444
27fc
2404
2000
ENDCHAR
STARTCHAR 781
ENCODING 42321
SWIDTH 1024 0
DWIDTH 16 0
BBX 15 14 0 -1
BITMAP
0800
0804
0ffe
1044
3044
5244
9144
1144
1084
1084
1104
1204
1428
1810
ENDCHAR
STARTCHAR 782
ENCODING 42322
SWIDTH 1024 0
DWIDTH 16 0
BBX 15 14 0 -1
BITMAP
0080
0104
fffe
0200
0440
0830
3ff8
0448
0440
0440
0842
0842
1042
603e
ENDCHAR
STARTCHAR 783
ENCODING 42323
SWIDTH 1024 0
DWIDTH 16 0
BBX 14 14 1 -1
BITMAP
0010
7ff8
4010
4010
4010
7ff0
0880
0880
0880
1080
1084
2084
4084
807c
ENDCHAR
STARTCHAR 784
ENCODING 42324
SWIDTH 1024 0
DWIDTH 16 0
BBX 15 14 0 -1
BITMAP
0100
0108
3ffc
2108
2108
3ff8
2108
2108
fffe
2008
2008
2008
2028
2010
ENDCHAR
STARTCHAR 785
ENCODING 42325
SWIDTH 1024 0
DWIDTH 16 0
BBX 15 14 0 -1
BITMAP
0008
1ffc
1248
1248
1248
1248
fffe
1248
1248
1248
1248
1248
1248
1018
ENDCHAR
STARTCHAR 786
ENCODING 42326
SWIDTH 1024 0
DWIDTH 16 0
BBX 15 14 0 -1
BITMAP
0400
07f0
0820
1440
2280
0100
02c0
0c30
310e
c0c4
0040
0100
00c0
0040
ENDCHAR
STARTCHAR 787
ENCODING 42327
SWIDTH 1024 0
DWIDTH 16 0
BBX 14 12 1 0
BITMAP
0008
f8fc
8888
8888
8888
8888
8888
8f88
8008
8008
8008
fff8
ENDCHAR
STARTCHAR 788
ENCODING 42328
SWIDTH 1024 0
DWIDTH 16 0
BBX 13 14 1 -1
BITMAP
0200
0200
4210
4210
4210
7ff0
4210
0200
8208
8208
8208
8208
fff8
8008
ENDCHAR
STARTCHAR 789
ENCODING 42329
SWIDTH 1024 0
DWIDTH 16 0
BBX 14 12 1 0
BITMAP
1fc0
1040
1040
1040
1048
f07c
8008
8008
8008
8008
8008
fff8
ENDCHAR
STARTCHAR 790
ENCODING 42330
SWIDTH 1024 0
DWIDTH 16 0
BBX 14 14 0 -1
BITMAP
0104
3f84
0404
0424
0424
04a4
ffe4
0424
0424
0424
0404
0404
0414
0408
ENDCHAR
STARTCHAR 791
ENCODING 42331
SWIDTH 1024 0
DWIDTH 16 0
BBX 14 14 0 -1
BITMAP
1000
1000
1000
127c
ff44
1244
1244
1244
1244
1244
1244
2244
4a7c
8444
ENDCHAR
STARTCHAR 792
ENCODING 42332
SWIDTH 1024 0
DWIDTH 16 0
BBX 15 14 0 -1
BITMAP
0080
0880
fc80
1084
17fe
1084
1084
1084
1d04
f104
4104
0244
0428
0810
ENDCHAR
STARTCHAR 793
ENCODING 42333
SWIDTH 1024 0
DWIDTH 16 0
BBX 15 14 0 -1
BITMAP
0800
0808
1ffc
1008
2008
5f88
9088
1088
1f88
1008
1032
1002
1002
0ffe
ENDCHAR
STARTCHAR 794
ENCODING 42334
SWIDTH 1024 0
DWIDTH 16 0
BBX 15 14 0 -1
BITMAP
0800
0804
1ffe
1244
2244
4a44
8644
0544
08c4
1134
2214
4404
0828
0010
ENDCHAR
STARTCHAR 795
ENCODING 42335
SWIDTH 1024 0
DWIDTH 16 0
BBX 15 14 0 -1
BITMAP
0440
0440
0440
0444
7c7e
0440
0440
0440
0440
0440
0442
0c42
3442
c03e
ENDCHAR
STARTCHAR 796
ENCODING 42336
SWIDTH 1024 0
DWIDTH 16 0
BBX 15 14 0 -1
BITMAP
0008
fffc
4080
4080
4088
5ffc
4888
4888
4888
48a8
4890
4080
4084
7ffe
ENDCHAR
STARTCHAR 797
ENCODING 42337
SWIDTH 1024 0
DWIDTH 16 0
BBX 15 14 0 -1
BITMAP
0810
0838
0bc0
1040
3040
5044
9ffe
1040
1040
1040
1040
1040
1040
1040
ENDCHAR
STARTCHAR 798
ENCODING 42338
SWIDTH 1024 0
DWIDTH 16 0
BBX 15 14 0 -1
BITMAP
2108
1118
0920
0100
3ff8
0100
0100
0104
fffe
0100
0100
0100
0100
0100
ENDCHAR
STARTCHAR 799
ENCODING 42339
SWIDTH 1024 0
DWIDTH 16 0
BBX 15 14 0 -1
BITMAP
0100
0108
7ffc
0100
0920
0920
0824
fffe
0820
0820
0820
1020
2020
0020
ENDCHAR
STARTCHAR 800
ENCODING 42340
SWIDTH 1024 0
DWIDTH 16 0
BBX 15 14 0 -1
BITMAP
0200
0220
03f0
0200
0204
fffe
0200
0200
0280
0260
0230
0210
0200
0200
ENDCHAR
STARTCHAR 801
ENCODING 42341
SWIDTH 1024 0
DWIDTH 16 0
BBX 13 14 1 -1
BITMAP
0400
0410
07f8
0400
0400
0400
0410
fff8
8010
8010
8010
8010
fff0
8010
ENDCHAR
STARTCHAR 802
ENCODING 42342
SWIDTH 1024 0
DWIDTH 16 0
BBX 14 14 1 -1
BITMAP
0800
1c08
e0fc
8488
8488
8488
8488
9cc8
e4a8
0490
0880
3080
c080
0080
ENDCHAR
STARTCHAR 803
ENCODING 42343
SWIDTH 1024 0
DWIDTH 16 0
BBX 15 14 0 -1
BITMAP
0018
3fe0
2004
3ffe
2000
2010
27f8
2410
2490
2450
4420
4402
8402
03fe
ENDCHAR
STARTCHAR 804
ENCODING 42344
SWIDTH 1024 0
DWIDTH 16 0
BBX 15 14 0 -1
BITMAP
0100
0108
7ffc
0100
0100
0104
fffe
0200
0200
0420
0810
1008
7ffc
0004
ENDCHAR
STARTCHAR 805
ENCODING 42345
SWIDTH 1024 0
DWIDTH 16 0
BBX 15 14 0 -1
BITMAP
0004
fffe
0008
0008
1f88
1088
1088
1088
1f88
1088
0008
0008
0050
0020
ENDCHAR
STARTCHAR 806
ENCODING 42346
SWIDTH 1024 0
DWIDTH 16 0
BBX 15 14 0 -1
BITMAP
0100
0100
0104
fffe
0100
0100
0110
1ff8
1010
1010
1010
1010
1ff0
1010
ENDCHAR
STARTCHAR 807
ENCODING 42347
SWIDTH 1024 0
DWIDTH 16 0
BBX 15 14 0 -1
BITMAP
0200
0204
fffe
0400
0400
0800
0808
1ffc
2808
4808
8808
0808
0ff8
0808
ENDCHAR
STARTCHAR 808
ENCODING 42348
SWIDTH 1024 0
DWIDTH 16 0
BBX 13 14 1 -1
BITMAP
0010
7ff8
0810
0810
1010
1110
20a0
4040
9ff0
1010
1010
1010
1ff0
1010
ENDCHAR
STARTCHAR 809
ENCODING 42349
SWIDTH 1024 0
DWIDTH 16 0
BBX 15 14 0 -1
BITMAP
0004
fbfe
8820
8820
8820
8820
8820
8820
8820
f820
8820
0020
0120
00c0
ENDCHAR
STARTCHAR 810
ENCODING 42350
SWIDTH 1024 0
DWIDTH 16 0
BBX 15 14 0 -1
BITMAP
0004
09fe
fc84
8884
8884
8884
8884
8884
f8c4
88a8
0090
0080
0080
0080
ENDCHAR
STARTCHAR 811
ENCODING 42351
SWIDTH 1024 0
DWIDTH 16 0
BBX 15 14 0 -1
BITMAP
0004
09fe
fc44
8844
8844
8844
8844
8844
f884
8904
0204
0444
0828
0010
ENDCHAR
STARTCHAR 812
ENCODING 42352
SWIDTH 1024 0
DWIDTH 16 0
BBX 15 14 0 -1
BITMAP
0004
f9fe
8804
8804
8814
8824
8844
8884
fb04
8a04
0004
0044
0028
0010
ENDCHAR
STARTCHAR 813
ENCODING 42353
SWIDTH 1024 0
DWIDTH 16 0
BBX 15 14 0 -1
BITMAP
fffe
0002
0042
7fe2
0002
0082
3fc2
2082
2082
2082
3f82
20a2
0014
0008
ENDCHAR
STARTCHAR 814
ENCODING 42354
SWIDTH 1024 0
DWIDTH 16 0
BBX 14 14 1 -1
BITMAP
0010
fff8
8000
8040
8fe0
8840
8840
8840
8840
8fc0
8840
8000
8008
fffc
ENDCHAR
STARTCHAR 815
ENCODING 42355
SWIDTH 1024 0
DWIDTH 16 0
BBX 14 14 0 -1
BITMAP
0004
0004
fc84
8484
8484
8484
8484
8484
8484
fcfc
8404
0004
0004
0004
ENDCHAR
STARTCHAR 816
ENCODING 42356
SWIDTH 1024 0
DWIDTH 16 0
BBX 14 14 1 -1
BITMAP
0020
3ff0
2020
2020
3fe0
0400
0408
fffc
0408
0808
0808
1088
2050
c020
ENDCHAR
STARTCHAR 817
ENCODING 42357
SWIDTH 1024 0
DWIDTH 16 0
BBX 13 14 1 -1
BITMAP
0010
7ff8
4010
4010
4010
4010
7ff0
4010
0000
0880
1840
2030
4018
8008
ENDCHAR
STARTCHAR 818
ENCODING 42358
SWIDTH 1024 0
DWIDTH 16 0
BBX 15 14 0 -1
BITMAP
0100
0108
3ffc
2108
2108
3ff8
2108
0900
0500
0200
0580
0860
301e
c004
ENDCHAR
STARTCHAR 819
ENCODING 42359
SWIDTH 1024 0
DWIDTH 16 0
BBX 15 14 0 -1
BITMAP
0100
0900
fd00
8908
8918
8930
8940
8980
8b00
8900
f900
8902
0102
00fe
ENDCHAR
STARTCHAR 820
ENCODING 42360
SWIDTH 1024 0
DWIDTH 16 0
BBX 15 14 0 -1
BITMAP
0200
0400
0820
1010
2008
fffc
0002
0000
3ff8
2008
2008
2008
3ff8
2008
ENDCHAR
STARTCHAR 821
ENCODING 42361
SWIDTH 1024 0
DWIDTH 16 0
BBX 15 14 0 -1
BITMAP
1000
1004
1ffe
2004
4044
9fe4
0844
0844
0844
0fc4
0844
0004
0028
0010
ENDCHAR
STARTCHAR 822
ENCODING 42362
SWIDTH 1024 0
DWIDTH 16 0
BBX 15 14 0 -1
BITMAP
0020
0120
0930
fd20
8920
8920
8920
8920
8920
fa10
8a18
040e
0804
1000
ENDCHAR
STARTCHAR 823
ENCODING 42363
SWIDTH 1024 0
DWIDTH 16 0
BBX 15 14 0 -1
BITMAP
0040
0840
fc40
8844
8bfe
8844
8844
8844
f884
8904
0104
0204
0428
0810
ENDCHAR
STARTCHAR 824
ENCODING 42364
SWIDTH 1024 0
DWIDTH 16 0
BBX 15 12 0 0
BITMAP
0004
fffe
4444
4444
4444
4444
4444
483c
5004
4004
7ffc
4004
ENDCHAR
STARTCHAR 825
ENCODING 42365
SWIDTH 1024 0
DWIDTH 16 0
BBX 15 14 0 -1
BITMAP
0004
fffe
4004
4104
4104
4104
4104
4184
4244
4424
4814
4004
7ffc
4004
ENDCHAR
STARTCHAR 826
ENCODING 42366
SWIDTH 1024 0
DWIDTH 16 0
BBX 15 14 0 -1
BITMAP
0840
0840
1040
1f40
2160
2150
6248
9246
0a42
0440
0840
1040
2040
0040
ENDCHAR
STARTCHAR 861
ENCODING 42401
SWIDTH 1024 0
DWIDTH 16 0
BBX 15 14 0 -1
BITMAP
0100
0110
1ff8
1110
1110
1110
1110
fffe
0100
0280
0440
0830
300e
c004
ENDCHAR
STARTCHAR 862
ENCODING 42402
SWIDTH 1024 0
DWIDTH 16 0
BBX 15 14 0 -1
BITMAP
0100
1100
1110
1ff8
2100
4100
0104
fffe
0100
0280
0440
0830
100e
6004
ENDCHAR
STARTCHAR 863
ENCODING 42403
SWIDTH 1024 0
DWIDTH 16 0
BBX 15 14 0 -1
BITMAP
1000
11fc
1004
fe84
2284
2284
4284
2488
1450
0820
1450
2288
410e
0604
ENDCHAR
STARTCHAR 864
ENCODING 42404
SWIDTH 1024 0
DWIDTH 16 0
BBX 14 14 0 -1
BITMAP
1008
17fc
1088
fc88
2490
2490
24bc
4904
2904
1104
2a04
4a04
8428
0810
ENDCHAR
STARTCHAR 865
ENCODING 42405
SWIDTH 1024 0
DWIDTH 16 0
BBX 15 14 0 -1
BITMAP
3ff0
0820
0824
087e
1004
17c4
2054
4088
0100
fffe
0100
0100
0500
0200
ENDCHAR
STARTCHAR 866
ENCODING 42406
SWIDTH 1024 0
DWIDTH 16 0
BBX 15 14 0 -1
BITMAP
0200
0104
7ffe
4004
8008
0800
0820
0860
0980
0e00
0808
0808
0808
07f8
ENDCHAR
STARTCHAR 867
ENCODING 42407
SWIDTH 1024 0
DWIDTH 16 0
BBX 15 14 0 -1
BITMAP
0008
3ffc
2008
2008
3ff8
2400
2400
2400
27f8
2400
2402
4402
4402
83fe
ENDCHAR
STARTCHAR 868
ENCODING 42408
SWIDTH 1024 0
DWIDTH 16 0
BBX 14 14 0 -1
BITMAP
0010
7ff8
1000
1000
1020
1ff0
1020
1020
1020
1fe0
1020
1000
1008
fffc
ENDCHAR
STARTCHAR 869
ENCODING 42409
SWIDTH 1024 0
DWIDTH 16 0
BBX 15 14 0 -1
BITMAP
0004
03fe
fc40
1040
1080
1104
11fe
1004
1c04
f004
4004
0044
0028
0010
ENDCHAR
STARTCHAR 870
ENCODING 42410
SWIDTH 1024 0
DWIDTH 16 0
BBX 15 14 0 -1
BITMAP
0200
0200
0208
fffc
0400
0400
0810
0ff8
1080
2080
4080
8080
0084
7ffe
ENDCHAR
STARTCHAR 871
ENCODING 42411
SWIDTH 1024 0
DWIDTH 16 0
BBX 15 14 0 -1
BITMAP
0200
0100
0004
fffe
0100
0108
3ffc
2108
2108
2108
2128
2110
0100
0100
ENDCHAR
STARTCHAR 872
ENCODING 42412
SWIDTH 1024 0
DWIDTH 16 0
BBX 14 14 0 -1
BITMAP
0200
0208
fffc
0400
0900
1108
3ffc
5108
9108
1108
1128
1110
0100
0100
ENDCHAR
STARTCHAR 873
ENCODING 42413
SWIDTH 1024 0
DWIDTH 16 0
BBX 15 14 0 -1
BITMAP
0008
7ffc
0100
1110
0910
0920
0104
fffe
0100
0100
0100
0100
0100
0100
ENDCHAR
STARTCHAR 874
ENCODING 42414
SWIDTH 1024 0
DWIDTH 16 0
BBX 15 14 0 -1
BITMAP
0040
1040
1040
2044
25fe
4444
f844
1044
2044
4884
fc84
4504
0228
0410
ENDCHAR
STARTCHAR 875
ENCODING 42415
SWIDTH 1024 0
DWIDTH 16 0
BBX 15 14 0 -1
BITMAP
0300
0440
0820
3ff0
0010
0440
0444
fffe
0440
0440
0840
0840
1040
2040
ENDCHAR
STARTCHAR 876
ENCODING 42416
SWIDTH 1024 0
DWIDTH 16 0
BBX 15 14 0 -1
BITMAP
0420
fe30
0420
0420
7c20
4020
4020
7c40
0480
0490
0508
0bfc
4902
3002
ENDCHAR
STARTCHAR 877
ENCODING 42417
SWIDTH 1024 0
DWIDTH 16 0
BBX 15 14 0 -1
BITMAP
0440
0448
7ffc
0448
0448
3ff8
2440
2444
3ffe
0444
0854
3048
c040
0040
ENDCHAR
STARTCHAR 878
ENCODING 42418
SWIDTH 1024 0
DWIDTH 16 0
BBX 15 13 0 0
BITMAP
0200
0120
0130
0820
4848
4846
4882
8900
0a08
0c08
1808
2808
47f8
ENDCHAR
STARTCHAR 879
ENCODING 42419
SWIDTH 1024 0
DWIDTH 16 0
BBX 15 14 0 -1
BITMAP
0080
0090
0088
3ffe
2080
2084
2048
2048
2030
2020
4060
4092
830a
0006
ENDCHAR
STARTCHAR 880
ENCODING 42420
SWIDTH 1024 0
DWIDTH 16 0
BBX 15 14 0 -1
BITMAP
1000
1004
13fe
fc20
1020
1420
1820
3020
d020
1020
1020
1020
50a0
2040
ENDCHAR
STARTCHAR 881
ENCODING 42421
SWIDTH 1024 0
DWIDTH 16 0
BBX 15 14 0 -1
BITMAP
1000
1000
13fc
fc88
1088
1490
18be
3082
d102
1102
1202
1222
5414
2008
ENDCHAR
STARTCHAR 882
ENCODING 42422
SWIDTH 1024 0
DWIDTH 16 0
BBX 15 14 0 -1
BITMAP
1000
1020
1130
fd20
1120
1520
1920
3120
d120
1210
1218
140e
5804
2000
ENDCHAR
STARTCHAR 883
ENCODING 42423
SWIDTH 1024 0
DWIDTH 16 0
BBX 14 14 0 -1
BITMAP
1040
1040
1040
fe40
1060
1458
184c
3044
d040
1040
1040
1040
5040
2040
ENDCHAR
STARTCHAR 884
ENCODING 42424
SWIDTH 1024 0
DWIDTH 16 0
BBX 14 14 0 -1
BITMAP
0018
3fe0
2000
2008
3ffc
2080
2080
20e0
20b0
2090
4080
4080
8080
0080
ENDCHAR
STARTCHAR 885
ENCODING 42425
SWIDTH 1024 0
DWIDTH 16 0
BBX 15 14 0 -1
BITMAP
0010
1ff8
1010
1010
1010
1ff0
1010
1010
1010
1ff0
0000
0000
0004
fffe
ENDCHAR
STARTCHAR 886
ENCODING 42426
SWIDTH 1024 0
DWIDTH 16 0
BBX 15 14 0 -1
BITMAP
0100
0110
0108
0104
fffe
0100
1110
1110
1110
1110
2110
c11e
0100
0100
ENDCHAR
STARTCHAR 887
ENCODING 42427
SWIDTH 1024 0
DWIDTH 16 0
BBX 15 14 0 -1
BITMAP
0100
0100
0108
7ffc
0540
0540
0540
0920
0920
1110
2fee
c104
0100
0100
ENDCHAR
STARTCHAR 888
ENCODING 42428
SWIDTH 1024 0
DWIDTH 16 0
BBX 15 14 0 -1
BITMAP
0100
0110
3ff8
0100
0104
fffe
0380
0540
0920
1110
210e
4104
0100
0100
ENDCHAR
STARTCHAR 889
ENCODING 42429
SWIDTH 1024 0
DWIDTH 16 0
BBX 15 14 0 -1
BITMAP
0100
0104
fffe
0100
0108
7ffc
0380
0540
0920
1118
210e
c104
0100
0100
ENDCHAR
STARTCHAR 890
ENCODING 42430
SWIDTH 1024 0
DWIDTH 16 0
BBX 15 14 0 -1
BITMAP
0840
0840
0840
ff40
0840
1840
1c40
2a40
2a40
4840
0842
0842
083e
0800
ENDCHAR
STARTCHAR 891
ENCODING 42431
SWIDTH 1024 0
DWIDTH 16 0
BBX 15 14 0 -1
BITMAP
0008
7ffc
0100
0100
0100
0100
1110
11f8
1100
1100
1100
1100
1104
fffe
ENDCHAR
STARTCHAR 892
ENCODING 42432
SWIDTH 1024 0
DWIDTH 16 0
BBX 15 14 0 -1
BITMAP
0010
1ff8
1210
1190
1090
1010
fffe
1210
1190
2090
3ffc
0010
00a0
0040
ENDCHAR
STARTCHAR 893
ENCODING 42433
SWIDTH 1024 0
DWIDTH 16 0
BBX 14 14 1 -1
BITMAP
fff0
8020
8020
ffe0
8400
8410
fff8
8400
8200
8200
9100
a084
c064
801c
ENDCHAR
STARTCHAR 894
ENCODING 42434
SWIDTH 1024 0
DWIDTH 16 0
BBX 14 14 1 -1
BITMAP
0020
01f0
7f00
4100
4108
7ffc
4100
4080
4080
4840
5040
e024
4014
3f8c
ENDCHAR
STARTCHAR 895
ENCODING 42435
SWIDTH 1024 0
DWIDTH 16 0
BBX 14 14 1 -1
BITMAP
0400
0200
3e00
0210
0230
fb40
0b80
0a80
1240
2220
421c
8208
0a00
0400
ENDCHAR
STARTCHAR 896
ENCODING 42436
SWIDTH 1024 0
DWIDTH 16 0
BBX 15 14 0 -1
BITMAP
4040
3040
1040
8040
6044
27fe
0840
1040
2040
e040
2040
2040
2040
2040
ENDCHAR
STARTCHAR 897
ENCODING 42437
SWIDTH 1024 0
DWIDTH 16 0
BBX 15 14 0 -1
BITMAP
4000
3004
17fe
8040
6040
2040
0840
1040
2040
e040
2040
2040
2140
2080
ENDCHAR
STARTCHAR 898
ENCODING 42438
SWIDTH 1024 0
DWIDTH 16 0
BBX 15 14 0 -1
BITMAP
4000
27fc
1204
0204
8204
4204
2228
0210
0a00
1200
2200
c204
4204
41fe
ENDCHAR
STARTCHAR 899
ENCODING 42439
SWIDTH 1024 0
DWIDTH 16 0
BBX 15 14 0 -1
BITMAP
4408
29fc
1108
2908
4908
8908
1948
2930
4900
8900
0902
0902
50fe
2000
ENDCHAR
STARTCHAR 900
ENCODING 42440
SWIDTH 1024 0
DWIDTH 16 0
BBX 15 14 0 -1
BITMAP
0200
0104
fffe
0200
0420
0840
3080
0900
0600
0420
0810
1008
7ffc
0004
ENDCHAR
STARTCHAR 901
ENCODING 42441
SWIDTH 1024 0
DWIDTH 16 0
BBX 15 13 0 0
BITMAP
0008
7ffc
0100
0100
0100
0110
3ff8
0100
0140
0130
0110
0104
fffe
ENDCHAR
STARTCHAR 902
ENCODING 42442
SWIDTH 1024 0
DWIDTH 16 0
BBX 15 14 0 -1
BITMAP
0010
0078
1f80
1240
1240
1240
1240
1220
2220
2290
2248
42a6
4324
8000
ENDCHAR
STARTCHAR 903
ENCODING 42443
SWIDTH 1024 0
DWIDTH 16 0
BBX 15 14 0 -1
BITMAP
0008
7ffc
0800
0800
0820
0ff0
0820
0a20
0920
0920
1020
1f22
f022
401e
ENDCHAR
STARTCHAR 904
ENCODING 42444
SWIDTH 1024 0
DWIDTH 16 0
BBX 15 14 0 -1
BITMAP
0820
0820
0824
fffe
0820
0820
0820
0fe0
0820
0820
0820
0820
0fe0
0820
ENDCHAR
STARTCHAR 905
ENCODING 42445
SWIDTH 1024 0
DWIDTH 16 0
BBX 15 14 0 -1
BITMAP
0100
1100
1108
3ffc
2100
4100
8100
0110
3ff8
0100
0100
0100
0104
fffe
ENDCHAR
STARTCHAR 906
ENCODING 42446
SWIDTH 1024 0
DWIDTH 16 0
BBX 14 14 0 -1
BITMAP
0008
3ffc
2108
2108
3ff8
2108
2108
3ff8
2108
2108
2108
4108
4128
8010
ENDCHAR
STARTCHAR 907
ENCODING 42447
SWIDTH 1024 0
DWIDTH 16 0
BBX 15 14 0 -1
BITMAP
0008
3ffc
2108
2108
3ff8
2108
2108
3ff8
2108
2108
2128
2112
4102
80fe
ENDCHAR
STARTCHAR 908
ENCODING 42448
SWIDTH 1024 0
DWIDTH 16 0
BBX 14 14 1 -1
BITMAP
0008
fffc
8208
8208
8208
8208
fff8
8208
8208
8208
8208
8208
fff8
8008
ENDCHAR
STARTCHAR 909
ENCODING 42449
SWIDTH 1024 0
DWIDTH 16 0
BBX 14 14 1 -1
BITMAP
0200
0200
0200
0208
fffc
8208
8208
8208
fff8
8208
8208
8208
fff8
8008
ENDCHAR
STARTCHAR 910
ENCODING 42450
SWIDTH 1024 0
DWIDTH 16 0
BBX 14 14 1 -1
BITMAP
0008
fffc
8208
8208
fff8
8208
8208
fff8
8208
0200
0200
0200
0200
0200
ENDCHAR
STARTCHAR 911
ENCODING 42451
SWIDTH 1024 0
DWIDTH 16 0
BBX 12 14 2 -1
BITMAP
0400
0400
0420
fff0
8420
8420
ffe0
8420
8420
ffe0
8420
0400
0400
0400
ENDCHAR
STARTCHAR 912
ENCODING 42452
SWIDTH 1024 0
DWIDTH 16 0
BBX 15 14 0 -1
BITMAP
0008
7ffc
0108
0110
0900
0910
09f8
1100
1900
2500
2300
4100
8080
007e
ENDCHAR
STARTCHAR 913
ENCODING 42453
SWIDTH 1024 0
DWIDTH 16 0
BBX 12 14 2 -1
BITMAP
0800
1000
2020
fff0
8020
8020
8020
ffe0
8020
8020
8020
8020
ffe0
8020
ENDCHAR
STARTCHAR 914
ENCODING 42454
SWIDTH 1024 0
DWIDTH 16 0
BBX 15 14 0 -1
BITMAP
0080
0080
3ffe
2082
2084
2ff8
2008
2410
2220
2140
2080
4160
461e
9804
ENDCHAR
STARTCHAR 915
ENCODING 42455
SWIDTH 1024 0
DWIDTH 16 0
BBX 15 12 0 0
BITMAP
0008
7ffc
2448
2448
2448
2448
2448
2448
2448
2448
2448
fffe
ENDCHAR
STARTCHAR 916
ENCODING 42456
SWIDTH 1024 0
DWIDTH 16 0
BBX 11 14 2 -1
BITMAP
0040
ffe0
8040
8040
8040
ffc0
8040
8040
ffc0
8040
8040
8040
ffc0
8040
ENDCHAR
STARTCHAR 917
ENCODING 42457
SWIDTH 1024 0
DWIDTH 16 0
BBX 15 14 0 -1
BITMAP
1ff0
0020
0240
0180
0084
fffe
0184
0288
0480
0880
1080
2080
0280
0100
ENDCHAR
STARTCHAR 918
ENCODING 42458
SWIDTH 1024 0
DWIDTH 16 0
BBX 15 14 0 -1
BITMAP
1000
1010
1ff8
1100
2100
4100
0104
fffe
0100
0280
0440
0820
101c
6008
ENDCHAR
STARTCHAR 919
ENCODING 42459
SWIDTH 1024 0
DWIDTH 16 0
BBX 15 14 0 -1
BITMAP
0004
fffe
0200
0400
0400
0808
1ffc
2808
4808
8808
0808
0808
0ff8
0808
ENDCHAR
STARTCHAR 920
ENCODING 42460
SWIDTH 1024 0
DWIDTH 16 0
BBX 15 14 0 -1
BITMAP
0010
3ff8
0000
0000
0004
fffe
0100
1120
3110
410c
8104
0100
0100
0100
ENDCHAR
STARTCHAR 921
ENCODING 42461
SWIDTH 1024 0
DWIDTH 16 0
BBX 15 14 0 -1
BITMAP
0010
0038
3fc0
0100
0104
fffe
0100
0380
0540
0920
1118
210e
4104
0100
ENDCHAR
STARTCHAR 922
ENCODING 42462
SWIDTH 1024 0
DWIDTH 16 0
BBX 15 13 0 0
BITMAP
0200
0100
0104
7ffe
4004
8088
0480
0440
0840
1020
1010
200e
4004
ENDCHAR
STARTCHAR 923
ENCODING 42463
SWIDTH 1024 0
DWIDTH 16 0
BBX 15 13 0 0
BITMAP
0200
0100
0108
7ffc
0000
0010
1010
0820
0440
0440
0480
0004
fffe
ENDCHAR
STARTCHAR 924
ENCODING 42464
SWIDTH 1024 0
DWIDTH 16 0
BBX 15 14 0 -1
BITMAP
0020
3ff0
0040
0080
0108
7d18
05e0
0920
1110
110e
2104
4500
0204
fffe
ENDCHAR
STARTCHAR 925
ENCODING 42465
SWIDTH 1024 0
DWIDTH 16 0
BBX 15 14 0 -1
BITMAP
0008
7ffc
0100
0110
3ff8
0100
0104
fffe
0800
1000
2010
4008
fffc
4004
ENDCHAR
STARTCHAR 926
ENCODING 42466
SWIDTH 1024 0
DWIDTH 16 0
BBX 15 14 0 -1
BITMAP
0030
0fc0
0800
0808
0ffc
0820
0820
0824
fffe
0000
0200
0600
0800
1000
ENDCHAR
STARTCHAR 927
ENCODING 42467
SWIDTH 1024 0
DWIDTH 16 0
BBX 15 14 0 -1
BITMAP
0030
0fc0
0800
0808
0ffc
0820
0820
0824
fffe
0000
0040
0030
0018
0008
ENDCHAR
STARTCHAR 928
ENCODING 42468
SWIDTH 1024 0
DWIDTH 16 0
BBX 14 14 1 -1
BITMAP
2080
2080
2480
3e80
2080
2080
2480
fe80
8480
8480
8484
8484
fc84
847c
ENDCHAR
STARTCHAR 929
ENCODING 42469
SWIDTH 1024 0
DWIDTH 16 0
BBX 15 14 0 -1
BITMAP
0008
7ffc
0400
0400
07f8
0a10
0910
0890
0a10
0910
1090
0020
0044
fffe
ENDCHAR
STARTCHAR 930
ENCODING 42470
SWIDTH 1024 0
DWIDTH 16 0
BBX 15 14 0 -1
BITMAP
0100
0104
fffe
0810
100c
2824
4440
0280
0100
0280
0440
0830
300e
c004
ENDCHAR
STARTCHAR 931
ENCODING 42471
SWIDTH 1024 0
DWIDTH 16 0
BBX 15 14 0 -1
BITMAP
0200
0100
0104
fffe
0440
0440
1450
1448
2444
4444
0440
0840
1140
0080
ENDCHAR
STARTCHAR 932
ENCODING 42472
SWIDTH 1024 0
DWIDTH 16 0
BBX 15 14 0 -1
BITMAP
0200
0104
fffe
0200
0460
0880
1f10
0230
0440
08c0
3120
0610
180c
6004
ENDCHAR
STARTCHAR 933
ENCODING 42473
SWIDTH 1024 0
DWIDTH 16 0
BBX 15 14 0 -1
BITMAP
0840
0820
1024
17fe
3080
5088
90fc
1088
1088
1088
1108
1108
1250
1420
ENDCHAR
STARTCHAR 934
ENCODING 42474
SWIDTH 1024 0
DWIDTH 16 0
BBX 15 14 0 -1
BITMAP
0880
0844
17fe
1000
3010
51f8
9110
1110
1110
1110
1212
1212
1412
180e
ENDCHAR
STARTCHAR 935
ENCODING 42475
SWIDTH 1024 0
DWIDTH 16 0
BBX 15 14 0 -1
BITMAP
0840
0840
1040
1044
344c
5250
9260
1040
10a0
1110
1110
1208
140e
1804
ENDCHAR
STARTCHAR 936
ENCODING 42476
SWIDTH 1024 0
DWIDTH 16 0
BBX 15 14 0 -1
BITMAP
0808
0bfc
0888
1088
3ffe
5088
9088
13f8
1088
1080
1100
1100
1200
1400
ENDCHAR
STARTCHAR 937
ENCODING 42477
SWIDTH 1024 0
DWIDTH 16 0
BBX 14 14 0 -1
BITMAP
0840
0840
1040
23f8
6040
a040
2048
27fc
2040
2040
20a0
2110
2208
2404
ENDCHAR
STARTCHAR 938
ENCODING 42478
SWIDTH 1024 0
DWIDTH 16 0
BBX 15 14 0 -1
BITMAP
1000
1008
17fc
2080
6080
a088
27fc
2108
2108
2108
2108
2208
3ffe
2000
ENDCHAR
STARTCHAR 939
ENCODING 42479
SWIDTH 1024 0
DWIDTH 16 0
BBX 15 14 0 -1
BITMAP
0880
08a0
0890
1090
30fc
5780
9088
1050
1060
1040
10a0
1112
160a
1006
ENDCHAR
STARTCHAR 940
ENCODING 42480
SWIDTH 1024 0
DWIDTH 16 0
BBX 15 14 0 -1
BITMAP
0840
0840
1044
17fe
3040
50e0
90e0
1150
1150
1248
1446
1844
1040
1040
ENDCHAR
STARTCHAR 941
ENCODING 42481
SWIDTH 1024 0
DWIDTH 16 0
BBX 15 14 0 -1
BITMAP
0850
0848
1048
1040
3ffe
5040
9040
10a0
10a0
1110
1110
1208
140e
1804
ENDCHAR
STARTCHAR 942
ENCODING 42482
SWIDTH 1024 0
DWIDTH 16 0
BBX 15 14 0 -1
BITMAP
0840
0840
1044
17fe
3444
5444
9444
1444
17fc
1444
1040
1040
1040
1040
ENDCHAR
STARTCHAR 943
ENCODING 42483
SWIDTH 1024 0
DWIDTH 16 0
BBX 15 14 0 -1
BITMAP
1040
1240
2248
23fc
6440
a440
2840
2044
3ffe
2040
2040
2040
2040
2040
ENDCHAR
STARTCHAR 944
ENCODING 42484
SWIDTH 1024 0
DWIDTH 16 0
BBX 15 14 0 -1
BITMAP
0800
0810
0bf8
1040
3040
5044
9ffe
1040
1040
1040
1048
17fc
1000
1000
ENDCHAR
STARTCHAR 945
ENCODING 42485
SWIDTH 1024 0
DWIDTH 16 0
BBX 15 14 0 -1
BITMAP
0880
0904
127e
1444
2444
6444
a444
2444
2544
2654
2448
2040
2040
2040
ENDCHAR
STARTCHAR 946
ENCODING 42486
SWIDTH 1024 0
DWIDTH 16 0
BBX 15 14 0 -1
BITMAP
0820
0a20
1220
1220
3220
53be
9220
1220
1220
1260
12a2
1322
121e
1000
ENDCHAR
STARTCHAR 947
ENCODING 42487
SWIDTH 1024 0
DWIDTH 16 0
BBX 15 14 0 -1
BITMAP
0820
0920
1110
1210
320e
5404
9bf0
1110
1110
1110
1210
1210
14a0
1040
ENDCHAR
STARTCHAR 948
ENCODING 42488
SWIDTH 1024 0
DWIDTH 16 0
BBX 15 14 0 -1
BITMAP
0100
0280
0440
0820
1110
210e
c104
0900
09f0
0900
0900
0900
0904
fffe
ENDCHAR
STARTCHAR 949
ENCODING 42489
SWIDTH 1024 0
DWIDTH 16 0
BBX 15 14 0 -1
BITMAP
1008
27fc
4108
a110
2120
21fc
2184
2248
2250
2420
2450
2888
310e
2204
ENDCHAR
STARTCHAR 950
ENCODING 42490
SWIDTH 1024 0
DWIDTH 16 0
BBX 15 14 0 -1
BITMAP
0100
110c
0910
0920
0104
fffe
0440
0440
0440
0840
0842
1042
2042
403e
ENDCHAR
STARTCHAR 951
ENCODING 42491
SWIDTH 1024 0
DWIDTH 16 0
BBX 15 14 0 -1
BITMAP
4010
4890
4510
4210
4590
4890
4010
7ff0
4890
0880
0880
1082
2082
c07e
ENDCHAR
STARTCHAR 952
ENCODING 42492
SWIDTH 1024 0
DWIDTH 16 0
BBX 15 14 0 -1
BITMAP
0480
0480
6498
14a0
14c0
0480
04c0
1ca0
6498
0880
0882
1082
2082
c07e
ENDCHAR
STARTCHAR 953
ENCODING 42493
SWIDTH 1024 0
DWIDTH 16 0
BBX 15 14 0 -1
BITMAP
0100
1110
1ff8
1100
2100
0104
fffe
0480
0480
0880
0882
1082
2082
c07e
ENDCHAR
STARTCHAR 954
ENCODING 42494
SWIDTH 1024 0
DWIDTH 16 0
BBX 15 14 0 -1
BITMAP
0100
0280
0440
0820
1010
2fee
c104
0100
0100
0fe0
0100
0100
0108
7ffc
ENDCHAR
STARTCHAR 955
ENCODING 42560
SWIDTH 1024 0
DWIDTH 16 0
BBX 15 14 0 -1
BITMAP
0440
0440
0448
7ffc
0440
0440
0440
0444
fffe
0000
0440
0c30
1018
2008
ENDCHAR
STARTCHAR 956
ENCODING 42561
SWIDTH 1024 0
DWIDTH 16 0
BBX 15 14 0 -1
BITMAP
7ffc
0100
0110
1ff8
1110
1110
1ff0
1110
1110
fffe
1010
1010
1050
1020
ENDCHAR
STARTCHAR 957
ENCODING 42562
SWIDTH 1024 0
DWIDTH 16 0
BBX 15 14 0 -1
BITMAP
4080
3080
1084
008c
0f90
11e0
12c0
22a0
e490
2488
288e
3084
2280
2100
ENDCHAR
STARTCHAR 958
ENCODING 42563
SWIDTH 1024 0
DWIDTH 16 0
BBX 14 14 0 -1
BITMAP
0104
7f84
1004
1024
1f24
2124
2124
5224
8a24
0424
0804
1004
2014
4008
ENDCHAR
STARTCHAR 959
ENCODING 42564
SWIDTH 1024 0
DWIDTH 16 0
BBX 14 14 0 -1
BITMAP
0084
7fc4
1104
1124
1124
1124
ffe4
1124
1124
1124
2104
2104
4114
0108
ENDCHAR
STARTCHAR 960
ENCODING 42565
SWIDTH 1024 0
DWIDTH 16 0
BBX 14 14 0 -1
BITMAP
1404
1204
1024
13a4
fc24
1024
1124
1224
0c24
0824
1404
2484
4294
0188
ENDCHAR
STARTCHAR 961
ENCODING 42566
SWIDTH 1024 0
DWIDTH 16 0
BBX 14 14 0 -1
BITMAP
1004
1004
3fa4
2aa4
4aa4
8aa4
12a4
14a4
24a4
44a4
0884
1084
2514
0208
ENDCHAR
STARTCHAR 962
ENCODING 42567
SWIDTH 1024 0
DWIDTH 16 0
BBX 15 14 0 -1
BITMAP
0102
3f82
2112
2112
3f12
2112
2112
3f12
2112
2112
2102
4102
450a
8204
ENDCHAR
STARTCHAR 963
ENCODING 42568
SWIDTH 1024 0
DWIDTH 16 0
BBX 14 14 0 -1
BITMAP
0100
1118
110c
2334
00c0
0700
1900
e108
1ffc
0108
0208
0408
0850
3020
ENDCHAR
STARTCHAR 964
ENCODING 42569
SWIDTH 1024 0
DWIDTH 16 0
BBX 15 14 0 -1
BITMAP
0800
1004
1ffe
2004
4044
9044
28a4
2524
2224
2524
28a4
3fe4
2004
0018
ENDCHAR
STARTCHAR 965
ENCODING 42570
SWIDTH 1024 0
DWIDTH 16 0
BBX 14 14 1 -1
BITMAP
0010
fff8
8000
bfe0
8200
8200
8200
9fc0
8200
8200
8200
bfe0
8008
fffc
ENDCHAR
STARTCHAR 966
ENCODING 42571
SWIDTH 1024 0
DWIDTH 16 0
BBX 15 14 0 -1
BITMAP
0008
fffc
8070
8f80
8800
8810
8ff8
8840
8840
8840
9040
a040
8044
fffe
ENDCHAR
STARTCHAR 967
ENCODING 42572
SWIDTH 1024 0
DWIDTH 16 0
BBX 15 14 0 -1
BITMAP
0604
78fe
4084
4084
4484
7e84
4084
4084
4084
4ca8
7090
c080
0080
0080
ENDCHAR
STARTCHAR 968
ENCODING 42573
SWIDTH 1024 0
DWIDTH 16 0
BBX 15 14 0 -1
BITMAP
0800
0fe0
1040
2088
5ffc
1000
13f8
1210
1210
1250
2222
2202
4202
81fe
ENDCHAR
STARTCHAR 969
ENCODING 42574
SWIDTH 1024 0
DWIDTH 16 0
BBX 15 14 0 -1
BITMAP
0100
0104
fffe
0100
0110
3ff8
0000
0010
1ff8
1010
1010
1010
1ff0
1010
ENDCHAR
STARTCHAR 970
ENCODING 42575
SWIDTH 1024 0
DWIDTH 16 0
BBX 15 14 0 -1
BITMAP
0100
0104
fffe
0100
0108
3ffc
2108
2108
3ff8
0900
0600
0580
1870
e00e
ENDCHAR
STARTCHAR 971
ENCODING 42576
SWIDTH 1024 0
DWIDTH 16 0
BBX 14 14 1 -1
BITMAP
0008
fffc
8008
8048
bfe8
8008
9fc8
9048
9048
9fc8
9048
8008
8028
8010
ENDCHAR
STARTCHAR 972
ENCODING 42577
SWIDTH 1024 0
DWIDTH 16 0
BBX 14 14 1 -1
BITMAP
0020
3ff0
2020
2020
3fe0
0200
0208
fffc
8208
8208
8228
8210
0200
0200
ENDCHAR
STARTCHAR 973
ENCODING 42578
SWIDTH 1024 0
DWIDTH 16 0
BBX 15 14 0 -1
BITMAP
0040
0840
fc40
8840
8848
8ffc
8840
8840
8840
f840
8840
0040
0044
0ffe
ENDCHAR
STARTCHAR 974
ENCODING 42579
SWIDTH 1024 0
DWIDTH 16 0
BBX 15 14 0 -1
BITMAP
0008
03fc
f840
8840
8844
8ffe
8840
8840
f840
8840
0040
0040
0140
0080
ENDCHAR
STARTCHAR 975
ENCODING 42580
SWIDTH 1024 0
DWIDTH 16 0
BBX 15 14 0 -1
BITMAP
0010
0010
f810
8ffe
8810
8810
8910
8890
8890
f810
8810
0090
0050
0020
ENDCHAR
STARTCHAR 976
ENCODING 42581
SWIDTH 1024 0
DWIDTH 16 0
BBX 15 14 0 -1
BITMAP
0400
07f0
0810
1420
2240
0180
0660
181e
e004
0ff0
0810
0810
0ff0
0810
ENDCHAR
STARTCHAR 977
ENCODING 42582
SWIDTH 1024 0
DWIDTH 16 0
BBX 14 14 1 -1
BITMAP
0400
0800
1008
fffc
8008
8088
8fc8
8888
8888
8f88
8888
8008
8028
8010
ENDCHAR
STARTCHAR 978
ENCODING 42583
SWIDTH 1024 0
DWIDTH 16 0
BBX 14 14 0 -1
BITMAP
0200
07f8
0410
0c20
1240
0180
0600
1808
effc
0808
0808
0808
0ff8
0808
ENDCHAR
STARTCHAR 979
ENCODING 42584
SWIDTH 1024 0
DWIDTH 16 0
BBX 15 14 0 -1
BITMAP
0100
0280
0440
0820
3018
cfe6
0000
0020
0ff0
0820
0820
0820
0fe0
0820
ENDCHAR
STARTCHAR 980
ENCODING 42585
SWIDTH 1024 0
DWIDTH 16 0
BBX 15 14 0 -1
BITMAP
0080
0104
f9fe
8a00
8c00
8bf8
8810
8820
8840
f880
8900
0202
0202
01fe
ENDCHAR
STARTCHAR 981
ENCODING 42586
SWIDTH 1024 0
DWIDTH 16 0
BBX 15 14 0 -1
BITMAP
0010
0078
3f80
2000
2004
3ffe
2000
2008
27fc
2408
2408
4408
87f8
0408
ENDCHAR
STARTCHAR 982
ENCODING 42587
SWIDTH 1024 0
DWIDTH 16 0
BBX 15 14 0 -1
BITMAP
0040
0840
fc40
8884
8b04
8888
8850
8820
8840
f880
8908
0204
07fe
0002
ENDCHAR
STARTCHAR 983
ENCODING 42588
SWIDTH 1024 0
DWIDTH 16 0
BBX 15 14 0 -1
BITMAP
0008
081c
fde0
8840
8844
887e
8fc0
8840
8840
f840
8840
0042
0042
003e
ENDCHAR
STARTCHAR 984
ENCODING 42589
SWIDTH 1024 0
DWIDTH 16 0
BBX 14 14 1 -1
BITMAP
0008
fffc
8208
8208
bfe8
8208
8508
8488
8848
9028
a028
8008
fff8
8008
ENDCHAR
STARTCHAR 985
ENCODING 42590
SWIDTH 1024 0
DWIDTH 16 0
BBX 15 14 0 -1
BITMAP
0004
fffe
8004
8004
9fe4
9024
9024
9024
9024
9fe4
9024
8004
fffc
8004
ENDCHAR
STARTCHAR 986
ENCODING 42591
SWIDTH 1024 0
DWIDTH 16 0
BBX 15 14 0 -1
BITMAP
0004
fffe
8004
8fc4
8084
8104
bff4
8104
8104
8104
8504
8204
fffc
8004
ENDCHAR
STARTCHAR 987
ENCODING 42592
SWIDTH 1024 0
DWIDTH 16 0
BBX 14 14 0 -1
BITMAP
1004
1104
1124
1124
fd24
1124
1124
1124
1d24
f124
4224
0204
0404
0004
ENDCHAR
STARTCHAR 988
ENCODING 42593
SWIDTH 1024 0
DWIDTH 16 0
BBX 15 14 0 -1
BITMAP
0040
2040
2240
2248
227c
fbc8
2648
2248
2248
2250
2242
3a02
e202
41fe
ENDCHAR
STARTCHAR 989
ENCODING 42594
SWIDTH 1024 0
DWIDTH 16 0
BBX 15 14 0 -1
BITMAP
0200
0204
fffe
0400
0440
0840
0848
13fc
3040
5040
9040
1044
17fe
1000
ENDCHAR
STARTCHAR 990
ENCODING 42595
SWIDTH 1024 0
DWIDTH 16 0
BBX 15 14 0 -1
BITMAP
0100
0110
3ff8
0100
0100
0104
fffe
0100
0110
3ff8
0100
0100
0104
fffe
ENDCHAR
STARTCHAR 991
ENCODING 42596
SWIDTH 1024 0
DWIDTH 16 0
BBX 15 14 0 -1
BITMAP
1008
11fc
1000
fe04
13fe
1080
1080
11fc
1e04
f004
4004
0044
0028
0010
ENDCHAR
STARTCHAR 992
ENCODING 42597
SWIDTH 1024 0
DWIDTH 16 0
BBX 15 14 0 -1
BITMAP
1000
1008
13fc
1208
1208
fe08
1208
13f8
1208
1e00
f200
4202
0202
01fe
ENDCHAR
STARTCHAR 993
ENCODING 42598
SWIDTH 1024 0
DWIDTH 16 0
BBX 15 14 0 -1
BITMAP
1000
1008
11fc
1020
fe20
1024
13fe
1020
1e20
f020
4020
0020
00a0
0040
ENDCHAR
STARTCHAR 994
ENCODING 42599
SWIDTH 1024 0
DWIDTH 16 0
BBX 15 14 0 -1
BITMAP
0010
3ff8
2010
2fd0
2210
27d0
2450
2c50
3290
2110
2212
4412
480a
8004
ENDCHAR
STARTCHAR 995
ENCODING 42600
SWIDTH 1024 0
DWIDTH 16 0
BBX 13 14 1 -1
BITMAP
0400
0fe0
1040
3080
4b00
0500
1910
e3f8
0410
1820
6440
0380
1c00
e000
ENDCHAR
STARTCHAR 996
ENCODING 42601
SWIDTH 1024 0
DWIDTH 16 0
BBX 15 14 0 -1
BITMAP
0100
0104
fffe
0100
3ff0
0110
3ff0
2100
3ffc
0104
0298
0c40
3030
c00e
ENDCHAR
STARTCHAR 997
ENCODING 42602
SWIDTH 1024 0
DWIDTH 16 0
BBX 15 14 0 -1
BITMAP
0200
0208
7ffc
0440
0820
37d8
c006
3ff8
0400
0fe0
0020
0020
0040
0380
ENDCHAR
STARTCHAR 998
ENCODING 42603
SWIDTH 1024 0
DWIDTH 16 0
BBX 15 14 0 -1
BITMAP
0200
0108
7ffc
1000
1020
1ff0
0200
fffe
0420
0820
0440
0380
0460
3818
ENDCHAR
STARTCHAR 999
ENCODING 42604
SWIDTH 1024 0
DWIDTH 16 0
BBX 15 14 0 -1
BITMAP
1008
11fc
1020
fc20
2424
27fe
2420
4420
2820
1020
2820
4420
8420
0020
ENDCHAR
STARTCHAR 1000
ENCODING 42605
SWIDTH 1024 0
DWIDTH 16 0
BBX 15 14 0 -1
BITMAP
2000
2008
21fc
2008
fc08
2408
25f8
2508
4500
2900
1100
2902
4502
84fe
ENDCHAR
STARTCHAR 1001
ENCODING 42606
SWIDTH 1024 0
DWIDTH 16 0
BBX 15 14 0 -1
BITMAP
11fc
1004
1008
fc10
2420
2424
27fe
4420
2820
1020
2820
4420
84a0
0040
ENDCHAR
STARTCHAR 1002
ENCODING 42607
SWIDTH 1024 0
DWIDTH 16 0
BBX 15 14 0 -1
BITMAP
1020
1020
1020
fd24
253e
25e4
2724
4524
2928
1120
1120
2922
4502
84fe
ENDCHAR
STARTCHAR 1003
ENCODING 42608
SWIDTH 1024 0
DWIDTH 16 0
BBX 15 14 0 -1
BITMAP
1000
1000
1004
fefe
2284
2284
2284
4284
2484
1484
0884
14fc
2284
4000
ENDCHAR
STARTCHAR 1004
ENCODING 42609
SWIDTH 1024 0
DWIDTH 16 0
BBX 15 14 0 -1
BITMAP
1080
1084
10fe
fd04
2604
2484
2444
4444
2804
1004
2804
4444
8428
0010
ENDCHAR
STARTCHAR 1005
ENCODING 42610
SWIDTH 1024 0
DWIDTH 16 0
BBX 15 14 0 -1
BITMAP
0200
0100
3ffc
2004
4048
1fe0
0080
0104
fffe
0100
0100
0100
0500
0200
ENDCHAR
STARTCHAR 1006
ENCODING 42611
SWIDTH 1024 0
DWIDTH 16 0
BBX 15 14 0 -1
BITMAP
0200
0204
fffe
0400
0bf8
1010
1020
3044
5ffe
9040
1040
1040
1140
1080
ENDCHAR
STARTCHAR 1007
ENCODING 42612
SWIDTH 1024 0
DWIDTH 16 0
BBX 15 14 0 -1
BITMAP
0200
0100
7ffe
4002
8024
1ff0
0100
0108
7ffc
0100
0100
0100
0500
0200
ENDCHAR
STARTCHAR 1008
ENCODING 42613
SWIDTH 1024 0
DWIDTH 16 0
BBX 15 14 0 -1
BITMAP
0200
0100
7ffe
4002
8024
0024
7ffe
0020
0820
0420
0420
0020
00a0
0040
ENDCHAR
STARTCHAR 1009
ENCODING 42614
SWIDTH 1024 0
DWIDTH 16 0
BBX 15 14 0 -1
BITMAP
0200
7ffe
4004
8068
0180
3e00
0200
0208
03fc
7e00
0200
0202
0202
01fe
ENDCHAR
STARTCHAR 1010
ENCODING 42615
SWIDTH 1024 0
DWIDTH 16 0
BBX 15 14 0 -1
BITMAP
0100
3ffc
2004
4208
0200
fffe
0420
0820
1840
0640
0180
0240
0c30
3010
ENDCHAR
STARTCHAR 1011
ENCODING 42616
SWIDTH 1024 0
DWIDTH 16 0
BBX 13 14 1 -1
BITMAP
0200
0210
fff8
0200
0220
7ff0
0040
fff8
1040
0840
0840
0040
0140
0080
ENDCHAR
STARTCHAR 1012
ENCODING 42617
SWIDTH 1024 0
DWIDTH 16 0
BBX 15 14 0 -1
BITMAP
0100
0920
0d10
1118
2108
0000
0104
fffe
0100
0280
0440
0830
300e
c004
ENDCHAR
STARTCHAR 1013
ENCODING 42618
SWIDTH 1024 0
DWIDTH 16 0
BBX 15 14 0 -1
BITMAP
2080
2084
20fe
a900
aa00
a9f8
a808
a810
a820
a840
a882
f902
8902
00fe
ENDCHAR
STARTCHAR 1014
ENCODING 42619
SWIDTH 1024 0
DWIDTH 16 0
BBX 14 14 0 -1
BITMAP
1004
1084
1084
1084
1084
f7bc
1084
1084
1084
1084
2084
2084
4004
0004
ENDCHAR
STARTCHAR 1015
ENCODING 42620
SWIDTH 1024 0
DWIDTH 16 0
BBX 15 14 0 -1
BITMAP
2008
20fc
f888
a888
a8c8
a8a8
a8a8
a888
b888
a888
210a
210a
220a
2406
ENDCHAR
STARTCHAR 1016
ENCODING 42621
SWIDTH 1024 0
DWIDTH 16 0
BBX 15 14 0 -1
BITMAP
1010
0c30
0440
3ffc
0420
0420
0424
fffe
0420
0420
0820
0820
1020
2020
ENDCHAR
STARTCHAR 1017
ENCODING 42622
SWIDTH 1024 0
DWIDTH 16 0
BBX 15 14 0 -1
BITMAP
0800
0808
0ffc
1100
2110
5ff8
1100
1100
1104
fffe
0100
0100
0100
0100
ENDCHAR
STARTCHAR 1052
ENCODING 42657
SWIDTH 1024 0
DWIDTH 16 0
BBX 15 14 0 -1
BITMAP
0080
00a0
0090
0084
fffe
0080
3e80
0880
0840
0820
0f22
7012
200a
0004
ENDCHAR
STARTCHAR 1053
ENCODING 42658
SWIDTH 1024 0
DWIDTH 16 0
BBX 14 14 1 -1
BITMAP
f840
1240
1240
1248
f27c
83c8
8e48
8248
f250
1240
1244
1204
a1fc
4000
ENDCHAR
STARTCHAR 1054
ENCODING 42659
SWIDTH 1024 0
DWIDTH 16 0
BBX 15 14 0 -1
BITMAP
1000
1100
10c0
1044
5ffe
5a00
5200
9200
1200
1200
1200
1200
11fe
1000
ENDCHAR
STARTCHAR 1055
ENCODING 42660
SWIDTH 1024 0
DWIDTH 16 0
BBX 15 14 0 -1
BITMAP
1010
1010
1014
5bfe
5410
5010
9110
1090
1090
1010
1010
1010
1050
1020
ENDCHAR
STARTCHAR 1056
ENCODING 42661
SWIDTH 1024 0
DWIDTH 16 0
BBX 15 14 0 -1
BITMAP
0080
00a0
0090
fffc
0080
1080
1088
7e90
1090
1060
20a0
2312
4c0a
0006
ENDCHAR
STARTCHAR 1057
ENCODING 42662
SWIDTH 1024 0
DWIDTH 16 0
BBX 15 14 0 -1
BITMAP
0080
0090
0088
3ffe
2080
2084
2444
3e48
2048
2030
4060
4092
830a
0006
ENDCHAR
STARTCHAR 1058
ENCODING 42663
SWIDTH 1024 0
DWIDTH 16 0
BBX 15 14 0 -1
BITMAP
0080
00a0
0090
3ffc
2080
2088
2848
2650
2250
2060
2090
2312
4c0a
8006
ENDCHAR
STARTCHAR 1059
ENCODING 42664
SWIDTH 1024 0
DWIDTH 16 0
BBX 15 14 0 -1
BITMAP
0080
00a0
0090
3ffc
2080
2084
3e44
2248
2230
2a20
2462
4092
810a
0006
ENDCHAR
STARTCHAR 1060
ENCODING 42665
SWIDTH 1024 0
DWIDTH 16 0
BBX 15 14 0 -1
BITMAP
0800
0800
0804
fefe
0884
0a84
0c84
1884
e884
0884
08fc
0884
2800
1000
ENDCHAR
STARTCHAR 1061
ENCODING 42666
SWIDTH 1024 0
DWIDTH 16 0
BBX 15 14 0 -1
BITMAP
1000
1008
13fc
fc40
1040
1440
1840
3040
d040
1040
1044
1ffe
5000
2000
ENDCHAR
STARTCHAR 1062
ENCODING 42667
SWIDTH 1024 0
DWIDTH 16 0
BBX 15 14 0 -1
BITMAP
1010
1038
17c0
1040
fc40
1440
1844
37fe
d040
1040
1040
1042
5042
203e
ENDCHAR
STARTCHAR 1063
ENCODING 42668
SWIDTH 1024 0
DWIDTH 16 0
BBX 15 14 0 -1
BITMAP
0880
0880
8884
88fe
8908
8988
8a88
8850
f850
8820
0850
0888
090e
0e04
ENDCHAR
STARTCHAR 1064
ENCODING 42669
SWIDTH 1024 0
DWIDTH 16 0
BBX 15 14 0 -1
BITMAP
0010
1ff8
1010
1ff0
1010
1ff0
1110
0104
fffe
0100
0100
0100
0100
0100
ENDCHAR
STARTCHAR 1065
ENCODING 42670
SWIDTH 1024 0
DWIDTH 16 0
BBX 12 14 2 -1
BITMAP
8000
8000
ffc0
8000
8000
7ff0
0000
7fc0
4040
4040
7fc0
4040
4040
7fc0
ENDCHAR
STARTCHAR 1066
ENCODING 42671
SWIDTH 1024 0
DWIDTH 16 0
BBX 15 14 0 -1
BITMAP
0800
0804
0ffe
1004
1044
2fe4
8844
0fc4
0844
0844
0fc4
0004
0028
0010
ENDCHAR
STARTCHAR 1067
ENCODING 42672
SWIDTH 1024 0
DWIDTH 16 0
BBX 15 14 0 -1
BITMAP
1000
1008
10fc
fe88
1288
1288
12f8
1288
1288
1288
22fa
2202
4202
81fe
ENDCHAR
STARTCHAR 1068
ENCODING 42673
SWIDTH 1024 0
DWIDTH 16 0
BBX 14 14 1 -1
BITMAP
0880
0880
0888
fffc
8888
8888
8888
fff8
8888
8888
8888
8888
fff8
8008
ENDCHAR
STARTCHAR 1069
ENCODING 42674
SWIDTH 1024 0
DWIDTH 16 0
BBX 15 14 0 -1
BITMAP
0200
0210
3ff8
2210
3ff0
2210
3ff0
2210
0120
01c0
0682
1842
e032
000e
ENDCHAR
STARTCHAR 1070
ENCODING 42675
SWIDTH 1024 0
DWIDTH 16 0
BBX 15 14 0 -1
BITMAP
0200
0204
fffe
0400
0410
0ff8
1810
2ff0
4810
0ff0
0810
0810
0850
1020
ENDCHAR
STARTCHAR 1071
ENCODING 42676
SWIDTH 1024 0
DWIDTH 16 0
BBX 15 14 0 -1
BITMAP
1000
1004
17fe
1080
fc80
3108
39fc
5408
5008
9008
1008
1088
1050
1020
ENDCHAR
STARTCHAR 1072
ENCODING 42677
SWIDTH 1024 0
DWIDTH 16 0
BBX 15 14 0 -1
BITMAP
1020
1020
1020
fe20
1030
302c
3826
5422
5220
9020
1020
1020
1020
1020
ENDCHAR
STARTCHAR 1073
ENCODING 42678
SWIDTH 1024 0
DWIDTH 16 0
BBX 15 14 0 -1
BITMAP
1100
1110
1ff8
2100
0104
fffe
0300
0580
0940
1130
210e
c104
0100
0100
ENDCHAR
STARTCHAR 1074
ENCODING 42679
SWIDTH 1024 0
DWIDTH 16 0
BBX 15 14 0 -1
BITMAP
1fe0
0820
1020
2020
413e
0100
0104
fffe
0540
0920
1110
610c
0100
0100
ENDCHAR
STARTCHAR 1075
ENCODING 42680
SWIDTH 1024 0
DWIDTH 16 0
BBX 15 14 0 -1
BITMAP
0080
0080
0104
f9fe
0204
0248
0440
0040
f8a0
00a0
0110
0108
020e
0404
ENDCHAR
STARTCHAR 1076
ENCODING 42681
SWIDTH 1024 0
DWIDTH 16 0
BBX 15 14 0 -1
BITMAP
0440
0440
2440
2440
2440
277e
2440
2440
2440
2440
2440
2742
f842
403e
ENDCHAR
STARTCHAR 1077
ENCODING 42682
SWIDTH 1024 0
DWIDTH 16 0
BBX 15 14 0 -1
BITMAP
0004
fffe
0840
1040
1f40
217e
2140
6240
9240
0c40
0842
1042
203e
4000
ENDCHAR
STARTCHAR 1078
ENCODING 42683
SWIDTH 1024 0
DWIDTH 16 0
BBX 15 14 0 -1
BITMAP
1000
1ffc
1000
2ff8
4000
9ff8
0008
7f88
0908
0be8
102a
102a
214a
4084
ENDCHAR
STARTCHAR 1079
ENCODING 42684
SWIDTH 1024 0
DWIDTH 16 0
BBX 15 14 0 -1
BITMAP
8080
6080
2080
0080
8ffe
6108
2208
0410
1210
2120
c0c0
4120
4218
4c08
ENDCHAR
STARTCHAR 1080
ENCODING 42685
SWIDTH 1024 0
DWIDTH 16 0
BBX 15 14 0 -1
BITMAP
8008
67fc
2040
0040
8040
6040
2844
0ffe
1040
e040
2040
2040
2040
2040
ENDCHAR
STARTCHAR 1081
ENCODING 42686
SWIDTH 1024 0
DWIDTH 16 0
BBX 15 14 0 -1
BITMAP
8008
67fc
2040
0040
8044
6ffe
2040
0840
1040
e040
2040
2240
2140
2080
ENDCHAR
STARTCHAR 1082
ENCODING 42687
SWIDTH 1024 0
DWIDTH 16 0
BBX 15 14 0 -1
BITMAP
4000
3008
17fc
8040
6040
2840
0840
1040
e040
2040
2044
2ffe
2000
2000
ENDCHAR
STARTCHAR 1083
ENCODING 42688
SWIDTH 1024 0
DWIDTH 16 0
BBX 15 14 0 -1
BITMAP
4040
3240
1248
827c
63c8
2e48
1250
2240
e240
2240
2242
2202
21fe
2000
ENDCHAR
STARTCHAR 1084
ENCODING 42689
SWIDTH 1024 0
DWIDTH 16 0
BBX 15 14 0 -1
BITMAP
1880
0884
00fe
8104
6104
2204
0b08
14c8
2050
e020
2040
2080
2100
2200
ENDCHAR
STARTCHAR 1085
ENCODING 42690
SWIDTH 1024 0
DWIDTH 16 0
BBX 14 14 0 -1
BITMAP
0040
4040
3040
1040
8444
6444
2444
1444
2444
e444
2444
2444
27fc
2404
ENDCHAR
STARTCHAR 1086
ENCODING 42691
SWIDTH 1024 0
DWIDTH 16 0
BBX 15 14 0 -1
BITMAP
4000
33f8
1000
8004
6ffe
2100
0900
1108
23fc
e008
2008
2008
2010
20e0
ENDCHAR
STARTCHAR 1087
ENCODING 42692
SWIDTH 1024 0
DWIDTH 16 0
BBX 15 14 0 -1
BITMAP
47f8
3110
1110
8110
6110
2110
0bf0
1110
2110
e112
2112
2112
210a
2106
ENDCHAR
STARTCHAR 1088
ENCODING 42693
SWIDTH 1024 0
DWIDTH 16 0
BBX 15 14 0 -1
BITMAP
8100
6100
2110
0ff8
0110
8110
6190
21d0
0150
1110
2112
c212
4412
581e
ENDCHAR
STARTCHAR 1089
ENCODING 42694
SWIDTH 1024 0
DWIDTH 16 0
BBX 15 14 0 -1
BITMAP
43f0
3210
1210
0210
8210
6310
2290
0250
0a10
1210
2212
c212
4412
581e
ENDCHAR
STARTCHAR 1090
ENCODING 42695
SWIDTH 1024 0
DWIDTH 16 0
BBX 15 14 0 -1
BITMAP
0400
0404
fffe
0480
0888
0c98
12a0
1080
2140
4140
8220
0410
080e
3004
ENDCHAR
STARTCHAR 1091
ENCODING 42696
SWIDTH 1024 0
DWIDTH 16 0
BBX 15 14 0 -1
BITMAP
0200
0420
0810
3ff8
0108
1110
1ff8
2100
4100
0104
fffe
0100
0100
0100
ENDCHAR
STARTCHAR 1092
ENCODING 42697
SWIDTH 1024 0
DWIDTH 16 0
BBX 15 14 0 -1
BITMAP
0880
2880
2884
3e8c
4890
48a0
88c0
0e80
1880
6880
0882
0882
087e
0800
ENDCHAR
STARTCHAR 1093
ENCODING 42698
SWIDTH 1024 0
DWIDTH 16 0
BBX 15 14 0 -1
BITMAP
0004
fffe
0100
0200
0408
3ffc
2008
2008
3ff8
2008
2008
2008
3ff8
2008
ENDCHAR
STARTCHAR 1094
ENCODING 42699
SWIDTH 1024 0
DWIDTH 16 0
BBX 15 14 0 -1
BITMAP
1040
1040
1244
1f7e
2890
4910
8a10
0810
0810
0810
0810
0810
0850
0820
ENDCHAR
STARTCHAR 1095
ENCODING 42700
SWIDTH 1024 0
DWIDTH 16 0
BBX 15 14 0 -1
BITMAP
2108
1918
0d20
0540
0104
fffe
0100
0540
0920
1110
210e
c104
0100
0100
ENDCHAR
STARTCHAR 1096
ENCODING 42701
SWIDTH 1024 0
DWIDTH 16 0
BBX 12 14 1 -1
BITMAP
0600
0820
1060
2080
7f00
0200
0440
0820
7ff0
0210
3240
4230
8210
0200
ENDCHAR
STARTCHAR 1097
ENCODING 42702
SWIDTH 1024 0
DWIDTH 16 0
BBX 15 14 0 -1
BITMAP
0800
0810
1ff8
1100
2100
4100
0104
fffe
0100
2108
2108
2108
3ff8
2008
ENDCHAR
STARTCHAR 1098
ENCODING 42703
SWIDTH 1024 0
DWIDTH 16 0
BBX 15 14 0 -1
BITMAP
0820
0440
0288
7ffc
0100
0110
3ff8
0100
0100
0104
fffe
0100
0100
0100
ENDCHAR
STARTCHAR 1099
ENCODING 42704
SWIDTH 1024 0
DWIDTH 16 0
BBX 14 14 1 -1
BITMAP
0008
fdfc
0408
4488
2448
2448
0408
1428
2448
c588
4488
0408
2850
1020
ENDCHAR
STARTCHAR 1100
ENCODING 42705
SWIDTH 1024 0
DWIDTH 16 0
BBX 15 14 0 -1
BITMAP
0200
0208
3fd8
0220
0244
fffe
0100
0600
0c00
17f8
2400
4400
8400
03fc
ENDCHAR
STARTCHAR 1101
ENCODING 42706
SWIDTH 1024 0
DWIDTH 16 0
BBX 15 14 0 -1
BITMAP
0210
3fe0
0240
0284
fffe
0400
0ff8
1200
27f0
4010
8010
0220
0120
00c0
ENDCHAR
STARTCHAR 1102
ENCODING 42707
SWIDTH 1024 0
DWIDTH 16 0
BBX 15 14 0 -1
BITMAP
0004
fffe
0200
0404
7ffe
4444
4444
4444
4444
4444
4444
4444
4454
4008
ENDCHAR
STARTCHAR 1103
ENCODING 42708
SWIDTH 1024 0
DWIDTH 16 0
BBX 15 14 0 -1
BITMAP
0110
01e0
7f00
0100
3ff8
0100
0104
fffe
0540
0920
1110
210e
4104
0100
ENDCHAR
STARTCHAR 1104
ENCODING 42709
SWIDTH 1024 0
DWIDTH 16 0
BBX 15 14 0 -1
BITMAP
7ffc
0820
0820
0fe0
0820
0820
0fe0
0820
0824
fffe
0020
0020
0020
0020
ENDCHAR
STARTCHAR 1105
ENCODING 42710
SWIDTH 1024 0
DWIDTH 16 0
BBX 15 14 0 -1
BITMAP
0100
3ffc
0108
fffe
0108
3ff8
0100
7ffc
0100
0104
fffe
0100
0100
0100
ENDCHAR
STARTCHAR 1106
ENCODING 42711
SWIDTH 1024 0
DWIDTH 16 0
BBX 14 14 1 -1
BITMAP
0200
0208
fffc
8208
8208
8508
88c8
9248
8208
8508
88c8
9048
8028
8010
ENDCHAR
STARTCHAR 1107
ENCODING 42712
SWIDTH 1024 0
DWIDTH 16 0
BBX 15 14 0 -1
BITMAP
0220
3f20
2220
2224
3efe
2224
2224
3e24
2224
2244
2244
2284
4b28
8410
ENDCHAR
STARTCHAR 1108
ENCODING 42713
SWIDTH 1024 0
DWIDTH 16 0
BBX 15 14 0 -1
BITMAP
0400
3e08
24fc
2488
3c88
2488
2488
3c88
2488
2488
248a
248a
4d0a
8606
ENDCHAR
STARTCHAR 1109
ENCODING 42714
SWIDTH 1024 0
DWIDTH 16 0
BBX 14 14 0 -1
BITMAP
0008
fffc
4100
4100
4108
7ffc
4008
4008
7ff8
4108
4100
4100
4108
7ffc
ENDCHAR
STARTCHAR 1110
ENCODING 42715
SWIDTH 1024 0
DWIDTH 16 0
BBX 12 14 2 -1
BITMAP
0800
1000
2020
fff0
8020
8020
ffe0
8020
8020
ffe0
8020
8020
ffe0
8020
ENDCHAR
STARTCHAR 1111
ENCODING 42716
SWIDTH 1024 0
DWIDTH 16 0
BBX 15 14 0 -1
BITMAP
7ffc
0200
0400
0820
1010
3ff8
0108
0100
0110
3ff8
0100
0100
0104
fffe
ENDCHAR
STARTCHAR 1112
ENCODING 42717
SWIDTH 1024 0
DWIDTH 16 0
BBX 14 14 1 -1
BITMAP
0400
0e00
b008
c1fc
8008
8008
8808
fdf8
8008
8008
8008
8008
fff8
8008
ENDCHAR
STARTCHAR 1113
ENCODING 42718
SWIDTH 1024 0
DWIDTH 16 0
BBX 15 13 0 -1
BITMAP
1ff0
0100
0104
fffe
0100
0108
3ffc
2008
2008
2008
2008
3ff8
2008
ENDCHAR
STARTCHAR 1114
ENCODING 42719
SWIDTH 1024 0
DWIDTH 16 0
BBX 15 14 0 -1
BITMAP
0010
1010
1010
1efe
2290
2290
2290
5490
8c90
08fe
1010
2010
c010
0010
ENDCHAR
STARTCHAR 1115
ENCODING 42720
SWIDTH 1024 0
DWIDTH 16 0
BBX 15 14 0 -1
BITMAP
0200
0410
1ff8
1010
1210
1110
fffe
1010
1210
1110
1110
1010
4050
0020
ENDCHAR
STARTCHAR 1116
ENCODING 42721
SWIDTH 1024 0
DWIDTH 16 0
BBX 13 14 2 -1
BITMAP
0080
ffc0
8080
ff80
8080
ff80
9000
9080
8900
8600
8100
a088
c070
8010
ENDCHAR
STARTCHAR 1117
ENCODING 42722
SWIDTH 1024 0
DWIDTH 16 0
BBX 15 14 0 -1
BITMAP
0800
0ff0
1020
2048
5ffc
9088
1088
1088
1ff8
1008
1000
1002
1002
0ffe
ENDCHAR
STARTCHAR 1118
ENCODING 42723
SWIDTH 1024 0
DWIDTH 16 0
BBX 15 14 0 -1
BITMAP
0820
0824
fefe
0820
0000
0820
0440
0440
0280
0100
0280
0c70
300e
c004
ENDCHAR
STARTCHAR 1119
ENCODING 42724
SWIDTH 1024 0
DWIDTH 16 0
BBX 13 14 1 -1
BITMAP
0200
0200
0210
7ff8
4210
4210
4210
7ff0
4210
0220
0210
03f8
fc08
4008
ENDCHAR
STARTCHAR 1120
ENCODING 42725
SWIDTH 1024 0
DWIDTH 16 0
BBX 15 13 0 0
BITMAP
0100
0200
0400
0808
3ffc
2448
2448
2448
2448
2448
2448
2448
fffe
ENDCHAR
STARTCHAR 1121
ENCODING 42726
SWIDTH 1024 0
DWIDTH 16 0
BBX 15 14 0 -1
BITMAP
1008
13fc
2000
4800
0804
17fe
3010
5010
9010
1010
1010
1010
1050
1020
ENDCHAR
STARTCHAR 1122
ENCODING 42727
SWIDTH 1024 0
DWIDTH 16 0
BBX 15 14 0 -1
BITMAP
0200
0104
fffe
0200
0510
0920
18c0
2880
4840
8820
0910
0a0e
0c04
0800
ENDCHAR
STARTCHAR 1123
ENCODING 42728
SWIDTH 1024 0
DWIDTH 16 0
BBX 15 14 0 -1
BITMAP
0004
fffe
0440
0440
0444
7ffe
4444
4444
4444
483c
5004
4004
7ffc
4004
ENDCHAR
STARTCHAR 1124
ENCODING 42729
SWIDTH 1024 0
DWIDTH 16 0
BBX 15 14 0 -1
BITMAP
0008
fc1c
85e0
8820
b020
9024
8bfe
8820
8820
c820
b020
8020
8020
8020
ENDCHAR
STARTCHAR 1125
ENCODING 42730
SWIDTH 1024 0
DWIDTH 16 0
BBX 14 14 1 -1
BITMAP
0200
0210
7ff8
4210
4210
7ff0
0200
fffc
8208
8208
fff8
0200
0200
0200
ENDCHAR
STARTCHAR 1126
ENCODING 42731
SWIDTH 1024 0
DWIDTH 16 0
BBX 14 14 0 -1
BITMAP
0200
0108
fffc
0000
1ff0
1010
1ff0
0000
7ff8
0060
0080
0880
0480
0300
ENDCHAR
STARTCHAR 1127
ENCODING 42732
SWIDTH 1024 0
DWIDTH 16 0
BBX 15 14 0 -1
BITMAP
0900
08c0
1040
17fc
3000
5208
9208
1210
1110
1120
1044
1ffe
1000
1000
ENDCHAR
STARTCHAR 1128
ENCODING 42733
SWIDTH 1024 0
DWIDTH 16 0
BBX 15 14 0 -1
BITMAP
0880
0840
0844
17fe
3040
5040
9048
17fc
1040
1040
1040
1044
1ffe
1000
ENDCHAR
STARTCHAR 1129
ENCODING 42734
SWIDTH 1024 0
DWIDTH 16 0
BBX 15 14 0 -1
BITMAP
1080
1040
27fe
c802
2802
27fc
2040
2040
2040
2040
2040
2240
2140
2080
ENDCHAR
STARTCHAR 1130
ENCODING 42735
SWIDTH 1024 0
DWIDTH 16 0
BBX 15 14 0 -1
BITMAP
0840
0844
17fe
1404
3908
5100
9108
1118
1120
1140
1182
1102
1102
10fe
ENDCHAR
STARTCHAR 1131
ENCODING 42736
SWIDTH 1024 0
DWIDTH 16 0
BBX 15 14 0 -1
BITMAP
0bf8
0800
1008
17fc
3080
5084
9ffe
1110
1210
11a0
1040
10a0
1118
1604
ENDCHAR
STARTCHAR 1132
ENCODING 42737
SWIDTH 1024 0
DWIDTH 16 0
BBX 15 14 0 -1
BITMAP
0840
0a44
0948
1040
27fc
3040
5040
9044
1ffe
1040
1040
1040
1040
1040
ENDCHAR
STARTCHAR 1133
ENCODING 42738
SWIDTH 1024 0
DWIDTH 16 0
BBX 15 14 0 -1
BITMAP
1090
1090
27fe
2092
6092
a7fe
2492
2490
27fe
2092
2092
2114
2210
2410
ENDCHAR
STARTCHAR 1134
ENCODING 42739
SWIDTH 1024 0
DWIDTH 16 0
BBX 15 14 0 -1
BITMAP
0800
0804
0ffe
1008
1008
33c8
5248
9248
1248
13c8
1248
1008
1028
1010
ENDCHAR
STARTCHAR 1135
ENCODING 42740
SWIDTH 1024 0
DWIDTH 16 0
BBX 15 14 0 -1
BITMAP
0840
0840
1044
1ffe
3040
5040
9048
13fc
1208
1208
1208
1208
13f8
1208
ENDCHAR
STARTCHAR 1136
ENCODING 42741
SWIDTH 1024 0
DWIDTH 16 0
BBX 15 14 0 -1
BITMAP
0880
0884
17fe
1080
3080
5100
9108
11fc
1220
1420
1820
1024
17fe
1000
ENDCHAR
STARTCHAR 1137
ENCODING 42742
SWIDTH 1024 0
DWIDTH 16 0
BBX 15 14 0 -1
BITMAP
0880
0880
1084
1ffe
3100
5100
9208
13fc
1508
1908
1108
1108
11f8
1108
ENDCHAR
STARTCHAR 1138
ENCODING 42743
SWIDTH 1024 0
DWIDTH 16 0
BBX 15 14 0 -1
BITMAP
1400
1404
243e
3fa4
64a4
a4a4
24a4
24a4
24a4
24a4
28a4
28bc
32a4
2100
ENDCHAR
STARTCHAR 1139
ENCODING 42744
SWIDTH 1024 0
DWIDTH 16 0
BBX 15 14 0 -1
BITMAP
0804
0bfe
0804
1024
37f4
5004
93e4
1224
1224
1224
13e4
1204
1014
1008
ENDCHAR
STARTCHAR 1140
ENCODING 42745
SWIDTH 1024 0
DWIDTH 16 0
BBX 15 14 0 -1
BITMAP
0840
0840
0844
17fe
3444
5444
97fc
1444
1444
17fc
1444
1040
1040
1040
ENDCHAR
STARTCHAR 1141
ENCODING 42746
SWIDTH 1024 0
DWIDTH 16 0
BBX 15 14 0 -1
BITMAP
1000
1000
1004
27fe
2444
6444
a444
27fc
2444
2444
2444
27fc
2404
2000
ENDCHAR
STARTCHAR 1142
ENCODING 42747
SWIDTH 1024 0
DWIDTH 16 0
BBX 15 14 0 -1
BITMAP
1040
1040
2040
407c
a040
2040
2044
23fe
2204
2204
2204
2204
23fc
2204
ENDCHAR
STARTCHAR 1143
ENCODING 42748
SWIDTH 1024 0
DWIDTH 16 0
BBX 15 14 0 -1
BITMAP
1000
1008
1008
2408
2408
6508
a488
2448
2450
2520
2628
2446
2882
2100
ENDCHAR
STARTCHAR 1144
ENCODING 42749
SWIDTH 1024 0
DWIDTH 16 0
BBX 15 14 0 -1
BITMAP
1000
1000
1008
27fc
6408
a408
27f8
2408
2408
27f8
2000
2004
3ffe
2000
ENDCHAR
STARTCHAR 1145
ENCODING 42750
SWIDTH 1024 0
DWIDTH 16 0
BBX 15 14 0 -1
BITMAP
1004
17fe
1444
2444
67fc
a444
2444
2444
27fc
2444
2444
2444
2854
3008
ENDCHAR
STARTCHAR 1146
ENCODING 42816
SWIDTH 1024 0
DWIDTH 16 0
BBX 15 14 0 -1
BITMAP
0900
0904
11fe
1280
3280
5488
98fc
1080
1080
1084
10fe
1080
1080
1080
ENDCHAR
STARTCHAR 1147
ENCODING 42817
SWIDTH 1024 0
DWIDTH 16 0
BBX 15 14 0 -1
BITMAP
1100
1104
23fe
2204
6408
a840
2040
2150
2148
224c
2444
2040
2140
2080
ENDCHAR
STARTCHAR 1148
ENCODING 42818
SWIDTH 1024 0
DWIDTH 16 0
BBX 15 14 0 -1
BITMAP
0840
0884
11fe
1104
3104
5104
9104
11fc
1104
1104
1104
1104
11fc
1104
ENDCHAR
STARTCHAR 1149
ENCODING 42819
SWIDTH 1024 0
DWIDTH 16 0
BBX 15 14 0 -1
BITMAP
1008
103c
13e0
2220
6220
a224
23fe
2220
2220
2210
2292
270a
220a
21e6
ENDCHAR
STARTCHAR 1150
ENCODING 42820
SWIDTH 1024 0
DWIDTH 16 0
BBX 15 14 0 -1
BITMAP
0840
08a0
10a0
1110
3208
55ee
9804
1000
13f8
1008
1010
10a0
1040
1020
ENDCHAR
STARTCHAR 1151
ENCODING 42821
SWIDTH 1024 0
DWIDTH 16 0
BBX 15 14 0 -1
BITMAP
0100
0280
0440
0820
1010
2fee
c104
0110
3ff8
0920
1918
210c
4504
0200
ENDCHAR
STARTCHAR 1152
ENCODING 42822
SWIDTH 1024 0
DWIDTH 16 0
BBX 15 14 0 -1
BITMAP
0900
0904
13fe
1204
3424
5bf4
9224
1224
1224
13e4
1224
1004
1028
1010
ENDCHAR
STARTCHAR 1153
ENCODING 42823
SWIDTH 1024 0
DWIDTH 16 0
BBX 15 14 0 -1
BITMAP
2080
2080
2ffe
4080
8140
4240
47fc
4c44
5444
4444
4454
4448
4040
4040
ENDCHAR
STARTCHAR 1154
ENCODING 42824
SWIDTH 1024 0
DWIDTH 16 0
BBX 15 14 0 -1
BITMAP
0840
0940
1148
11fc
3240
5440
9044
1ffe
1040
10a0
1110
1110
120e
1404
ENDCHAR
STARTCHAR 1155
ENCODING 42825
SWIDTH 1024 0
DWIDTH 16 0
BBX 15 14 0 -1
BITMAP
0040
1020
3018
600c
bff4
2010
2010
3ff0
2450
0440
0842
0842
1042
e03e
ENDCHAR
STARTCHAR 1156
ENCODING 42826
SWIDTH 1024 0
DWIDTH 16 0
BBX 15 14 0 -1
BITMAP
0100
0104
fffe
0100
0100
3ff8
2008
2008
3ff8
0440
0440
0842
1042
e03e
ENDCHAR
STARTCHAR 1157
ENCODING 42827
SWIDTH 1024 0
DWIDTH 16 0
BBX 15 14 0 -1
BITMAP
0800
1fe0
1040
2088
7ffc
a108
2108
3ff8
2188
0280
0480
0882
3082
c07e
ENDCHAR
STARTCHAR 1158
ENCODING 42828
SWIDTH 1024 0
DWIDTH 16 0
BBX 15 14 0 -1
BITMAP
0020
00f0
0f00
0800
0800
0ffc
0840
0840
0844
fffe
0440
0c30
1018
2008
ENDCHAR
STARTCHAR 1159
ENCODING 42829
SWIDTH 1024 0
DWIDTH 16 0
BBX 14 14 0 -1
BITMAP
4040
3080
1080
0110
0208
0ffc
1004
2000
e7f8
2408
2408
2408
27f8
2408
ENDCHAR
STARTCHAR 1160
ENCODING 42830
SWIDTH 1024 0
DWIDTH 16 0
BBX 15 14 0 -1
BITMAP
0040
40a0
30a0
1110
0208
05ee
0804
0000
13f8
e008
2010
20a0
2040
0020
ENDCHAR
STARTCHAR 1161
ENCODING 42831
SWIDTH 1024 0
DWIDTH 16 0
BBX 13 14 1 -1
BITMAP
0208
7f08
4248
4248
7e48
5048
1248
1f48
1248
1248
2248
4208
9428
0810
ENDCHAR
STARTCHAR 1162
ENCODING 42832
SWIDTH 1024 0
DWIDTH 16 0
BBX 14 14 0 -1
BITMAP
0404
4444
34c4
1524
0424
7fa4
0424
0424
ffa4
0424
0424
0804
1014
2008
ENDCHAR
STARTCHAR 1163
ENCODING 42833
SWIDTH 1024 0
DWIDTH 16 0
BBX 14 14 0 -1
BITMAP
0104
0784
7c04
0424
0424
ffa4
0c24
0e24
15a4
14a4
2424
4404
0414
0408
ENDCHAR
STARTCHAR 1164
ENCODING 42834
SWIDTH 1024 0
DWIDTH 16 0
BBX 14 14 0 -1
BITMAP
7fc4
4a44
4a44
4a54
4a54
4a54
fff4
4a54
4a54
4a54
4a44
4a44
4a54
4088
ENDCHAR
STARTCHAR 1165
ENCODING 42835
SWIDTH 1024 0
DWIDTH 16 0
BBX 15 14 0 -1
BITMAP
2002
2082
3fd2
4092
bc92
2492
2492
3c92
2292
2112
2042
2042
204a
1fc4
ENDCHAR
STARTCHAR 1166
ENCODING 42836
SWIDTH 1024 0
DWIDTH 16 0
BBX 15 14 0 -1
BITMAP
0820
0820
7f20
0824
08fe
0824
ffa4
1024
1444
2244
7e84
2284
0128
0210
ENDCHAR
STARTCHAR 1167
ENCODING 42837
SWIDTH 1024 0
DWIDTH 16 0
BBX 15 14 0 -1
BITMAP
0220
3f20
2224
23fe
3e24
2224
2224
3e24
2244
2244
2f44
f084
4128
0210
ENDCHAR
STARTCHAR 1168
ENCODING 42838
SWIDTH 1024 0
DWIDTH 16 0
BBX 15 14 0 -1
BITMAP
1000
fefc
2284
2448
6430
1820
1450
628e
0204
3ff8
0208
0408
1850
6020
ENDCHAR
STARTCHAR 1169
ENCODING 42839
SWIDTH 1024 0
DWIDTH 16 0
BBX 15 14 0 -1
BITMAP
2020
2220
7f20
8224
42fe
7a24
4a24
4a24
4a24
7a44
4244
0284
14a8
0910
ENDCHAR
STARTCHAR 1170
ENCODING 42840
SWIDTH 1024 0
DWIDTH 16 0
BBX 15 14 0 -1
BITMAP
0008
fffc
8000
9ff0
9110
9110
9ff0
9110
9110
9ff0
8100
8100
8104
fffe
ENDCHAR
STARTCHAR 1171
ENCODING 42841
SWIDTH 1024 0
DWIDTH 16 0
BBX 15 14 0 -1
BITMAP
0200
ff04
82fe
fe84
8284
fe84
8084
84a4
8494
8a88
b280
c080
0080
0080
ENDCHAR
STARTCHAR 1172
ENCODING 42842
SWIDTH 1024 0
DWIDTH 16 0
BBX 15 14 0 -1
BITMAP
0c04
70fe
4484
64a4
5494
5494
4484
5cc4
e4a8
0490
0880
1080
6080
0080
ENDCHAR
STARTCHAR 1173
ENCODING 42843
SWIDTH 1024 0
DWIDTH 16 0
BBX 15 14 0 -1
BITMAP
0200
0100
7ffc
0440
0280
0100
02c0
0c30
300e
dff4
1010
1010
1ff0
1010
ENDCHAR
STARTCHAR 1174
ENCODING 42844
SWIDTH 1024 0
DWIDTH 16 0
BBX 15 14 0 -1
BITMAP
0080
f840
8ffe
8800
8810
89f8
8910
8910
f910
8910
0110
0212
0412
080e
ENDCHAR
STARTCHAR 1175
ENCODING 42845
SWIDTH 1024 0
DWIDTH 16 0
BBX 15 14 0 -1
BITMAP
0010
3ff8
0200
0204
fffe
0440
0820
1010
2fee
4824
8820
0820
0fe0
0820
ENDCHAR
STARTCHAR 1176
ENCODING 42846
SWIDTH 1024 0
DWIDTH 16 0
BBX 15 14 0 -1
BITMAP
0008
7ffc
0400
0420
3ff0
0820
1024
fffe
0000
1ff0
1010
1010
1ff0
1010
ENDCHAR
STARTCHAR 1177
ENCODING 42847
SWIDTH 1024 0
DWIDTH 16 0
BBX 15 14 0 -1
BITMAP
0004
fffe
0080
0300
0560
0918
3106
c102
1ff0
1010
1010
1010
1ff0
1010
ENDCHAR
STARTCHAR 1178
ENCODING 42848
SWIDTH 1024 0
DWIDTH 16 0
BBX 15 14 0 -1
BITMAP
0004
f3fe
9204
9204
9204
93fc
9204
9300
f280
9240
0220
0410
0808
3006
ENDCHAR
STARTCHAR 1179
ENCODING 42849
SWIDTH 1024 0
DWIDTH 16 0
BBX 15 14 0 -1
BITMAP
0008
fbfc
8a48
8a48
8a48
8a48
8a48
8bf8
8a08
fa00
8a00
0202
0202
01fe
ENDCHAR
STARTCHAR 1180
ENCODING 42850
SWIDTH 1024 0
DWIDTH 16 0
BBX 15 14 0 -1
BITMAP
0010
1ff8
1010
1010
1ff0
1110
0104
fffe
0100
0540
0930
311c
c104
0100
ENDCHAR
STARTCHAR 1181
ENCODING 42851
SWIDTH 1024 0
DWIDTH 16 0
BBX 15 13 0 -1
BITMAP
03fe
fa00
8afc
8a84
8a84
8a84
8a84
faa8
8290
0482
0482
0882
107e
ENDCHAR
STARTCHAR 1182
ENCODING 42852
SWIDTH 1024 0
DWIDTH 16 0
BBX 13 13 1 -1
BITMAP
1fe0
1020
5020
5fe0
4000
7ff0
0410
0420
fff8
0880
1040
2038
c010
ENDCHAR
STARTCHAR 1183
ENCODING 42853
SWIDTH 1024 0
DWIDTH 16 0
BBX 15 14 0 -1
BITMAP
0010
1ff8
1010
1010
1010
1ff0
0018
00e0
1f00
0110
3ff8
0100
0104
fffe
ENDCHAR
STARTCHAR 1184
ENCODING 42854
SWIDTH 1024 0
DWIDTH 16 0
BBX 13 14 1 -1
BITMAP
0020
7ff0
4020
4020
7fe0
4220
0400
0810
fff8
8010
8010
8010
fff0
8010
ENDCHAR
STARTCHAR 1185
ENCODING 42855
SWIDTH 1024 0
DWIDTH 16 0
BBX 15 14 0 -1
BITMAP
0010
3ff8
0410
0410
fffe
0410
0410
3ff0
0800
1ff8
2808
4808
8ff8
0808
ENDCHAR
STARTCHAR 1186
ENCODING 42856
SWIDTH 1024 0
DWIDTH 16 0
BBX 15 14 0 -1
BITMAP
0020
08a0
fca0
8890
8908
890e
8a04
8df8
8888
f888
8908
0108
0228
0410
ENDCHAR
STARTCHAR 1187
ENCODING 42857
SWIDTH 1024 0
DWIDTH 16 0
BBX 15 14 0 -1
BITMAP
1100
1110
1ff8
1100
2100
0104
fffe
0010
1ff8
1010
1010
1010
1ff0
1010
ENDCHAR
STARTCHAR 1188
ENCODING 42858
SWIDTH 1024 0
DWIDTH 16 0
BBX 15 14 0 -1
BITMAP
0080
0880
fc84
89fe
8904
8a48
8a50
8c40
8840
f8a0
8890
0108
060e
1804
ENDCHAR
STARTCHAR 1189
ENCODING 42859
SWIDTH 1024 0
DWIDTH 16 0
BBX 15 14 0 -1
BITMAP
0100
f904
89fe
8aa4
8ca4
88a4
8924
8924
fa44
8444
0084
0104
0228
0010
ENDCHAR
STARTCHAR 1190
ENCODING 42860
SWIDTH 1024 0
DWIDTH 16 0
BBX 15 14 0 -1
BITMAP
0008
07fc
f908
8910
8920
89fc
8984
8a48
fa50
8c20
0450
0888
110e
0204
ENDCHAR
STARTCHAR 1191
ENCODING 42861
SWIDTH 1024 0
DWIDTH 16 0
BBX 15 14 0 -1
BITMAP
0820
fc40
8880
8908
8a04
8ffe
8892
8890
f910
8910
0212
0212
0412
080e
ENDCHAR
STARTCHAR 1192
ENCODING 42862
SWIDTH 1024 0
DWIDTH 16 0
BBX 15 14 0 -1
BITMAP
0020
0020
f020
9128
9126
9122
9220
9024
9028
9010
f020
9040
0080
0300
ENDCHAR
STARTCHAR 1193
ENCODING 42863
SWIDTH 1024 0
DWIDTH 16 0
BBX 15 14 0 -1
BITMAP
0080
0040
f044
97fe
9444
9444
9444
94a4
9494
9514
f404
9404
0414
0408
ENDCHAR
STARTCHAR 1194
ENCODING 42864
SWIDTH 1024 0
DWIDTH 16 0
BBX 15 14 0 -1
BITMAP
0040
0850
fc48
8840
8844
8ffe
88a0
88a0
8910
f910
8a08
0208
0404
0802
ENDCHAR
STARTCHAR 1195
ENCODING 42865
SWIDTH 1024 0
DWIDTH 16 0
BBX 15 14 0 -1
BITMAP
07d0
f850
8890
8910
8910
8950
8990
8f10
f910
8910
0112
0112
050e
0200
ENDCHAR
STARTCHAR 1196
ENCODING 42866
SWIDTH 1024 0
DWIDTH 16 0
BBX 15 13 0 -1
BITMAP
01fc
f910
8910
8910
8910
89fe
8810
8830
f850
8990
0610
0050
0020
ENDCHAR
STARTCHAR 1197
ENCODING 42867
SWIDTH 1024 0
DWIDTH 16 0
BBX 15 14 0 -1
BITMAP
0020
0024
fbfe
8820
8820
89fc
8904
8888
f850
8820
0050
0088
010e
0604
ENDCHAR
STARTCHAR 1198
ENCODING 42868
SWIDTH 1024 0
DWIDTH 16 0
BBX 15 14 0 -1
BITMAP
0380
0440
0820
1010
2fe8
4004
8fe2
0040
0080
1ff0
1010
1010
1ff0
1010
ENDCHAR
STARTCHAR 1199
ENCODING 42869
SWIDTH 1024 0
DWIDTH 16 0
BBX 15 14 0 -1
BITMAP
0040
0840
fca0
88a0
8910
8aee
8c04
8bf8
8808
f810
8810
0020
0040
0080
ENDCHAR
STARTCHAR 1200
ENCODING 42870
SWIDTH 1024 0
DWIDTH 16 0
BBX 15 14 0 -1
BITMAP
0010
0038
f9c0
8900
8904
89fe
8910
8910
f910
8a10
0210
0410
0810
0010
ENDCHAR
STARTCHAR 1201
ENCODING 42871
SWIDTH 1024 0
DWIDTH 16 0
BBX 15 14 0 -1
BITMAP
0400
0800
1004
3ffe
6084
a504
2214
2524
28c4
30c4
2124
2204
3ffc
2004
ENDCHAR
STARTCHAR 1202
ENCODING 42872
SWIDTH 1024 0
DWIDTH 16 0
BBX 14 14 1 -1
BITMAP
0008
fffc
8208
8208
bfe8
8208
8608
8708
8a88
9268
a228
8208
fff8
8008
ENDCHAR
STARTCHAR 1203
ENCODING 42873
SWIDTH 1024 0
DWIDTH 16 0
BBX 14 14 1 -1
BITMAP
fffc
8208
bfe8
8208
9248
9248
9248
9fc8
8208
8228
81e8
8008
fff8
8008
ENDCHAR
STARTCHAR 1204
ENCODING 42874
SWIDTH 1024 0
DWIDTH 16 0
BBX 14 14 1 -1
BITMAP
0008
fffc
9008
9fe8
a928
a928
c928
9128
9228
a228
c4a8
8848
fff8
8008
ENDCHAR
STARTCHAR 1205
ENCODING 42875
SWIDTH 1024 0
DWIDTH 16 0
BBX 15 14 0 -1
BITMAP
1080
1040
1004
13fe
fc80
1088
10fc
1088
1c88
f088
4108
0108
0250
0420
ENDCHAR
STARTCHAR 1206
ENCODING 42876
SWIDTH 1024 0
DWIDTH 16 0
BBX 15 14 0 -1
BITMAP
1080
1044
17fe
fc00
1010
11f8
1110
1110
1d10
f110
4110
0212
0212
040e
ENDCHAR
STARTCHAR 1207
ENCODING 42877
SWIDTH 1024 0
DWIDTH 16 0
BBX 15 14 0 -1
BITMAP
1020
1020
1020
1120
ff24
113e
1120
1120
1120
1320
1d20
f120
4124
07fe
ENDCHAR
STARTCHAR 1208
ENCODING 42878
SWIDTH 1024 0
DWIDTH 16 0
BBX 15 14 0 -1
BITMAP
2008
23fc
2208
2288
fa48
2248
2208
2ffe
2208
3a08
e208
4408
0428
0810
ENDCHAR
STARTCHAR 1243
ENCODING 42913
SWIDTH 1024 0
DWIDTH 16 0
BBX 15 14 0 -1
BITMAP
1080
1084
10fe
1104
fd04
1204
10f4
1004
1004
1cf4
f004
4004
0028
0010
ENDCHAR
STARTCHAR 1244
ENCODING 42914
SWIDTH 1024 0
DWIDTH 16 0
BBX 15 14 0 -1
BITMAP
1080
1080
10fc
fd04
1108
1240
1040
1040
10a0
1ca0
e110
4208
040e
0804
ENDCHAR
STARTCHAR 1245
ENCODING 42915
SWIDTH 1024 0
DWIDTH 16 0
BBX 15 14 0 -1
BITMAP
0008
17fc
1108
1110
fd10
11fc
1184
1148
1250
1e20
f450
4488
090e
0204
ENDCHAR
STARTCHAR 1246
ENCODING 42916
SWIDTH 1024 0
DWIDTH 16 0
BBX 15 14 0 -1
BITMAP
0100
1110
1110
1110
2928
2524
4544
8180
0110
3ff8
0100
0100
0104
fffe
ENDCHAR
STARTCHAR 1247
ENCODING 42917
SWIDTH 1024 0
DWIDTH 16 0
BBX 15 14 0 -1
BITMAP
0004
2ffe
2020
2040
f880
2140
2248
2c44
2042
2840
3040
c040
0040
0040
ENDCHAR
STARTCHAR 1248
ENCODING 42918
SWIDTH 1024 0
DWIDTH 16 0
BBX 15 14 0 -1
BITMAP
1008
103c
11c0
1100
7d04
11fe
1110
1110
1d10
f110
4210
0210
0410
0010
ENDCHAR
STARTCHAR 1249
ENCODING 42919
SWIDTH 1024 0
DWIDTH 16 0
BBX 15 14 0 -1
BITMAP
0840
4840
4840
4840
7840
0844
0ffe
7840
4840
4840
4840
4848
8bfc
0800
ENDCHAR
STARTCHAR 1250
ENCODING 42920
SWIDTH 1024 0
DWIDTH 16 0
BBX 15 14 0 -1
BITMAP
0100
0108
7ffc
0100
1110
1110
2928
c546
0100
0280
0440
0830
300e
c004
ENDCHAR
STARTCHAR 1251
ENCODING 42921
SWIDTH 1024 0
DWIDTH 16 0
BBX 15 14 0 -1
BITMAP
0880
4880
4880
4884
4ffe
7888
0888
7908
4910
48a0
4840
48b0
490c
8a04
ENDCHAR
STARTCHAR 1252
ENCODING 42922
SWIDTH 1024 0
DWIDTH 16 0
BBX 15 14 0 -1
BITMAP
1018
1060
1184
fdfe
2504
2504
25fc
4504
2900
1100
2a00
4600
8400
0800
ENDCHAR
STARTCHAR 1253
ENCODING 42923
SWIDTH 1024 0
DWIDTH 16 0
BBX 15 14 0 -1
BITMAP
1080
1040
1004
fffe
2480
2488
24fc
4488
2888
1088
2908
4508
8250
0420
ENDCHAR
STARTCHAR 1254
ENCODING 42924
SWIDTH 1024 0
DWIDTH 16 0
BBX 15 14 0 -1
BITMAP
1008
13fc
1088
1088
fc88
2488
2488
27fe
4488
2888
1088
2888
4488
87fe
ENDCHAR
STARTCHAR 1255
ENCODING 42925
SWIDTH 1024 0
DWIDTH 16 0
BBX 15 14 0 -1
BITMAP
1120
1120
1120
1120
fd20
25fc
2520
2520
4520
2920
1120
2962
45a2
851e
ENDCHAR
STARTCHAR 1256
ENCODING 42926
SWIDTH 1024 0
DWIDTH 16 0
BBX 15 14 0 -1
BITMAP
1020
1020
1020
fca8
24a6
24a2
2520
4424
2828
1010
2820
4440
8080
0300
ENDCHAR
STARTCHAR 1257
ENCODING 42927
SWIDTH 1024 0
DWIDTH 16 0
BBX 15 14 0 -1
BITMAP
1008
101c
11e0
fc20
2420
2424
27fe
4420
2850
1050
2888
4508
8206
0404
ENDCHAR
STARTCHAR 1258
ENCODING 42928
SWIDTH 1024 0
DWIDTH 16 0
BBX 15 14 0 -1
BITMAP
1004
13fe
1088
fc88
2488
2488
27fe
4488
2888
1088
2888
4488
8108
0208
ENDCHAR
STARTCHAR 1259
ENCODING 42929
SWIDTH 1024 0
DWIDTH 16 0
BBX 15 14 0 -1
BITMAP
1000
11f8
1008
1050
fc20
27fe
2422
2424
4420
2820
1020
2820
84a0
0040
ENDCHAR
STARTCHAR 1260
ENCODING 42930
SWIDTH 1024 0
DWIDTH 16 0
BBX 15 14 0 -1
BITMAP
1020
1024
13fe
fc20
2420
25fc
2504
4488
2888
1050
2820
4450
848e
0304
ENDCHAR
STARTCHAR 1261
ENCODING 42931
SWIDTH 1024 0
DWIDTH 16 0
BBX 15 13 0 0
BITMAP
1000
1008
10fc
fc20
2420
2424
25fe
4420
2820
1020
2820
4428
85fc
ENDCHAR
STARTCHAR 1262
ENCODING 42932
SWIDTH 1024 0
DWIDTH 16 0
BBX 15 14 0 -1
BITMAP
0078
3f80
0208
1118
0d20
0440
0208
fffe
0810
1820
0640
0180
0660
1810
ENDCHAR
STARTCHAR 1263
ENCODING 42933
SWIDTH 1024 0
DWIDTH 16 0
BBX 15 14 0 -1
BITMAP
0200
0210
3fe0
0240
0284
fffe
0200
3fe0
1080
2108
5ffc
8100
0500
0200
ENDCHAR
STARTCHAR 1264
ENCODING 42934
SWIDTH 1024 0
DWIDTH 16 0
BBX 15 14 0 -1
BITMAP
0480
fe80
0484
08fe
1108
1588
1a88
f088
5050
1020
1050
1088
510e
2604
ENDCHAR
STARTCHAR 1265
ENCODING 42935
SWIDTH 1024 0
DWIDTH 16 0
BBX 15 14 0 -1
BITMAP
0078
3f80
0008
1118
0920
3ff0
0040
0080
0104
fffe
0100
0100
0500
0200
ENDCHAR
STARTCHAR 1266
ENCODING 42936
SWIDTH 1024 0
DWIDTH 16 0
BBX 15 14 0 -1
BITMAP
0100
0108
7ffc
0100
7ffe
4004
9fe8
0040
0180
0104
fffe
0100
0500
0200
ENDCHAR
STARTCHAR 1267
ENCODING 42937
SWIDTH 1024 0
DWIDTH 16 0
BBX 15 14 0 -1
BITMAP
0200
0104
7ffe
4004
8048
1fe0
0000
7ffc
0480
0480
0884
0884
1084
607c
ENDCHAR
STARTCHAR 1268
ENCODING 42938
SWIDTH 1024 0
DWIDTH 16 0
BBX 15 14 0 -1
BITMAP
0200
0104
7ffe
4004
8108
0100
fffe
0540
0920
1110
210e
4104
0100
0100
ENDCHAR
STARTCHAR 1269
ENCODING 42939
SWIDTH 1024 0
DWIDTH 16 0
BBX 15 14 0 -1
BITMAP
0100
7ffc
4004
8208
0200
fffe
0400
0480
0880
1100
1220
2410
4ff8
0008
ENDCHAR
STARTCHAR 1270
ENCODING 42940
SWIDTH 1024 0
DWIDTH 16 0
BBX 15 14 0 -1
BITMAP
2020
2060
2050
fe88
2904
2a92
2c90
2890
2890
2910
2912
4a02
47fe
8000
ENDCHAR
STARTCHAR 1271
ENCODING 42941
SWIDTH 1024 0
DWIDTH 16 0
BBX 15 14 0 -1
BITMAP
0008
3ffc
2008
3ff8
2000
2004
3ffe
2004
27e4
2424
27e4
2404
4014
8008
ENDCHAR
STARTCHAR 1272
ENCODING 42942
SWIDTH 1024 0
DWIDTH 16 0
BBX 15 14 0 -1
BITMAP
0008
3ffc
2008
3ff8
2048
2840
2840
2f7c
2840
2840
2942
4e42
483e
8000
ENDCHAR
STARTCHAR 1273
ENCODING 42943
SWIDTH 1024 0
DWIDTH 16 0
BBX 15 14 0 -1
BITMAP
0008
3ffc
2008
3ff8
2088
2080
2ec4
22c8
22b0
2490
488e
5084
8280
0100
ENDCHAR
STARTCHAR 1274
ENCODING 42944
SWIDTH 1024 0
DWIDTH 16 0
BBX 15 14 0 -1
BITMAP
0008
3ffc
2008
3ff8
2020
21c0
2f00
2110
2ff8
2100
3ffc
4100
8102
00fe
ENDCHAR
STARTCHAR 1275
ENCODING 42945
SWIDTH 1024 0
DWIDTH 16 0
BBX 15 14 0 -1
BITMAP
2020
2020
2024
23fe
a820
a820
a9fc
a884
a888
a850
f820
8850
018c
0606
ENDCHAR
STARTCHAR 1276
ENCODING 42946
SWIDTH 1024 0
DWIDTH 16 0
BBX 15 14 0 -1
BITMAP
0100
2108
2108
3ff8
2108
06c0
0830
37ce
c004
1fe0
0020
0040
0040
0080
ENDCHAR
STARTCHAR 1277
ENCODING 42947
SWIDTH 1024 0
DWIDTH 16 0
BBX 15 14 0 -1
BITMAP
0440
0820
1010
2fee
c424
0420
08a0
3040
0100
2108
2108
2108
3ff8
2008
ENDCHAR
STARTCHAR 1278
ENCODING 42948
SWIDTH 1024 0
DWIDTH 16 0
BBX 15 14 0 -1
BITMAP
0100
2108
3ff8
0000
3ff8
0840
09f0
1410
1220
2120
20c0
4140
8630
180e
ENDCHAR
STARTCHAR 1279
ENCODING 42949
SWIDTH 1024 0
DWIDTH 16 0
BBX 15 13 0 0
BITMAP
0008
7ffc
0100
1110
1110
1110
2928
2928
4544
8584
0100
0104
fffe
ENDCHAR
STARTCHAR 1280
ENCODING 42950
SWIDTH 1024 0
DWIDTH 16 0
BBX 15 14 0 -1
BITMAP
0e60
0180
0660
3a18
0200
fffe
0480
0888
1ffc
2888
c888
08a8
0890
0080
ENDCHAR
STARTCHAR 1281
ENCODING 42951
SWIDTH 1024 0
DWIDTH 16 0
BBX 14 14 0 -1
BITMAP
0200
0100
7ffc
4000
4ff0
4020
4140
4084
5ffc
4088
4090
4080
4280
8100
ENDCHAR
STARTCHAR 1282
ENCODING 42952
SWIDTH 1024 0
DWIDTH 16 0
BBX 15 14 0 -1
BITMAP
0100
0084
3ffe
2000
2440
2440
2440
2440
277c
2440
2440
2542
4e42
843e
ENDCHAR
STARTCHAR 1283
ENCODING 42953
SWIDTH 1024 0
DWIDTH 16 0
BBX 15 14 0 -1
BITMAP
0100
0084
3ffe
2080
2088
3ffc
21c0
21a0
2290
2488
488e
5084
8080
0080
ENDCHAR
STARTCHAR 1284
ENCODING 42954
SWIDTH 1024 0
DWIDTH 16 0
BBX 15 14 0 -1
BITMAP
0010
0038
fbc0
1040
2048
43fc
7840
0840
4840
2ffe
1000
2800
47fe
8000
ENDCHAR
STARTCHAR 1285
ENCODING 42955
SWIDTH 1024 0
DWIDTH 16 0
BBX 15 14 0 -1
BITMAP
7ffc
0100
0100
3ff8
0100
0108
7ffc
0440
0444
fffe
0440
0840
1040
6040
ENDCHAR
STARTCHAR 1286
ENCODING 42956
SWIDTH 1024 0
DWIDTH 16 0
BBX 14 14 1 -1
BITMAP
0cc0
0500
fff0
0210
7ff0
4200
4208
7ffc
0608
0a08
3248
c230
0200
0200
ENDCHAR
STARTCHAR 1287
ENCODING 42957
SWIDTH 1024 0
DWIDTH 16 0
BBX 15 14 0 -1
BITMAP
3f0c
2210
2220
3240
2a84
2a0c
2210
ffa0
2206
2208
2210
4220
4a40
8580
ENDCHAR
STARTCHAR 1288
ENCODING 42958
SWIDTH 1024 0
DWIDTH 16 0
BBX 15 14 0 -1
BITMAP
7fc8
1108
1110
1120
1104
ffc8
1110
1122
1142
1104
2108
2110
4120
0140
ENDCHAR
STARTCHAR 1289
ENCODING 42959
SWIDTH 1024 0
DWIDTH 16 0
BBX 15 14 0 -1
BITMAP
0840
1044
27fe
4080
0888
10fc
2088
5088
9088
1108
1208
1408
1850
1020
ENDCHAR
STARTCHAR 1290
ENCODING 42960
SWIDTH 1024 0
DWIDTH 16 0
BBX 15 14 0 -1
BITMAP
09f8
1110
2110
4110
0a0e
1400
33f8
5108
9110
10a0
1040
10b0
130e
1c04
ENDCHAR
STARTCHAR 1291
ENCODING 42961
SWIDTH 1024 0
DWIDTH 16 0
BBX 15 14 0 -1
BITMAP
0200
0104
fffe
1000
1000
1010
1ff8
0200
1100
5084
5082
9012
1010
0ff0
ENDCHAR
STARTCHAR 1292
ENCODING 42962
SWIDTH 1024 0
DWIDTH 16 0
BBX 15 14 0 -1
BITMAP
0010
7ff8
0010
3ff0
2010
2004
2004
1ffc
0000
5204
5182
5092
9012
0ff0
ENDCHAR
STARTCHAR 1293
ENCODING 42963
SWIDTH 1024 0
DWIDTH 16 0
BBX 15 14 0 -1
BITMAP
0100
0104
fffe
0100
0100
0100
7ffc
0000
0200
5180
5084
5012
9012
0ff0
ENDCHAR
STARTCHAR 1294
ENCODING 42964
SWIDTH 1024 0
DWIDTH 16 0
BBX 15 14 0 -1
BITMAP
0010
7ff8
0210
1210
1a10
0410
0450
0820
1200
0988
48a4
4822
4822
87e0
ENDCHAR
STARTCHAR 1295
ENCODING 42965
SWIDTH 1024 0
DWIDTH 16 0
BBX 15 14 0 -1
BITMAP
1040
1040
1040
53fc
5a44
5448
9040
1040
10a0
1120
1122
1222
141e
1800
ENDCHAR
STARTCHAR 1296
ENCODING 42966
SWIDTH 1024 0
DWIDTH 16 0
BBX 15 14 0 -1
BITMAP
1080
1080
1088
5bfc
5488
5088
9088
1ffe
1080
1140
1120
1210
140e
1804
ENDCHAR
STARTCHAR 1297
ENCODING 42967
SWIDTH 1024 0
DWIDTH 16 0
BBX 15 14 0 -1
BITMAP
1000
1008
13fc
5888
5488
5088
97fe
1088
1088
1088
1088
1088
17fe
1000
ENDCHAR
STARTCHAR 1298
ENCODING 42968
SWIDTH 1024 0
DWIDTH 16 0
BBX 15 14 0 -1
BITMAP
1020
10a0
1090
5910
5508
520e
9444
1040
1080
1110
1208
17fc
1004
1000
ENDCHAR
STARTCHAR 1299
ENCODING 42969
SWIDTH 1024 0
DWIDTH 16 0
BBX 15 14 0 -1
BITMAP
0040
0050
0048
fffe
0040
1240
1244
7f48
1250
1220
1262
2292
410a
0206
ENDCHAR
STARTCHAR 1300
ENCODING 42970
SWIDTH 1024 0
DWIDTH 16 0
BBX 15 14 0 -1
BITMAP
0480
0ea0
7890
0884
fffe
0890
0a90
0c60
1840
68a0
0920
0a14
2814
100c
ENDCHAR
STARTCHAR 1301
ENCODING 42971
SWIDTH 1024 0
DWIDTH 16 0
BBX 15 14 0 -1
BITMAP
1020
1020
1020
fca8
10a6
14a2
1920
3024
d028
1010
1020
1040
5080
2300
ENDCHAR
STARTCHAR 1302
ENCODING 42972
SWIDTH 1024 0
DWIDTH 16 0
BBX 15 14 0 -1
BITMAP
1040
1044
17fe
fc00
1010
15f8
1910
3110
d110
1110
1112
1212
5212
240e
ENDCHAR
STARTCHAR 1303
ENCODING 42973
SWIDTH 1024 0
DWIDTH 16 0
BBX 15 14 0 -1
BITMAP
1110
10d0
1050
fc10
1110
14d0
1850
3010
d01e
17f0
1010
1010
5010
2010
ENDCHAR
STARTCHAR 1304
ENCODING 42974
SWIDTH 1024 0
DWIDTH 16 0
BBX 15 14 0 -1
BITMAP
1040
1048
13fc
fc40
1040
13f8
1a08
3110
d110
10a0
1040
10b0
510e
2604
ENDCHAR
STARTCHAR 1305
ENCODING 42975
SWIDTH 1024 0
DWIDTH 16 0
BBX 15 14 0 -1
BITMAP
1020
1020
11fc
fc20
1020
1424
1bfe
3020
d020
1050
1088
1088
5106
2604
ENDCHAR
STARTCHAR 1306
ENCODING 42976
SWIDTH 1024 0
DWIDTH 16 0
BBX 15 14 0 -1
BITMAP
1080
1080
1088
fffc
1088
1488
1888
3088
d7fe
1140
1120
1210
540e
2804
ENDCHAR
STARTCHAR 1307
ENCODING 42977
SWIDTH 1024 0
DWIDTH 16 0
BBX 15 14 0 -1
BITMAP
1008
13fc
1088
fc88
1088
1488
1bfe
3088
d088
1088
1088
1088
53fe
2000
ENDCHAR
STARTCHAR 1308
ENCODING 42978
SWIDTH 1024 0
DWIDTH 16 0
BBX 15 14 0 -1
BITMAP
1000
11fe
1124
fd24
1124
1524
19fc
3104
d100
1100
1102
1102
5102
20fe
ENDCHAR
STARTCHAR 1309
ENCODING 42979
SWIDTH 1024 0
DWIDTH 16 0
BBX 15 14 0 -1
BITMAP
1000
13fe
1200
fe08
12fc
1688
1a88
3288
d2a8
1290
1282
1482
5882
207e
ENDCHAR
STARTCHAR 1310
ENCODING 42980
SWIDTH 1024 0
DWIDTH 16 0
BBX 15 14 0 -1
BITMAP
1050
1048
1040
fdfe
1040
1048
1450
1820
3060
d0a0
1120
1212
540a
2006
ENDCHAR
STARTCHAR 1311
ENCODING 42981
SWIDTH 1024 0
DWIDTH 16 0
BBX 15 14 0 -1
BITMAP
1220
1220
1220
fe20
1220
13be
1a20
3220
d220
1220
12a2
1322
521e
2000
ENDCHAR
STARTCHAR 1312
ENCODING 42982
SWIDTH 1024 0
DWIDTH 16 0
BBX 15 14 0 -1
BITMAP
1004
11fe
1100
fd00
11fc
1104
1584
1948
3148
d150
1220
1450
588e
2304
ENDCHAR
STARTCHAR 1313
ENCODING 42983
SWIDTH 1024 0
DWIDTH 16 0
BBX 15 14 0 -1
BITMAP
1000
13f8
1010
10a0
fc40
17fe
1842
3044
d040
1040
1040
1040
5140
2080
ENDCHAR
STARTCHAR 1314
ENCODING 42984
SWIDTH 1024 0
DWIDTH 16 0
BBX 15 14 0 -1
BITMAP
1020
1020
1020
fc20
1120
153c
1920
3120
d120
1120
1120
1124
57fe
2000
ENDCHAR
STARTCHAR 1315
ENCODING 42985
SWIDTH 1024 0
DWIDTH 16 0
BBX 15 14 0 -1
BITMAP
1008
103c
11c0
fd00
1104
15fe
1910
3110
d110
1110
1210
1210
5410
2010
ENDCHAR
STARTCHAR 1316
ENCODING 42986
SWIDTH 1024 0
DWIDTH 16 0
BBX 15 14 0 -1
BITMAP
1020
10b0
10a0
fd10
110e
1204
1c00
33f8
d088
1088
1108
1108
5228
2410
ENDCHAR
STARTCHAR 1317
ENCODING 42987
SWIDTH 1024 0
DWIDTH 16 0
BBX 15 14 0 -1
BITMAP
1010
11f8
1110
fd10
150e
1a00
33f8
d008
1110
10a0
1040
10b0
510e
2604
ENDCHAR
STARTCHAR 1318
ENCODING 42988
SWIDTH 1024 0
DWIDTH 16 0
BBX 15 14 0 -1
BITMAP
1008
101c
13e0
1250
fe50
1650
1a50
3250
d248
1248
1444
1444
5842
2040
ENDCHAR
STARTCHAR 1319
ENCODING 42989
SWIDTH 1024 0
DWIDTH 16 0
BBX 15 14 0 -1
BITMAP
1000
1040
1050
fc9e
1112
1512
1912
1112
3132
5152
9196
1010
5010
2010
ENDCHAR
STARTCHAR 1320
ENCODING 42990
SWIDTH 1024 0
DWIDTH 16 0
BBX 15 14 0 -1
BITMAP
1020
1020
13fe
fc88
1088
1888
1088
3050
5050
9020
1050
1088
5104
2602
ENDCHAR
STARTCHAR 1321
ENCODING 42991
SWIDTH 1024 0
DWIDTH 16 0
BBX 15 14 0 -1
BITMAP
0040
0040
f884
08fe
0908
0908
fa88
8090
8060
8020
8850
b088
c106
0602
ENDCHAR
STARTCHAR 1322
ENCODING 42992
SWIDTH 1024 0
DWIDTH 16 0
BBX 15 14 0 -1
BITMAP
0080
0880
fd08
11fc
1210
1410
1110
1120
10c0
1c40
f0a0
4110
020e
0c04
ENDCHAR
STARTCHAR 1323
ENCODING 42993
SWIDTH 1024 0
DWIDTH 16 0
BBX 15 14 0 -1
BITMAP
0880
0880
1084
14fe
3508
5588
9688
1488
1450
1420
1450
1090
110e
1604
ENDCHAR
STARTCHAR 1324
ENCODING 42994
SWIDTH 1024 0
DWIDTH 16 0
BBX 15 14 0 -1
BITMAP
1ff0
1010
1ff0
1010
1ff0
0000
3ff8
0100
0104
fffe
0100
0100
0100
0100
ENDCHAR
STARTCHAR 1325
ENCODING 42995
SWIDTH 1024 0
DWIDTH 16 0
BBX 15 14 0 -1
BITMAP
0004
fffe
0100
3ff8
2108
3ff8
2108
3ff8
2908
0500
0300
04c0
1830
e00e
ENDCHAR
STARTCHAR 1326
ENCODING 42996
SWIDTH 1024 0
DWIDTH 16 0
BBX 15 14 0 -1
BITMAP
0100
fffe
0100
0108
3ffc
2108
2108
3ff8
2388
0540
0930
310e
c104
0100
ENDCHAR
STARTCHAR 1327
ENCODING 42997
SWIDTH 1024 0
DWIDTH 16 0
BBX 15 14 0 -1
BITMAP
0100
7ffc
0540
0930
310e
c104
0fe0
0040
0188
7ffc
0100
0100
0500
0200
ENDCHAR
STARTCHAR 1328
ENCODING 42998
SWIDTH 1024 0
DWIDTH 16 0
BBX 15 14 0 -1
BITMAP
0100
0104
fffe
0380
0540
0930
310e
c104
1ff0
1010
1010
1010
1ff0
1010
ENDCHAR
STARTCHAR 1329
ENCODING 42999
SWIDTH 1024 0
DWIDTH 16 0
BBX 15 14 0 -1
BITMAP
0810
0810
0810
fefe
0810
1810
1c50
2a50
2890
4890
8910
0a10
0850
0820
ENDCHAR
STARTCHAR 1330
ENCODING 43000
SWIDTH 1024 0
DWIDTH 16 0
BBX 15 14 0 -1
BITMAP
1010
1010
1010
fc10
13fe
3010
3810
5510
5490
9090
1010
1010
1050
1020
ENDCHAR
STARTCHAR 1331
ENCODING 43001
SWIDTH 1024 0
DWIDTH 16 0
BBX 15 14 0 -1
BITMAP
1020
1020
1020
fe20
1020
31fc
3820
5420
5420
9020
1020
1024
17fe
1000
ENDCHAR
STARTCHAR 1332
ENCODING 43002
SWIDTH 1024 0
DWIDTH 16 0
BBX 15 14 0 -1
BITMAP
1020
1020
1024
fdfe
1020
3120
3920
54a0
90a0
1040
1060
1090
110e
1604
ENDCHAR
STARTCHAR 1333
ENCODING 43003
SWIDTH 1024 0
DWIDTH 16 0
BBX 15 14 0 -1
BITMAP
1000
1008
13fc
fc08
1008
3008
3bf8
5608
5200
9200
1202
1202
1202
11fe
ENDCHAR
STARTCHAR 1334
ENCODING 43004
SWIDTH 1024 0
DWIDTH 16 0
BBX 15 14 0 -1
BITMAP
0808
0810
0820
fec0
1808
1c10
2a20
2ac0
4802
8804
0808
0810
0860
0980
ENDCHAR
STARTCHAR 1335
ENCODING 43005
SWIDTH 1024 0
DWIDTH 16 0
BBX 15 14 0 -1
BITMAP
1000
1008
11fc
fc20
1020
3024
3bfe
5420
5020
9020
1020
1020
1020
1020
ENDCHAR
STARTCHAR 1336
ENCODING 43006
SWIDTH 1024 0
DWIDTH 16 0
BBX 15 14 0 -1
BITMAP
1000
1008
11fc
fc20
1020
3020
3820
5420
5420
9020
1024
13fe
1000
1000
ENDCHAR
STARTCHAR 1337
ENCODING 43072
SWIDTH 1024 0
DWIDTH 16 0
BBX 15 14 0 -1
BITMAP
1080
1080
1084
fdfe
1204
3004
3884
5444
5444
9004
1004
1044
1028
1010
ENDCHAR
STARTCHAR 1338
ENCODING 43073
SWIDTH 1024 0
DWIDTH 16 0
BBX 13 14 1 -1
BITMAP
0400
0200
fff8
2000
2000
3ff0
0200
0210
fff8
0a40
1230
2218
c208
0200
ENDCHAR
STARTCHAR 1339
ENCODING 43074
SWIDTH 1024 0
DWIDTH 16 0
BBX 15 14 0 -1
BITMAP
0100
0910
09f8
0900
0904
fffe
0100
0910
0d18
1110
2120
00c0
0700
7800
ENDCHAR
STARTCHAR 1340
ENCODING 43075
SWIDTH 1024 0
DWIDTH 16 0
BBX 15 14 0 -1
BITMAP
1000
1ffc
2000
4010
1ff8
1210
1110
fffe
1210
1110
2010
3ff8
0020
01c0
ENDCHAR
STARTCHAR 1341
ENCODING 43076
SWIDTH 1024 0
DWIDTH 16 0
BBX 14 14 1 -1
BITMAP
0240
0220
fff8
4210
3230
1340
0280
0a40
1220
221c
c208
0200
0a00
0400
ENDCHAR
STARTCHAR 1342
ENCODING 43077
SWIDTH 1024 0
DWIDTH 16 0
BBX 15 14 0 -1
BITMAP
3ff8
0100
0104
fffe
0108
0118
7da0
0540
0920
1110
210e
c104
0500
0200
ENDCHAR
STARTCHAR 1343
ENCODING 43078
SWIDTH 1024 0
DWIDTH 16 0
BBX 15 14 0 -1
BITMAP
0020
2020
1820
80a8
60a6
20a2
0920
1024
2028
e010
2020
2040
2080
2300
ENDCHAR
STARTCHAR 1344
ENCODING 43079
SWIDTH 1024 0
DWIDTH 16 0
BBX 15 14 0 -1
BITMAP
2000
1880
8060
6120
2120
0100
1508
1504
2506
e902
2908
2108
20f8
2000
ENDCHAR
STARTCHAR 1345
ENCODING 43080
SWIDTH 1024 0
DWIDTH 16 0
BBX 15 14 0 -1
BITMAP
4080
3088
17fc
8488
6890
20c0
0940
1140
2140
e140
2242
2442
283e
3000
ENDCHAR
STARTCHAR 1346
ENCODING 43081
SWIDTH 1024 0
DWIDTH 16 0
BBX 15 14 0 -1
BITMAP
4004
37fe
1404
8408
4000
2120
1120
2120
e120
2120
2222
2222
2422
281e
ENDCHAR
STARTCHAR 1347
ENCODING 43082
SWIDTH 1024 0
DWIDTH 16 0
BBX 15 14 0 -1
BITMAP
8008
67fc
2000
0000
8004
6ffe
2120
0120
0920
1120
e222
2422
2822
301e
ENDCHAR
STARTCHAR 1348
ENCODING 43083
SWIDTH 1024 0
DWIDTH 16 0
BBX 15 14 0 -1
BITMAP
0040
4040
2ffe
8040
6040
27fc
0c44
1444
2444
e444
2454
2448
2040
2040
ENDCHAR
STARTCHAR 1349
ENCODING 43084
SWIDTH 1024 0
DWIDTH 16 0
BBX 15 14 0 -1
BITMAP
4008
37fc
1040
8040
6040
2048
0bfc
1040
2040
e040
2040
2044
2ffe
2000
ENDCHAR
STARTCHAR 1350
ENCODING 43085
SWIDTH 1024 0
DWIDTH 16 0
BBX 15 14 0 -1
BITMAP
4080
3080
1088
87fc
6088
2088
0088
0ffe
0880
1140
e120
2210
240e
2804
ENDCHAR
STARTCHAR 1351
ENCODING 43086
SWIDTH 1024 0
DWIDTH 16 0
BBX 15 14 0 -1
BITMAP
4040
3040
1044
87fe
4840
48e0
1150
1150
2248
e248
2444
2846
2040
2040
ENDCHAR
STARTCHAR 1352
ENCODING 43087
SWIDTH 1024 0
DWIDTH 16 0
BBX 15 14 0 -1
BITMAP
4040
3040
1044
87fe
6040
2040
0840
10a0
e110
2190
2248
244e
2804
2000
ENDCHAR
STARTCHAR 1353
ENCODING 43088
SWIDTH 1024 0
DWIDTH 16 0
BBX 15 14 0 -1
BITMAP
4040
2044
2ffe
8040
4444
4c44
1444
27fc
e444
2040
2040
2042
2042
203e
ENDCHAR
STARTCHAR 1354
ENCODING 43089
SWIDTH 1024 0
DWIDTH 16 0
BBX 14 14 0 -1
BITMAP
4008
33fc
1208
8208
4a08
1208
13f8
2208
e208
2208
2208
2208
23f8
2208
ENDCHAR
STARTCHAR 1355
ENCODING 43090
SWIDTH 1024 0
DWIDTH 16 0
BBX 15 14 0 -1
BITMAP
0040
4040
2040
2044
07fe
8444
6444
2444
07fc
1444
2040
e040
2040
2040
ENDCHAR
STARTCHAR 1356
ENCODING 43091
SWIDTH 1024 0
DWIDTH 16 0
BBX 15 14 0 -1
BITMAP
8100
61fc
2108
0108
8228
6410
23f8
0208
0910
10a0
e040
20a0
231e
2c08
ENDCHAR
STARTCHAR 1357
ENCODING 43092
SWIDTH 1024 0
DWIDTH 16 0
BBX 15 14 0 -1
BITMAP
0200
4208
33fc
1400
87f8
6800
27f0
0010
2010
e010
2010
200a
200a
2006
ENDCHAR
STARTCHAR 1358
ENCODING 43093
SWIDTH 1024 0
DWIDTH 16 0
BBX 15 14 0 -1
BITMAP
400c
37f0
1040
8040
6044
2ffe
0040
1040
2040
e0a0
2110
2208
240e
2804
ENDCHAR
STARTCHAR 1359
ENCODING 43094
SWIDTH 1024 0
DWIDTH 16 0
BBX 15 14 0 -1
BITMAP
4008
37fc
1108
8110
6110
29fc
0984
1148
6250
2220
2450
2488
290e
2204
ENDCHAR
STARTCHAR 1360
ENCODING 43095
SWIDTH 1024 0
DWIDTH 16 0
BBX 15 14 0 -1
BITMAP
4120
3120
1110
8210
640e
2804
07f0
1110
2110
e110
2110
2210
24a0
2840
ENDCHAR
STARTCHAR 1361
ENCODING 43096
SWIDTH 1024 0
DWIDTH 16 0
BBX 15 14 0 -1
BITMAP
4100
30c0
1044
8ffe
4080
4880
10a0
1090
208c
e084
2080
2080
2080
2080
ENDCHAR
STARTCHAR 1362
ENCODING 43097
SWIDTH 1024 0
DWIDTH 16 0
BBX 15 14 0 -1
BITMAP
4080
3044
17fe
8000
4810
49f8
1110
1110
2110
e110
2212
2212
2412
280e
ENDCHAR
STARTCHAR 1363
ENCODING 43098
SWIDTH 1024 0
DWIDTH 16 0
BBX 15 14 0 -1
BITMAP
0080
4040
3044
17fe
8208
4a08
1110
1110
20a0
e040
20a0
2110
260e
3804
ENDCHAR
STARTCHAR 1364
ENCODING 43099
SWIDTH 1024 0
DWIDTH 16 0
BBX 15 14 0 -1
BITMAP
8004
6ffe
2100
0100
81fc
6108
2108
0908
1108
23f8
c008
4010
4010
4ffe
ENDCHAR
STARTCHAR 1365
ENCODING 43100
SWIDTH 1024 0
DWIDTH 16 0
BBX 15 14 0 -1
BITMAP
4ffe
3040
1040
8244
4a7e
4a44
1244
1244
23fc
e004
2004
2004
2028
2010
ENDCHAR
STARTCHAR 1366
ENCODING 43101
SWIDTH 1024 0
DWIDTH 16 0
BBX 15 14 0 -1
BITMAP
8420
6420
2420
0420
8420
67be
2420
0420
1420
2420
c420
4422
45a2
463e
ENDCHAR
STARTCHAR 1367
ENCODING 43102
SWIDTH 1024 0
DWIDTH 16 0
BBX 15 14 0 -1
BITMAP
4008
301c
13e0
8200
6204
2bfe
0a10
1210
1210
e210
2210
2410
2810
2010
ENDCHAR
STARTCHAR 1368
ENCODING 43103
SWIDTH 1024 0
DWIDTH 16 0
BBX 15 14 0 -1
BITMAP
1040
1040
1240
9440
5848
53fc
1040
1040
1040
1040
2840
2440
4444
87fe
ENDCHAR
STARTCHAR 1369
ENCODING 43104
SWIDTH 1024 0
DWIDTH 16 0
BBX 15 14 0 -1
BITMAP
1040
1040
1244
94fe
5904
5204
1084
1044
1044
2804
2404
4444
8028
0010
ENDCHAR
STARTCHAR 1370
ENCODING 43105
SWIDTH 1024 0
DWIDTH 16 0
BBX 15 14 0 -1
BITMAP
1084
2108
4210
2108
1084
0100
4104
2108
1930
0100
0280
0440
1830
e00e
ENDCHAR
STARTCHAR 1371
ENCODING 43106
SWIDTH 1024 0
DWIDTH 16 0
BBX 15 14 0 -1
BITMAP
0420
07f0
0820
10c0
0320
0c10
110e
6124
0930
0920
0540
06c0
1830
e00e
ENDCHAR
STARTCHAR 1372
ENCODING 43107
SWIDTH 1024 0
DWIDTH 16 0
BBX 15 14 0 -1
BITMAP
0200
0100
7ffe
4102
9104
1120
1ff0
1100
2104
fffe
0100
0100
0100
0100
ENDCHAR
STARTCHAR 1373
ENCODING 43108
SWIDTH 1024 0
DWIDTH 16 0
BBX 15 14 0 -1
BITMAP
0820
4820
4820
7f20
4820
89fc
0820
0e20
1820
e820
0820
0824
0bfe
0800
ENDCHAR
STARTCHAR 1374
ENCODING 43109
SWIDTH 1024 0
DWIDTH 16 0
BBX 15 14 0 -1
BITMAP
1020
5120
5120
7922
97fe
1122
1124
1928
1120
3120
d120
1102
1102
11fe
ENDCHAR
STARTCHAR 1375
ENCODING 43110
SWIDTH 1024 0
DWIDTH 16 0
BBX 15 14 0 -1
BITMAP
0440
4440
2840
1044
2a4c
4950
8960
1840
2840
48a0
88a0
0910
520e
2404
ENDCHAR
STARTCHAR 1376
ENCODING 43111
SWIDTH 1024 0
DWIDTH 16 0
BBX 15 14 0 -1
BITMAP
8004
45fe
2820
1020
2820
4820
09fc
1820
2820
4820
8820
0824
53fe
2000
ENDCHAR
STARTCHAR 1377
ENCODING 43112
SWIDTH 1024 0
DWIDTH 16 0
BBX 15 14 0 -1
BITMAP
0440
fe48
10fc
1088
1088
7d10
1210
1020
1e50
f050
4088
0108
0206
0c00
ENDCHAR
STARTCHAR 1378
ENCODING 43113
SWIDTH 1024 0
DWIDTH 16 0
BBX 13 14 1 -1
BITMAP
7ff0
0040
0c80
0308
fff8
8208
8208
fff8
8208
8208
fff8
8208
8228
8010
ENDCHAR
STARTCHAR 1379
ENCODING 43114
SWIDTH 1024 0
DWIDTH 16 0
BBX 15 14 0 -1
BITMAP
0120
0110
fffe
0100
0108
3ffc
2108
3ff8
2108
3ff8
2108
2108
2128
2010
ENDCHAR
STARTCHAR 1380
ENCODING 43115
SWIDTH 1024 0
DWIDTH 16 0
BBX 14 14 1 -1
BITMAP
0010
7ff8
4210
7ff0
4210
7ff0
0400
0408
fffc
0408
0808
1008
2050
c020
ENDCHAR
STARTCHAR 1381
ENCODING 43116
SWIDTH 1024 0
DWIDTH 16 0
BBX 15 14 0 -1
BITMAP
0800
0804
1ffe
1004
2044
5fe4
9244
1fc4
1244
1fc4
1044
0004
0014
0008
ENDCHAR
STARTCHAR 1382
ENCODING 43117
SWIDTH 1024 0
DWIDTH 16 0
BBX 15 13 0 0
BITMAP
0200
0400
3ff8
2008
3ff8
2008
3ff8
0200
0204
fffe
0200
0200
01fc
ENDCHAR
STARTCHAR 1383
ENCODING 43118
SWIDTH 1024 0
DWIDTH 16 0
BBX 15 13 0 -1
BITMAP
f804
8ffe
8820
f820
8820
8820
f820
8820
8820
8820
f820
88a0
0040
ENDCHAR
STARTCHAR 1384
ENCODING 43119
SWIDTH 1024 0
DWIDTH 16 0
BBX 15 14 0 -1
BITMAP
0400
0820
1010
3ff8
0808
0810
1ff8
2100
0104
fffe
0440
0830
101c
6008
ENDCHAR
STARTCHAR 1385
ENCODING 43120
SWIDTH 1024 0
DWIDTH 16 0
BBX 15 14 0 -1
BITMAP
0420
0e20
f820
0820
ff20
1c40
1a40
2888
4884
8902
0bfe
0902
0802
0800
ENDCHAR
STARTCHAR 1386
ENCODING 43121
SWIDTH 1024 0
DWIDTH 16 0
BBX 15 14 0 -1
BITMAP
01e0
1f00
0108
7ffc
0540
0930
310e
cfe4
0420
0470
0810
0810
10a0
2040
ENDCHAR
STARTCHAR 1387
ENCODING 43122
SWIDTH 1024 0
DWIDTH 16 0
BBX 15 14 0 -1
BITMAP
00f0
3f00
0100
0104
fffe
0920
1110
210e
4444
0440
0840
0842
1042
603e
ENDCHAR
STARTCHAR 1388
ENCODING 43123
SWIDTH 1024 0
DWIDTH 16 0
BBX 15 14 0 -1
BITMAP
0200
0104
7ffe
4004
8828
1410
240c
0440
3fe0
0440
0842
0842
1042
603e
ENDCHAR
STARTCHAR 1389
ENCODING 43124
SWIDTH 1024 0
DWIDTH 16 0
BBX 12 14 1 -1
BITMAP
00c0
ff00
0800
1080
7f00
0200
0c40
3020
7ff0
0200
2220
4210
8210
0200
ENDCHAR
STARTCHAR 1390
ENCODING 43125
SWIDTH 1024 0
DWIDTH 16 0
BBX 15 13 0 -1
BITMAP
7ffe
4442
8824
1010
0000
3ff8
0100
0104
fffe
0100
0100
0100
0100
ENDCHAR
STARTCHAR 1391
ENCODING 43126
SWIDTH 1024 0
DWIDTH 16 0
BBX 12 14 2 -1
BITMAP
8420
4440
2480
0420
fff0
8020
8020
ffe0
8020
ffe0
8020
8020
80a0
8040
ENDCHAR
STARTCHAR 1392
ENCODING 43127
SWIDTH 1024 0
DWIDTH 16 0
BBX 15 14 0 -1
BITMAP
0200
fffe
1000
1ff8
0000
1ff0
1010
1ff0
1010
1ff0
1010
1010
1050
2020
ENDCHAR
STARTCHAR 1393
ENCODING 43128
SWIDTH 1024 0
DWIDTH 16 0
BBX 15 14 0 -1
BITMAP
0008
3dfc
2420
2420
3c20
2424
27fe
3c20
2420
2420
2420
4420
5420
8820
ENDCHAR
STARTCHAR 1394
ENCODING 43129
SWIDTH 1024 0
DWIDTH 16 0
BBX 15 14 0 -1
BITMAP
0408
3e08
2408
2408
3dfe
2408
2488
3c48
2448
2408
2408
4408
9428
0810
ENDCHAR
STARTCHAR 1395
ENCODING 43130
SWIDTH 1024 0
DWIDTH 16 0
BBX 15 13 0 -1
BITMAP
3c08
25fc
2420
3c20
2420
2420
3c20
2420
2420
2424
47fe
5400
8800
ENDCHAR
STARTCHAR 1396
ENCODING 43131
SWIDTH 1024 0
DWIDTH 16 0
BBX 15 14 0 -1
BITMAP
0420
3e20
2420
2420
3c20
25fc
2420
3c20
2420
2420
2424
47fe
5400
8800
ENDCHAR
STARTCHAR 1397
ENCODING 43132
SWIDTH 1024 0
DWIDTH 16 0
BBX 15 14 0 -1
BITMAP
0200
fffe
0400
0810
3ff8
0008
1ff0
1010
1ff0
1010
1ff0
1010
1050
2020
ENDCHAR
STARTCHAR 1398
ENCODING 43133
SWIDTH 1024 0
DWIDTH 16 0
BBX 14 14 1 -1
BITMAP
0800
0440
7fe0
4040
7fc0
4040
7fc0
4820
4840
4480
4300
48e0
701c
c008
ENDCHAR
STARTCHAR 1399
ENCODING 43134
SWIDTH 1024 0
DWIDTH 16 0
BBX 15 14 0 -1
BITMAP
0820
0824
fefe
0820
0200
0104
fffe
1000
1000
1000
1000
1000
1008
1ffc
ENDCHAR
STARTCHAR 1434
ENCODING 43169
SWIDTH 1024 0
DWIDTH 16 0
BBX 15 14 0 -1
BITMAP
0820
0820
fefe
0820
3ff8
0100
0104
fffe
0100
0100
0100
0100
0500
0200
ENDCHAR
STARTCHAR 1435
ENCODING 43170
SWIDTH 1024 0
DWIDTH 16 0
BBX 15 14 0 -1
BITMAP
0440
0444
fffe
0440
1008
1ffc
1008
2408
4308
8108
0008
0008
0050
0020
ENDCHAR
STARTCHAR 1436
ENCODING 43171
SWIDTH 1024 0
DWIDTH 16 0
BBX 14 14 1 -1
BITMAP
3fe0
2020
2020
3fe0
2020
3fe0
2020
2020
3fe0
2520
0900
1104
2104
c1fc
ENDCHAR
STARTCHAR 1437
ENCODING 43172
SWIDTH 1024 0
DWIDTH 16 0
BBX 14 14 0 -1
BITMAP
0fe0
1040
2088
5ffc
9108
1108
1ff8
1108
1108
1ff8
1008
1008
2028
4010
ENDCHAR
STARTCHAR 1438
ENCODING 43173
SWIDTH 1024 0
DWIDTH 16 0
BBX 15 14 0 -1
BITMAP
0200
0104
fffe
0000
1ff0
0000
1ff0
0000
1ff0
1010
1010
1010
1ff0
1010
ENDCHAR
STARTCHAR 1439
ENCODING 43174
SWIDTH 1024 0
DWIDTH 16 0
BBX 15 14 0 -1
BITMAP
0840
0830
1018
2108
0280
0440
0830
300e
cfe4
0820
0820
0820
0fe0
0820
ENDCHAR
STARTCHAR 1440
ENCODING 43175
SWIDTH 1024 0
DWIDTH 16 0
BBX 15 14 0 -1
BITMAP
0008
7ffc
0000
0010
1ff8
1010
1010
1010
1ff0
0000
0820
0440
0484
fffe
ENDCHAR
STARTCHAR 1441
ENCODING 43176
SWIDTH 1024 0
DWIDTH 16 0
BBX 15 14 0 -1
BITMAP
0004
fffe
0608
0918
11a0
62c0
04c0
08a0
31a0
0290
048e
3884
0280
0100
ENDCHAR
STARTCHAR 1442
ENCODING 43177
SWIDTH 1024 0
DWIDTH 16 0
BBX 15 14 0 -1
BITMAP
0008
3ffc
2008
2008
3ff8
2008
2008
3ff8
2008
2008
3ff8
0810
100c
e006
ENDCHAR
STARTCHAR 1443
ENCODING 43178
SWIDTH 1024 0
DWIDTH 16 0
BBX 15 14 0 -1
BITMAP
0100
0100
3ff8
0100
0104
fffe
0440
1450
1448
2446
4842
8840
1140
2080
ENDCHAR
STARTCHAR 1444
ENCODING 43179
SWIDTH 1024 0
DWIDTH 16 0
BBX 15 14 0 -1
BITMAP
0100
0110
3ff8
0100
0104
fffe
0100
1110
11f8
1100
1100
2900
4500
83fe
ENDCHAR
STARTCHAR 1445
ENCODING 43180
SWIDTH 1024 0
DWIDTH 16 0
BBX 15 14 0 -1
BITMAP
0010
1ff8
1010
1010
1010
1ff0
1110
0100
1100
11f8
1100
2900
4500
83fe
ENDCHAR
STARTCHAR 1446
ENCODING 43181
SWIDTH 1024 0
DWIDTH 16 0
BBX 15 14 0 -1
BITMAP
0100
0200
0ff0
0810
0ff0
0812
0ff4
0818
7ff0
0090
0310
1c10
e050
0020
ENDCHAR
STARTCHAR 1447
ENCODING 43182
SWIDTH 1024 0
DWIDTH 16 0
BBX 15 14 0 -1
BITMAP
0100
0100
7ffc
0100
3ff8
2108
3ff8
2108
3ff8
0100
fffe
0100
0100
0100
ENDCHAR
STARTCHAR 1448
ENCODING 43183
SWIDTH 1024 0
DWIDTH 16 0
BBX 15 14 0 -1
BITMAP
0200
0110
3ff8
0820
0420
0444
fffe
0100
0108
7ffc
0100
0100
0100
0100
ENDCHAR
STARTCHAR 1449
ENCODING 43184
SWIDTH 1024 0
DWIDTH 16 0
BBX 15 14 0 -1
BITMAP
0010
3ff8
2000
3ff0
2000
3ffc
2a08
2910
28a0
2840
4830
490e
8e04
0800
ENDCHAR
STARTCHAR 1450
ENCODING 43185
SWIDTH 1024 0
DWIDTH 16 0
BBX 15 14 0 -1
BITMAP
43f8
3040
1040
0040
f048
17fc
2040
7040
1040
1040
1140
1080
2800
c7fe
ENDCHAR
STARTCHAR 1451
ENCODING 43186
SWIDTH 1024 0
DWIDTH 16 0
BBX 15 14 0 -1
BITMAP
8040
4440
2442
effe
2444
4444
8448
4440
2440
2402
2402
23fe
5000
8ffe
ENDCHAR
STARTCHAR 1452
ENCODING 43187
SWIDTH 1024 0
DWIDTH 16 0
BBX 15 14 0 -1
BITMAP
0010
47f8
3110
1110
0110
f7f0
1110
2110
6112
110a
1106
1100
3000
cffe
ENDCHAR
STARTCHAR 1453
ENCODING 43188
SWIDTH 1024 0
DWIDTH 16 0
BBX 15 14 0 -1
BITMAP
0100
41fe
3200
0400
f1fc
1008
2030
60c0
1102
1202
1202
11fe
3000
cffe
ENDCHAR
STARTCHAR 1454
ENCODING 43189
SWIDTH 1024 0
DWIDTH 16 0
BBX 15 14 0 -1
BITMAP
4124
3124
1248
0248
f490
1920
2490
6248
1248
1124
1124
1000
2800
c7fe
ENDCHAR
STARTCHAR 1455
ENCODING 43190
SWIDTH 1024 0
DWIDTH 16 0
BBX 14 14 1 -1
BITMAP
3fe0
2020
2020
3fe0
0000
fff0
8210
8210
fff0
8010
8000
8004
8004
7ffc
ENDCHAR
STARTCHAR 1456
ENCODING 43191
SWIDTH 1024 0
DWIDTH 16 0
BBX 15 14 0 -1
BITMAP
7f7c
1244
1244
1248
1250
ffc8
1244
1242
1242
1262
2254
2248
4240
0240
ENDCHAR
STARTCHAR 1457
ENCODING 43192
SWIDTH 1024 0
DWIDTH 16 0
BBX 15 13 0 -1
BITMAP
7f7c
4444
4448
4448
7fd0
0c4c
1442
2442
4462
8454
0448
1440
0840
ENDCHAR
STARTCHAR 1458
ENCODING 43193
SWIDTH 1024 0
DWIDTH 16 0
BBX 15 14 0 -1
BITMAP
087c
0844
0f44
7848
0848
7e50
0848
0844
ff42
1062
1054
2048
4040
0040
ENDCHAR
STARTCHAR 1459
ENCODING 43194
SWIDTH 1024 0
DWIDTH 16 0
BBX 15 14 0 -1
BITMAP
0004
fe7c
2244
2244
fe48
2258
2244
fe42
2242
2262
2254
4a48
8440
0040
ENDCHAR
STARTCHAR 1460
ENCODING 43195
SWIDTH 1024 0
DWIDTH 16 0
BBX 15 14 0 -1
BITMAP
0004
fffe
0440
0444
7ffe
4444
4444
4444
487c
5004
5ff4
4004
7ffc
4004
ENDCHAR
STARTCHAR 1461
ENCODING 43196
SWIDTH 1024 0
DWIDTH 16 0
BBX 15 14 0 -1
BITMAP
0020
0070
3f80
1110
0910
0920
fffe
0340
0520
0910
110c
2106
c102
0100
ENDCHAR
STARTCHAR 1462
ENCODING 43197
SWIDTH 1024 0
DWIDTH 16 0
BBX 15 14 0 -1
BITMAP
0008
3ffc
2108
2108
3ff8
2108
2108
3ff8
0100
0108
7ffc
0100
0104
fffe
ENDCHAR
STARTCHAR 1463
ENCODING 43198
SWIDTH 1024 0
DWIDTH 16 0
BBX 15 14 0 -1
BITMAP
0080
f840
9024
97fe
a100
9108
91fc
8908
8908
d108
a208
8408
8850
8020
ENDCHAR
STARTCHAR 1464
ENCODING 43199
SWIDTH 1024 0
DWIDTH 16 0
BBX 15 14 0 -1
BITMAP
0008
f9fc
8800
9004
a7fe
9090
9090
8890
8890
d090
a092
8112
8212
8c0e
ENDCHAR
STARTCHAR 1465
ENCODING 43200
SWIDTH 1024 0
DWIDTH 16 0
BBX 15 14 0 -1
BITMAP
0110
f910
8910
97fc
a110
a110
9110
9110
97fe
d110
a110
8110
8210
8410
ENDCHAR
STARTCHAR 1466
ENCODING 43201
SWIDTH 1024 0
DWIDTH 16 0
BBX 15 14 0 -1
BITMAP
f004
97fe
9200
a200
93fe
9202
9304
9288
9248
d230
a230
8448
8884
9302
ENDCHAR
STARTCHAR 1467
ENCODING 43202
SWIDTH 1024 0
DWIDTH 16 0
BBX 15 14 0 -1
BITMAP
0040
f820
93fe
a000
9000
88f8
8888
8888
8888
c888
b088
808a
810a
860e
ENDCHAR
STARTCHAR 1468
ENCODING 43203
SWIDTH 1024 0
DWIDTH 16 0
BBX 15 14 0 -1
BITMAP
1010
0820
0440
7ffc
0440
0440
0440
2448
1450
0c60
0440
0440
0440
fffe
ENDCHAR
STARTCHAR 1469
ENCODING 43204
SWIDTH 1024 0
DWIDTH 16 0
BBX 15 14 0 -1
BITMAP
0030
1fc0
0100
0104
fffe
0100
0920
0920
793e
0920
3920
c91e
0100
0100
ENDCHAR
STARTCHAR 1470
ENCODING 43205
SWIDTH 1024 0
DWIDTH 16 0
BBX 15 14 0 -1
BITMAP
0640
f840
4940
2940
2240
ff40
0240
0c40
0b40
1c40
e840
0842
2842
103e
ENDCHAR
STARTCHAR 1471
ENCODING 43206
SWIDTH 1024 0
DWIDTH 16 0
BBX 15 14 0 -1
BITMAP
0100
fffe
0100
3ff8
2108
3ff8
0100
3ff8
0108
fffe
0108
3ff8
0100
0700
ENDCHAR
STARTCHAR 1472
ENCODING 43207
SWIDTH 1024 0
DWIDTH 16 0
BBX 15 14 0 -1
BITMAP
0440
0440
2440
277c
2440
2442
2742
fc3e
4000
0020
1ff0
0000
0008
7ffc
ENDCHAR
STARTCHAR 1473
ENCODING 43208
SWIDTH 1024 0
DWIDTH 16 0
BBX 15 14 0 -1
BITMAP
0008
7ffc
0440
0440
0440
7c7c
4004
4004
4004
7c7c
0440
0440
0440
fffe
ENDCHAR
STARTCHAR 1474
ENCODING 43209
SWIDTH 1024 0
DWIDTH 16 0
BBX 14 14 1 -1
BITMAP
0200
fff8
0000
3fe0
2020
3fe0
0000
3fe0
0080
0100
fffc
0100
0900
0600
ENDCHAR
STARTCHAR 1475
ENCODING 43210
SWIDTH 1024 0
DWIDTH 16 0
BBX 15 14 0 -1
BITMAP
0200
0104
fffe
0000
1ff0
1010
1010
1ff0
0100
0920
1918
210c
4504
0200
ENDCHAR
STARTCHAR 1476
ENCODING 43211
SWIDTH 1024 0
DWIDTH 16 0
BBX 15 14 0 -1
BITMAP
1208
1110
10a0
27fc
6040
a040
23f8
2040
2044
2ffe
2040
2040
2040
2040
ENDCHAR
STARTCHAR 1477
ENCODING 43212
SWIDTH 1024 0
DWIDTH 16 0
BBX 15 14 0 -1
BITMAP
0880
0840
0844
17fe
3080
5140
9148
1350
1520
1920
1110
114e
1184
1100
ENDCHAR
STARTCHAR 1478
ENCODING 43213
SWIDTH 1024 0
DWIDTH 16 0
BBX 15 14 0 -1
BITMAP
0840
0844
17fe
1040
3040
53fc
9010
1010
17fc
1010
1210
1110
1050
1020
ENDCHAR
STARTCHAR 1479
ENCODING 43214
SWIDTH 1024 0
DWIDTH 16 0
BBX 15 14 0 -1
BITMAP
0840
0840
17fc
1040
3044
5ffe
9040
1040
17fc
1040
1040
1044
1ffe
1000
ENDCHAR
STARTCHAR 1480
ENCODING 43215
SWIDTH 1024 0
DWIDTH 16 0
BBX 15 14 0 -1
BITMAP
1040
1044
1ffe
2040
67fc
a444
2444
27fc
2244
2180
20c0
2130
260e
2804
ENDCHAR
STARTCHAR 1481
ENCODING 43216
SWIDTH 1024 0
DWIDTH 16 0
BBX 15 14 0 -1
BITMAP
0880
0884
17ec
1090
30a0
50c4
9ffe
1100
1700
19f8
1100
1100
1100
10fc
ENDCHAR
STARTCHAR 1482
ENCODING 43217
SWIDTH 1024 0
DWIDTH 16 0
BBX 15 14 0 -1
BITMAP
1210
1210
2210
2ffc
6210
a210
2210
3ffe
2000
2210
2208
240c
2804
2000
ENDCHAR
STARTCHAR 1483
ENCODING 43218
SWIDTH 1024 0
DWIDTH 16 0
BBX 14 14 0 -1
BITMAP
1004
1044
1fe4
2204
67d4
a454
2854
3494
2294
2114
2204
2404
2814
2008
ENDCHAR
STARTCHAR 1484
ENCODING 43219
SWIDTH 1024 0
DWIDTH 16 0
BBX 15 14 0 -1
BITMAP
0100
0104
fffe
0910
1120
2950
c58c
0100
0540
0920
1110
2108
c106
0100
ENDCHAR
STARTCHAR 1485
ENCODING 43220
SWIDTH 1024 0
DWIDTH 16 0
BBX 15 14 0 -1
BITMAP
0808
0bfc
0a08
1208
33f8
5000
9248
1248
1248
1248
1248
1448
184e
1000
ENDCHAR
STARTCHAR 1486
ENCODING 43221
SWIDTH 1024 0
DWIDTH 16 0
BBX 15 14 0 -1
BITMAP
0800
0804
0ffe
1040
1040
3084
53fc
9204
1204
13fc
1204
1204
13fc
1204
ENDCHAR
STARTCHAR 1487
ENCODING 43222
SWIDTH 1024 0
DWIDTH 16 0
BBX 15 14 0 -1
BITMAP
1208
1110
20a0
47fc
a110
2110
2110
2ffe
2110
2110
2110
2210
2410
2810
ENDCHAR
STARTCHAR 1488
ENCODING 43223
SWIDTH 1024 0
DWIDTH 16 0
BBX 15 14 0 -1
BITMAP
08fc
0908
1310
10a0
3040
5090
9110
1620
107e
1084
1348
1030
10c0
1700
ENDCHAR
STARTCHAR 1489
ENCODING 43224
SWIDTH 1024 0
DWIDTH 16 0
BBX 15 14 0 -1
BITMAP
1008
1ffc
2808
2ff8
6888
a888
2be8
2aa8
2aa8
2aa8
2aea
288a
3086
2080
ENDCHAR
STARTCHAR 1490
ENCODING 43225
SWIDTH 1024 0
DWIDTH 16 0
BBX 15 14 0 -1
BITMAP
0920
0920
1124
112c
3530
5320
9130
132c
1d24
1120
1222
1222
141e
1800
ENDCHAR
STARTCHAR 1491
ENCODING 43226
SWIDTH 1024 0
DWIDTH 16 0
BBX 15 14 0 -1
BITMAP
07c0
0820
1010
2008
5ff4
8002
0000
3ff8
2448
2448
3ff8
2448
2448
2458
ENDCHAR
STARTCHAR 1492
ENCODING 43227
SWIDTH 1024 0
DWIDTH 16 0
BBX 15 14 0 -1
BITMAP
0800
0920
1210
1408
3bf6
5210
9210
13f0
1210
1210
13f0
1210
1250
1420
ENDCHAR
STARTCHAR 1493
ENCODING 43228
SWIDTH 1024 0
DWIDTH 16 0
BBX 15 14 0 -1
BITMAP
0840
0a48
13fc
1440
3840
5044
9ffe
10c0
10e0
1150
1248
144e
1844
1040
ENDCHAR
STARTCHAR 1494
ENCODING 43229
SWIDTH 1024 0
DWIDTH 16 0
BBX 15 14 0 -1
BITMAP
0880
0884
17fe
1100
3108
53fc
9508
1908
11f8
1108
11f8
1108
1128
1210
ENDCHAR
STARTCHAR 1495
ENCODING 43230
SWIDTH 1024 0
DWIDTH 16 0
BBX 15 14 0 -1
BITMAP
1080
1040
20a0
6110
a208
2406
2bfa
2040
2040
23f8
2040
2040
27fc
2000
ENDCHAR
STARTCHAR 1496
ENCODING 43231
SWIDTH 1024 0
DWIDTH 16 0
BBX 15 14 0 -1
BITMAP
0800
0fe0
1040
2088
7ffc
a108
2108
3ff8
2288
0480
04a2
0892
1082
607e
ENDCHAR
STARTCHAR 1497
ENCODING 43232
SWIDTH 1024 0
DWIDTH 16 0
BBX 15 14 0 -1
BITMAP
0400
3878
2008
2008
3ef8
2008
2008
3ff8
2448
0440
0440
0842
1042
e03e
ENDCHAR
STARTCHAR 1498
ENCODING 43233
SWIDTH 1024 0
DWIDTH 16 0
BBX 15 14 0 -1
BITMAP
0008
3c7c
2448
2448
27c8
2008
3ff8
2448
0440
0440
0842
1042
2042
c03e
ENDCHAR
STARTCHAR 1499
ENCODING 43234
SWIDTH 1024 0
DWIDTH 16 0
BBX 15 14 0 -1
BITMAP
0004
fffe
0100
0100
0100
fffe
8102
a142
9122
a952
c58a
8102
810a
8004
ENDCHAR
STARTCHAR 1500
ENCODING 43235
SWIDTH 1024 0
DWIDTH 16 0
BBX 15 14 0 -1
BITMAP
0020
0ff0
0820
0fe0
0820
0fe0
0820
0fe0
0824
fffe
0440
0c20
1018
2008
ENDCHAR
STARTCHAR 1501
ENCODING 43236
SWIDTH 1024 0
DWIDTH 16 0
BBX 15 14 0 -1
BITMAP
0820
0820
3ff8
0820
0fe0
0820
0fe0
0820
0824
fffe
0000
0820
1818
2008
ENDCHAR
STARTCHAR 1502
ENCODING 43237
SWIDTH 1024 0
DWIDTH 16 0
BBX 15 14 0 -1
BITMAP
0480
0480
0490
3ff8
2490
2490
3ff0
2490
2490
fffe
0840
1820
2010
4010
ENDCHAR
STARTCHAR 1503
ENCODING 43238
SWIDTH 1024 0
DWIDTH 16 0
BBX 14 14 0 -1
BITMAP
0044
4fe4
2204
1214
13d4
0254
1454
2654
2994
e094
2114
2204
2814
2008
ENDCHAR
STARTCHAR 1504
ENCODING 43239
SWIDTH 1024 0
DWIDTH 16 0
BBX 15 14 0 -1
BITMAP
1ff0
0020
0040
8182
9112
8932
8542
8102
8932
b11a
8502
8202
fffe
8002
ENDCHAR
STARTCHAR 1505
ENCODING 43240
SWIDTH 1024 0
DWIDTH 16 0
BBX 15 14 0 -1
BITMAP
0802
0482
ffc2
0412
0892
3f12
1212
0492
1912
6212
0602
1982
e08a
0004
ENDCHAR
STARTCHAR 1506
ENCODING 43241
SWIDTH 1024 0
DWIDTH 16 0
BBX 15 14 0 -1
BITMAP
0100
1110
0920
3ff8
0100
7ffc
0440
0820
3ff8
c226
0220
0420
08a0
1040
ENDCHAR
STARTCHAR 1507
ENCODING 43242
SWIDTH 1024 0
DWIDTH 16 0
BBX 14 14 0 -1
BITMAP
0004
3fc4
2054
3fd4
2214
2214
3fd4
3254
3254
5254
5344
9284
0214
0208
ENDCHAR
STARTCHAR 1508
ENCODING 43243
SWIDTH 1024 0
DWIDTH 16 0
BBX 15 14 0 -1
BITMAP
0802
0902
ff82
0812
7f12
4912
4912
4b12
1c12
2a12
4982
8882
080a
0804
ENDCHAR
STARTCHAR 1509
ENCODING 43244
SWIDTH 1024 0
DWIDTH 16 0
BBX 15 14 0 -1
BITMAP
0002
7f82
1012
2212
4112
7f92
0892
0812
7f12
0812
0812
0f82
f80a
4004
ENDCHAR
STARTCHAR 1510
ENCODING 43245
SWIDTH 1024 0
DWIDTH 16 0
BBX 15 14 0 -1
BITMAP
0182
7e02
0802
0912
ff92
0812
0812
0912
7f92
4112
4112
4102
7f0a
4104
ENDCHAR
STARTCHAR 1511
ENCODING 43246
SWIDTH 1024 0
DWIDTH 16 0
BBX 15 14 0 -1
BITMAP
0402
2402
3f92
2412
4412
ffd2
0412
3f92
2492
2482
2682
2502
040a
0404
ENDCHAR
STARTCHAR 1512
ENCODING 43247
SWIDTH 1024 0
DWIDTH 16 0
BBX 15 14 0 -1
BITMAP
3f02
2202
2212
2212
2992
4812
ff92
0812
1c12
2b12
4902
8802
080a
0804
ENDCHAR
STARTCHAR 1513
ENCODING 43248
SWIDTH 1024 0
DWIDTH 16 0
BBX 15 14 0 -1
BITMAP
1020
0920
ffa0
1024
12fe
2424
7c24
2824
1244
2444
4c44
9284
22a8
0110
ENDCHAR
STARTCHAR 1514
ENCODING 43249
SWIDTH 1024 0
DWIDTH 16 0
BBX 15 13 0 -1
BITMAP
ff90
8010
be10
887e
8812
8812
be12
8812
8812
8812
ff12
8022
ffc4
ENDCHAR
STARTCHAR 1515
ENCODING 43250
SWIDTH 1024 0
DWIDTH 16 0
BBX 15 14 0 -1
BITMAP
0200
0108
7ffc
0820
0820
1450
2288
0100
0104
fffe
0100
0100
0100
0100
ENDCHAR
STARTCHAR 1516
ENCODING 43251
SWIDTH 1024 0
DWIDTH 16 0
BBX 15 14 0 -1
BITMAP
2040
2040
23fc
2044
f844
2094
2108
2208
2fbe
228a
228a
228a
2492
2104
ENDCHAR
STARTCHAR 1517
ENCODING 43252
SWIDTH 1024 0
DWIDTH 16 0
BBX 15 14 0 -1
BITMAP
0108
01fc
0100
1ff0
1010
1ff0
1010
1ff0
1110
0104
fffe
0100
0100
0100
ENDCHAR
STARTCHAR 1518
ENCODING 43253
SWIDTH 1024 0
DWIDTH 16 0
BBX 15 14 0 -1
BITMAP
0100
0210
1ff8
1110
1ff0
1110
1210
1ff0
0480
0884
fffe
0080
0080
0080
ENDCHAR
STARTCHAR 1519
ENCODING 43254
SWIDTH 1024 0
DWIDTH 16 0
BBX 15 14 0 -1
BITMAP
0810
0810
7f10
0810
0818
ff94
0812
7f12
0810
0810
0f10
7810
2010
0010
ENDCHAR
STARTCHAR 1520
ENCODING 43255
SWIDTH 1024 0
DWIDTH 16 0
BBX 15 14 0 -1
BITMAP
0100
1110
0920
7ffc
0200
fffe
0820
1ff0
282e
c824
0920
08c8
0808
07f8
ENDCHAR
STARTCHAR 1521
ENCODING 43256
SWIDTH 1024 0
DWIDTH 16 0
BBX 15 14 0 -1
BITMAP
2000
2204
3f7e
4844
8844
ff44
0844
0844
4e44
4864
4e54
f048
4040
0040
ENDCHAR
STARTCHAR 1522
ENCODING 43257
SWIDTH 1024 0
DWIDTH 16 0
BBX 15 14 0 -1
BITMAP
1000
107e
2022
4022
ff22
5522
5522
5522
5522
55a2
562c
5820
e020
0020
ENDCHAR
STARTCHAR 1523
ENCODING 43258
SWIDTH 1024 0
DWIDTH 16 0
BBX 15 14 0 -1
BITMAP
ff80
2200
23fc
3e04
2284
2288
3e88
2250
2220
3e50
e248
428e
0304
0200
ENDCHAR
STARTCHAR 1524
ENCODING 43259
SWIDTH 1024 0
DWIDTH 16 0
BBX 15 14 0 -1
BITMAP
0800
0f00
08fc
0804
ff88
0888
0848
2c50
2b20
4950
4850
8888
290e
1204
ENDCHAR
STARTCHAR 1525
ENCODING 43260
SWIDTH 1024 0
DWIDTH 16 0
BBX 15 14 0 -1
BITMAP
0020
3fc8
1218
0920
7ffe
4002
9fe4
0020
0840
0480
0300
02c0
0c30
300e
ENDCHAR
STARTCHAR 1526
ENCODING 43261
SWIDTH 1024 0
DWIDTH 16 0
BBX 15 14 0 -1
BITMAP
0040
0840
fc48
8bfc
8840
8844
8ffe
8840
88e0
8950
fa50
844e
0844
0040
ENDCHAR
STARTCHAR 1527
ENCODING 43262
SWIDTH 1024 0
DWIDTH 16 0
BBX 15 14 0 -1
BITMAP
0004
07fe
f808
8808
8bc8
8a48
8a48
8a48
fbc8
8248
0008
0008
0028
0010
ENDCHAR
STARTCHAR 1528
ENCODING 43328
SWIDTH 1024 0
DWIDTH 16 0
BBX 15 14 0 -1
BITMAP
0400
0400
f404
9fbe
94a4
94a4
94a4
94a4
94a4
f4a4
88a4
0abc
1124
2000
ENDCHAR
STARTCHAR 1529
ENCODING 43329
SWIDTH 1024 0
DWIDTH 16 0
BBX 15 14 0 -1
BITMAP
0004
07fe
f820
8820
8820
8840
88c0
8950
894c
8a46
fc42
8840
0044
0ffe
ENDCHAR
STARTCHAR 1530
ENCODING 43330
SWIDTH 1024 0
DWIDTH 16 0
BBX 15 14 0 -1
BITMAP
0040
0040
f844
8ffe
8840
8840
8848
8bfc
8a08
fa08
8a08
0208
03f8
0208
ENDCHAR
STARTCHAR 1531
ENCODING 43331
SWIDTH 1024 0
DWIDTH 16 0
BBX 15 14 0 -1
BITMAP
0008
09fc
fd08
8908
8908
89f8
8908
8908
89f8
8908
f908
8908
0108
07fe
ENDCHAR
STARTCHAR 1532
ENCODING 43332
SWIDTH 1024 0
DWIDTH 16 0
BBX 15 14 0 -1
BITMAP
0020
0020
0824
fdfe
8924
8924
89fc
8924
8924
f9fc
8924
0020
0020
0020
ENDCHAR
STARTCHAR 1533
ENCODING 43333
SWIDTH 1024 0
DWIDTH 16 0
BBX 15 14 0 -1
BITMAP
0004
09fe
fd24
8924
89fc
8924
8924
89fc
f924
8820
0020
0020
0020
0020
ENDCHAR
STARTCHAR 1534
ENCODING 43334
SWIDTH 1024 0
DWIDTH 16 0
BBX 15 14 0 -1
BITMAP
0020
0820
fd24
8924
8924
89fc
8824
8820
fa22
8a22
0222
0222
03fe
0202
ENDCHAR
STARTCHAR 1535
ENCODING 43335
SWIDTH 1024 0
DWIDTH 16 0
BBX 14 14 1 -1
BITMAP
0810
fdf8
8910
8910
f9f0
0000
0080
1fc0
1080
1080
1084
2084
4084
807c
ENDCHAR
STARTCHAR 1536
ENCODING 43336
SWIDTH 1024 0
DWIDTH 16 0
BBX 15 14 0 -1
BITMAP
0080
0084
f8fe
8904
8be4
8d24
8924
89e4
f904
8918
0100
0102
0102
00fe
ENDCHAR
STARTCHAR 1537
ENCODING 43337
SWIDTH 1024 0
DWIDTH 16 0
BBX 15 14 0 -1
BITMAP
0008
001c
fbe0
8a48
8958
8960
8844
8ffe
8840
f840
8840
0040
0140
0080
ENDCHAR
STARTCHAR 1538
ENCODING 43338
SWIDTH 1024 0
DWIDTH 16 0
BBX 15 14 0 -1
BITMAP
0088
0888
fc88
8908
8bfe
8d08
8948
8928
8928
f908
8908
0108
0128
0110
ENDCHAR
STARTCHAR 1539
ENCODING 43339
SWIDTH 1024 0
DWIDTH 16 0
BBX 15 14 0 -1
BITMAP
0008
001c
fbe0
8a48
8a48
8a48
8a48
8a48
fa48
8248
04a4
0494
09f2
1010
ENDCHAR
STARTCHAR 1540
ENCODING 43340
SWIDTH 1024 0
DWIDTH 16 0
BBX 15 14 0 -1
BITMAP
0200
f204
927e
9fa4
92a4
94a4
94a4
9924
f524
8214
0508
0894
1022
00c0
ENDCHAR
STARTCHAR 1541
ENCODING 43341
SWIDTH 1024 0
DWIDTH 16 0
BBX 15 14 0 -1
BITMAP
0200
0700
7800
0804
08fe
ff84
0884
1884
1c84
2a84
4884
88fc
0884
0800
ENDCHAR
STARTCHAR 1542
ENCODING 43342
SWIDTH 1024 0
DWIDTH 16 0
BBX 15 14 0 -1
BITMAP
0080
0888
fcfc
8908
8910
8aa0
88e0
8910
8ace
fc64
8820
0080
0060
0020
ENDCHAR
STARTCHAR 1543
ENCODING 43343
SWIDTH 1024 0
DWIDTH 16 0
BBX 15 14 0 -1
BITMAP
0004
03fe
f204
9204
93fc
9200
9280
9280
92fc
f480
8482
0882
1082
207e
ENDCHAR
STARTCHAR 1544
ENCODING 43344
SWIDTH 1024 0
DWIDTH 16 0
BBX 15 14 0 -1
BITMAP
0004
7ffe
4104
4fe4
4104
4104
5ff4
4004
4fe4
4824
4fe4
4824
8014
0008
ENDCHAR
STARTCHAR 1545
ENCODING 43345
SWIDTH 1024 0
DWIDTH 16 0
BBX 15 14 0 -1
BITMAP
0100
f904
89fe
8a80
8a80
8c88
88fc
8880
8880
f884
88fe
0080
0080
0080
ENDCHAR
STARTCHAR 1546
ENCODING 43346
SWIDTH 1024 0
DWIDTH 16 0
BBX 15 14 0 -1
BITMAP
0380
0440
0820
1010
2fe8
c006
0000
3ef8
2288
2288
3ec8
22b0
0080
0080
ENDCHAR
STARTCHAR 1547
ENCODING 43347
SWIDTH 1024 0
DWIDTH 16 0
BBX 15 14 0 -1
BITMAP
1020
1220
1f20
6220
1458
0888
1400
23fe
c000
1ff0
1010
1010
1ff0
1010
ENDCHAR
STARTCHAR 1548
ENCODING 43348
SWIDTH 1024 0
DWIDTH 16 0
BBX 15 14 0 -1
BITMAP
0004
fffe
8204
bff4
8204
8204
9fe4
9024
9024
9fe4
9024
8004
fffc
8004
ENDCHAR
STARTCHAR 1549
ENCODING 43349
SWIDTH 1024 0
DWIDTH 16 0
BBX 15 14 0 -1
BITMAP
1080
1040
1048
13fc
1000
7c08
1108
1088
1090
1090
1c20
e020
4044
07fe
ENDCHAR
STARTCHAR 1550
ENCODING 43350
SWIDTH 1024 0
DWIDTH 16 0
BBX 15 14 0 -1
BITMAP
1004
17fe
1004
11e4
fd24
1124
1124
1124
11e4
1d04
f004
4004
0014
0008
ENDCHAR
STARTCHAR 1551
ENCODING 43351
SWIDTH 1024 0
DWIDTH 16 0
BBX 15 14 0 -1
BITMAP
1008
17fc
1040
1248
fd48
1150
1150
1044
1ffe
1c40
e040
4040
0040
0040
ENDCHAR
STARTCHAR 1552
ENCODING 43352
SWIDTH 1024 0
DWIDTH 16 0
BBX 15 14 0 -1
BITMAP
1108
1108
1108
17fe
fd08
1108
1108
11f8
1d08
f108
4108
0108
01f8
0108
ENDCHAR
STARTCHAR 1553
ENCODING 43353
SWIDTH 1024 0
DWIDTH 16 0
BBX 15 14 0 -1
BITMAP
1020
1020
13fe
fe22
1224
1220
13fc
1284
1e48
e250
4220
0450
088e
1304
ENDCHAR
STARTCHAR 1554
ENCODING 43354
SWIDTH 1024 0
DWIDTH 16 0
BBX 15 14 0 -1
BITMAP
2000
2008
23fc
2208
fa08
2208
23f8
2208
2208
3bf8
e208
4000
0000
0ffe
ENDCHAR
STARTCHAR 1555
ENCODING 43355
SWIDTH 1024 0
DWIDTH 16 0
BBX 15 14 0 -1
BITMAP
2040
2040
2044
27fe
fc44
2444
27fc
2444
3c44
e7fc
4444
0040
0040
0040
ENDCHAR
STARTCHAR 1556
ENCODING 43356
SWIDTH 1024 0
DWIDTH 16 0
BBX 15 14 0 -1
BITMAP
101c
11e0
1100
1100
fd04
11fe
1110
1110
1d38
f11c
4214
0210
0410
0010
ENDCHAR
STARTCHAR 1557
ENCODING 43357
SWIDTH 1024 0
DWIDTH 16 0
BBX 15 14 0 -1
BITMAP
0200
0104
fffe
0880
10f8
1108
3288
5650
9920
10c0
10c0
1130
120e
1c04
ENDCHAR
STARTCHAR 1558
ENCODING 43358
SWIDTH 1024 0
DWIDTH 16 0
BBX 15 14 0 -1
BITMAP
0100
0108
7ffc
0100
3ff8
0200
fffe
0920
311e
cfe4
0100
1ff0
0100
0100
ENDCHAR
STARTCHAR 1559
ENCODING 43359
SWIDTH 1024 0
DWIDTH 16 0
BBX 15 14 0 -1
BITMAP
0100
0110
3ff8
0280
0440
0824
fffe
0010
1f90
1090
1090
1f90
0050
0020
ENDCHAR
STARTCHAR 1560
ENCODING 43360
SWIDTH 1024 0
DWIDTH 16 0
BBX 15 14 0 -1
BITMAP
0200
0208
7ffc
0820
1010
204e
cfe4
0000
3ff8
0100
0920
1118
6108
0100
ENDCHAR
STARTCHAR 1561
ENCODING 43361
SWIDTH 1024 0
DWIDTH 16 0
BBX 15 14 0 -1
BITMAP
0100
0108
7ffc
0280
0c60
311e
c104
1ff0
1110
1ff0
1110
1ff0
0100
00fe
ENDCHAR
STARTCHAR 1562
ENCODING 43362
SWIDTH 1024 0
DWIDTH 16 0
BBX 15 14 0 -1
BITMAP
0100
7ffc
0280
0540
0930
37ce
c104
0920
0820
7ffc
0820
0820
1020
2020
ENDCHAR
STARTCHAR 1563
ENCODING 43363
SWIDTH 1024 0
DWIDTH 16 0
BBX 15 14 0 -1
BITMAP
0200
7ffc
0820
0444
fffe
0100
0208
7ffc
0420
0820
0640
0180
0670
3808
ENDCHAR
STARTCHAR 1564
ENCODING 43364
SWIDTH 1024 0
DWIDTH 16 0
BBX 15 14 0 -1
BITMAP
0100
7ffc
3ff0
0110
fffe
0110
3ff0
0300
fffe
0820
0640
0180
0660
1810
ENDCHAR
STARTCHAR 1565
ENCODING 43365
SWIDTH 1024 0
DWIDTH 16 0
BBX 15 14 0 -1
BITMAP
00f0
3f80
0104
fffe
0540
1930
610c
0200
fffe
0420
0440
0380
0c60
3010
ENDCHAR
STARTCHAR 1566
ENCODING 43366
SWIDTH 1024 0
DWIDTH 16 0
BBX 15 14 0 -1
BITMAP
2040
2048
23fc
f840
4844
4ffe
4840
88e0
50d0
2148
524e
4c44
8840
0040
ENDCHAR
STARTCHAR 1567
ENCODING 43367
SWIDTH 1024 0
DWIDTH 16 0
BBX 15 14 0 -1
BITMAP
1004
11fe
1104
fd04
25fc
2500
2540
497c
2940
1240
2a42
4642
843e
0800
ENDCHAR
STARTCHAR 1568
ENCODING 43368
SWIDTH 1024 0
DWIDTH 16 0
BBX 15 14 0 -1
BITMAP
1020
1020
1024
13fe
fc20
2424
45fe
2504
1904
1104
2904
4504
81fc
0104
ENDCHAR
STARTCHAR 1569
ENCODING 43369
SWIDTH 1024 0
DWIDTH 16 0
BBX 15 14 0 -1
BITMAP
1004
10fe
10a4
fc94
2484
2484
27fe
44a4
2894
1104
29fe
4404
8428
0010
ENDCHAR
STARTCHAR 1570
ENCODING 43370
SWIDTH 1024 0
DWIDTH 16 0
BBX 15 14 0 -1
BITMAP
1008
11fc
1108
1108
fd08
25f8
2508
2508
45f8
2908
1108
2908
4508
87fe
ENDCHAR
STARTCHAR 1571
ENCODING 43371
SWIDTH 1024 0
DWIDTH 16 0
BBX 15 14 0 -1
BITMAP
1004
11fe
1154
fd54
2554
2554
27fe
4554
2954
1154
2954
4554
810c
0004
ENDCHAR
STARTCHAR 1572
ENCODING 43372
SWIDTH 1024 0
DWIDTH 16 0
BBX 15 14 0 -1
BITMAP
1040
1040
1080
fc88
2504
27fe
2402
2400
49fc
2904
3904
4504
85fc
0104
ENDCHAR
STARTCHAR 1573
ENCODING 43373
SWIDTH 1024 0
DWIDTH 16 0
BBX 15 14 0 -1
BITMAP
1020
1120
1124
fdfe
2520
2620
2420
2420
45fc
2820
1020
2820
4424
87fe
ENDCHAR
STARTCHAR 1574
ENCODING 43374
SWIDTH 1024 0
DWIDTH 16 0
BBX 15 14 0 -1
BITMAP
1020
103c
11e0
fd20
2520
2520
25fe
2422
4462
286a
10a4
2920
4620
8020
ENDCHAR
STARTCHAR 1575
ENCODING 43375
SWIDTH 1024 0
DWIDTH 16 0
BBX 15 14 0 -1
BITMAP
1020
1020
1024
fdfe
2524
2524
2524
45fc
2924
1124
2924
4524
85fc
0104
ENDCHAR
STARTCHAR 1576
ENCODING 43376
SWIDTH 1024 0
DWIDTH 16 0
BBX 15 14 0 -1
BITMAP
4080
4080
49fe
4a22
fc22
4824
4870
48a8
4924
2a22
1020
2820
44a0
8240
ENDCHAR
STARTCHAR 1577
ENCODING 43377
SWIDTH 1024 0
DWIDTH 16 0
BBX 15 14 0 -1
BITMAP
1000
1008
1108
fd08
2508
2508
2548
4528
2928
1188
2b10
4428
8446
0082
ENDCHAR
STARTCHAR 1578
ENCODING 43378
SWIDTH 1024 0
DWIDTH 16 0
BBX 15 14 0 -1
BITMAP
4020
4222
4924
48a8
fdfc
4820
4820
4820
4bfe
2820
1020
2820
4420
8220
ENDCHAR
STARTCHAR 1579
ENCODING 43379
SWIDTH 1024 0
DWIDTH 16 0
BBX 15 14 0 -1
BITMAP
1ff0
0020
00c0
0104
fffe
0100
0100
0500
0208
3ffc
2448
2448
2448
fffe
ENDCHAR
STARTCHAR 1580
ENCODING 43380
SWIDTH 1024 0
DWIDTH 16 0
BBX 15 14 0 -1
BITMAP
0010
7c38
04c0
0b20
12a0
16a0
1aa0
32a0
d290
1290
1488
152e
59e4
2020
ENDCHAR
STARTCHAR 1581
ENCODING 43381
SWIDTH 1024 0
DWIDTH 16 0
BBX 15 14 0 -1
BITMAP
0060
1f80
0108
7ffc
0540
0930
310e
cfe4
0040
fffe
0100
0100
0500
0200
ENDCHAR
STARTCHAR 1582
ENCODING 43382
SWIDTH 1024 0
DWIDTH 16 0
BBX 15 14 0 -1
BITMAP
0200
0104
7ffe
4004
8008
1ff0
0000
fffe
0100
1120
3110
410c
8104
0100
ENDCHAR
STARTCHAR 1583
ENCODING 43383
SWIDTH 1024 0
DWIDTH 16 0
BBX 15 14 0 -1
BITMAP
0200
0104
7ffe
4004
8008
3ff0
0100
1100
1110
11f8
1100
2900
4500
83fe
ENDCHAR
STARTCHAR 1584
ENCODING 43384
SWIDTH 1024 0
DWIDTH 16 0
BBX 15 14 0 -1
BITMAP
0200
0100
7ffe
4002
9fe4
1020
1020
1fe0
1010
1ff8
1010
1010
1ff0
1000
ENDCHAR
STARTCHAR 1585
ENCODING 43385
SWIDTH 1024 0
DWIDTH 16 0
BBX 15 14 0 -1
BITMAP
0200
0100
7ffe
4002
8024
0ff0
0820
0820
0fe0
0820
0fe0
0820
0824
fffe
ENDCHAR
STARTCHAR 1586
ENCODING 43386
SWIDTH 1024 0
DWIDTH 16 0
BBX 15 14 0 -1
BITMAP
0200
0100
7ffe
4002
8104
0100
3ff8
2108
2108
3ff8
2108
2108
3ff8
2008
ENDCHAR
STARTCHAR 1587
ENCODING 43387
SWIDTH 1024 0
DWIDTH 16 0
BBX 15 14 0 -1
BITMAP
0200
0100
7ffe
4002
9004
1ef8
1288
2288
32a8
4a90
8480
0882
1082
207e
ENDCHAR
STARTCHAR 1588
ENCODING 43388
SWIDTH 1024 0
DWIDTH 16 0
BBX 14 14 1 -1
BITMAP
0200
4210
3230
1240
0208
fffc
8008
9fc8
9048
9048
9fc8
8008
8028
8010
ENDCHAR
STARTCHAR 1589
ENCODING 43389
SWIDTH 1024 0
DWIDTH 16 0
BBX 14 14 0 -1
BITMAP
0008
3ffc
2008
3ff8
2080
2888
2888
2ff8
2080
3084
5084
5084
9ffc
1004
ENDCHAR
STARTCHAR 1590
ENCODING 43390
SWIDTH 1024 0
DWIDTH 16 0
BBX 15 14 0 -1
BITMAP
0008
3ffc
2008
3ff8
2080
2084
3ffe
2080
2080
2ff8
2808
4808
8ff8
0808
ENDCHAR
STARTCHAR 1625
ENCODING 43425
SWIDTH 1024 0
DWIDTH 16 0
BBX 14 14 0 -1
BITMAP
7ffc
4004
4004
7ffc
4000
4080
4080
5084
53e4
5084
5084
57f4
9004
9ffc
ENDCHAR
STARTCHAR 1626
ENCODING 43426
SWIDTH 1024 0
DWIDTH 16 0
BBX 15 14 0 -1
BITMAP
2004
23fe
2204
abfc
aa20
aa20
aa28
abfc
aa20
aa20
fa22
8a92
030a
0206
ENDCHAR
STARTCHAR 1627
ENCODING 43427
SWIDTH 1024 0
DWIDTH 16 0
BBX 14 14 1 -1
BITMAP
0008
fffc
8008
a028
9048
8888
bfe8
8208
9248
9248
9248
9fc8
8028
8010
ENDCHAR
STARTCHAR 1628
ENCODING 43428
SWIDTH 1024 0
DWIDTH 16 0
BBX 15 14 0 -1
BITMAP
0080
2084
3ffc
0000
7ffe
2000
27fc
2040
2044
2ffe
2040
2040
4040
8040
ENDCHAR
STARTCHAR 1629
ENCODING 43429
SWIDTH 1024 0
DWIDTH 16 0
BBX 15 14 0 -1
BITMAP
0100
2108
2108
3ff8
0000
fffe
0400
0810
1ff8
2810
4810
8810
0ff0
0810
ENDCHAR
STARTCHAR 1630
ENCODING 43430
SWIDTH 1024 0
DWIDTH 16 0
BBX 15 14 0 -1
BITMAP
0020
2020
2020
2022
abfe
aa22
aa22
aa22
abfe
aa22
aa22
fa22
8bfe
0202
ENDCHAR
STARTCHAR 1631
ENCODING 43431
SWIDTH 1024 0
DWIDTH 16 0
BBX 15 14 0 -1
BITMAP
0940
1124
11fe
3f00
5080
9084
1044
113c
0100
2108
2108
2108
3ff8
2008
ENDCHAR
STARTCHAR 1632
ENCODING 43432
SWIDTH 1024 0
DWIDTH 16 0
BBX 15 14 0 -1
BITMAP
0030
1fc0
1000
1010
1ff8
1080
1084
fffe
0100
2108
2108
2108
3ff8
2008
ENDCHAR
STARTCHAR 1633
ENCODING 43433
SWIDTH 1024 0
DWIDTH 16 0
BBX 15 14 0 -1
BITMAP
0200
0100
7ffe
4002
8924
0920
311c
1ff0
1110
1110
1150
1120
0100
0100
ENDCHAR
STARTCHAR 1634
ENCODING 43434
SWIDTH 1024 0
DWIDTH 16 0
BBX 15 14 0 -1
BITMAP
3ff8
0008
fffe
0008
3ff8
0000
fffe
8102
bffa
2108
2108
2138
0100
0100
ENDCHAR
STARTCHAR 1635
ENCODING 43435
SWIDTH 1024 0
DWIDTH 16 0
BBX 15 14 0 -1
BITMAP
2040
2040
2044
f87e
a840
a840
a848
abfc
aa08
aa08
ba08
2208
23f8
2208
ENDCHAR
STARTCHAR 1636
ENCODING 43436
SWIDTH 1024 0
DWIDTH 16 0
BBX 15 14 0 -1
BITMAP
2040
2040
2084
f9fe
a904
a904
a904
a9fc
a904
a904
b904
2104
21fc
2104
ENDCHAR
STARTCHAR 1637
ENCODING 43437
SWIDTH 1024 0
DWIDTH 16 0
BBX 12 14 2 -1
BITMAP
0800
1040
7fe0
4040
7fc0
4040
7fc0
0420
fff0
8420
8420
84a0
8440
0400
ENDCHAR
STARTCHAR 1638
ENCODING 43438
SWIDTH 1024 0
DWIDTH 16 0
BBX 15 14 0 -1
BITMAP
0804
fefe
1244
3228
0c10
1228
e146
0100
3ff8
2108
2108
2128
2110
0100
ENDCHAR
STARTCHAR 1639
ENCODING 43439
SWIDTH 1024 0
DWIDTH 16 0
BBX 15 14 0 -1
BITMAP
0100
3ff8
0100
0104
fffe
0820
0440
3ff8
0100
0108
7ffc
0100
0100
0100
ENDCHAR
STARTCHAR 1640
ENCODING 43440
SWIDTH 1024 0
DWIDTH 16 0
BBX 15 14 0 -1
BITMAP
0100
3ffe
2080
2ffc
2088
3ffe
2088
2ff8
2088
2140
4140
4230
840e
1804
ENDCHAR
STARTCHAR 1641
ENCODING 43441
SWIDTH 1024 0
DWIDTH 16 0
BBX 15 14 0 -1
BITMAP
0100
0084
3ffe
2080
2088
20fc
2080
2080
27f8
2408
4408
4408
87f8
0408
ENDCHAR
STARTCHAR 1642
ENCODING 43442
SWIDTH 1024 0
DWIDTH 16 0
BBX 15 14 0 -1
BITMAP
0200
0104
3ffe
2200
2210
2410
27fe
2c10
3510
2490
2490
4410
8450
0420
ENDCHAR
STARTCHAR 1643
ENCODING 43443
SWIDTH 1024 0
DWIDTH 16 0
BBX 15 14 0 -1
BITMAP
0200
0104
3ffe
2070
2f80
2880
2888
2ffc
2880
2840
4a40
5c24
8814
07cc
ENDCHAR
STARTCHAR 1644
ENCODING 43444
SWIDTH 1024 0
DWIDTH 16 0
BBX 15 14 0 -1
BITMAP
0100
0084
3ffe
2400
27fc
2808
37c8
2448
2448
27c8
4428
4412
8402
03fe
ENDCHAR
STARTCHAR 1645
ENCODING 43445
SWIDTH 1024 0
DWIDTH 16 0
BBX 15 14 0 -1
BITMAP
0008
001c
f9e0
1020
2120
413e
f920
0920
0920
8920
53fe
2000
5000
8ffe
ENDCHAR
STARTCHAR 1646
ENCODING 43446
SWIDTH 1024 0
DWIDTH 16 0
BBX 15 14 0 -1
BITMAP
f840
0824
0ffe
0840
f840
8084
8108
f9f0
0820
0840
0888
0904
53fe
2002
ENDCHAR
STARTCHAR 1647
ENCODING 43447
SWIDTH 1024 0
DWIDTH 16 0
BBX 15 14 0 -1
BITMAP
0008
f81c
0be0
0a50
fa50
8a50
8248
fa48
0a48
0a48
0aa4
1294
a4f2
4800
ENDCHAR
STARTCHAR 1648
ENCODING 43448
SWIDTH 1024 0
DWIDTH 16 0
BBX 15 14 0 -1
BITMAP
22fc
ff44
2248
1430
0848
f686
3ff0
0010
3ff0
2000
3ff8
0008
0050
0020
ENDCHAR
STARTCHAR 1649
ENCODING 43449
SWIDTH 1024 0
DWIDTH 16 0
BBX 15 14 0 -1
BITMAP
0880
0840
1008
27fc
4040
0840
1048
37fc
5040
9040
1040
1044
1ffe
1000
ENDCHAR
STARTCHAR 1650
ENCODING 43450
SWIDTH 1024 0
DWIDTH 16 0
BBX 15 14 0 -1
BITMAP
0808
0bfc
1040
2040
4840
8848
127c
3240
5240
9240
1240
1244
1ffe
1000
ENDCHAR
STARTCHAR 1651
ENCODING 43451
SWIDTH 1024 0
DWIDTH 16 0
BBX 15 14 0 -1
BITMAP
1090
1090
27fe
4092
8892
17fe
2492
6490
a7fe
2092
2092
2114
2210
2410
ENDCHAR
STARTCHAR 1652
ENCODING 43452
SWIDTH 1024 0
DWIDTH 16 0
BBX 15 14 0 -1
BITMAP
0820
0824
13fe
2a22
4a24
9220
22fc
6284
a288
2248
2250
2420
2450
298e
ENDCHAR
STARTCHAR 1653
ENCODING 43453
SWIDTH 1024 0
DWIDTH 16 0
BBX 15 14 0 -1
BITMAP
3ff8
0200
0204
fffe
0440
0820
1210
220e
cb24
0a90
1248
2248
0a00
0400
ENDCHAR
STARTCHAR 1654
ENCODING 43454
SWIDTH 1024 0
DWIDTH 16 0
BBX 15 14 0 -1
BITMAP
0100
0108
3ffc
2108
2108
3ff8
2108
0100
0000
1200
5104
5112
9012
0ff0
ENDCHAR
STARTCHAR 1655
ENCODING 43455
SWIDTH 1024 0
DWIDTH 16 0
BBX 15 14 0 -1
BITMAP
0808
0ffc
1248
2248
4488
0488
0928
1210
0000
0200
5184
5092
9012
0ff0
ENDCHAR
STARTCHAR 1656
ENCODING 43456
SWIDTH 1024 0
DWIDTH 16 0
BBX 15 14 0 -1
BITMAP
0100
0280
0440
0830
37ce
c004
1ff0
0010
0020
0240
4904
4812
8812
07f0
ENDCHAR
STARTCHAR 1657
ENCODING 43457
SWIDTH 1024 0
DWIDTH 16 0
BBX 15 14 0 -1
BITMAP
0080
0440
0820
1ff0
242e
c424
0920
30c0
0000
0900
4884
4892
8812
07f0
ENDCHAR
STARTCHAR 1658
ENCODING 43458
SWIDTH 1024 0
DWIDTH 16 0
BBX 15 14 0 -1
BITMAP
1040
1048
13fc
5a48
5648
5248
9248
1248
1ffe
1040
10a0
1110
120e
1404
ENDCHAR
STARTCHAR 1659
ENCODING 43459
SWIDTH 1024 0
DWIDTH 16 0
BBX 15 14 0 -1
BITMAP
1008
17fc
1040
5840
5440
5048
927c
1240
1240
1240
1240
1244
1ffe
1000
ENDCHAR
STARTCHAR 1660
ENCODING 43460
SWIDTH 1024 0
DWIDTH 16 0
BBX 15 14 0 -1
BITMAP
1040
1040
1048
5bfc
5440
5040
9044
17fe
1040
1080
1110
1208
17fc
1004
ENDCHAR
STARTCHAR 1661
ENCODING 43461
SWIDTH 1024 0
DWIDTH 16 0
BBX 15 14 0 -1
BITMAP
1040
1048
5044
5bfe
5440
5150
9150
1150
1150
1150
1150
124c
1040
1040
ENDCHAR
STARTCHAR 1662
ENCODING 43462
SWIDTH 1024 0
DWIDTH 16 0
BBX 15 14 0 -1
BITMAP
1040
1044
13fe
5880
5520
5124
93fe
1524
1924
1124
1124
112c
1020
1020
ENDCHAR
STARTCHAR 1663
ENCODING 43463
SWIDTH 1024 0
DWIDTH 16 0
BBX 15 14 0 -1
BITMAP
1008
17fc
1208
1110
58a0
5440
50b0
930e
1c44
17fc
1040
1044
1ffe
1000
ENDCHAR
STARTCHAR 1664
ENCODING 43464
SWIDTH 1024 0
DWIDTH 16 0
BBX 15 14 0 -1
BITMAP
1020
1020
1044
11fe
5904
5504
9104
11fc
1104
1104
1104
1104
11fc
1104
ENDCHAR
STARTCHAR 1665
ENCODING 43465
SWIDTH 1024 0
DWIDTH 16 0
BBX 15 14 0 -1
BITMAP
1040
1080
1880
5508
5204
57fe
9002
1000
13fc
1204
1204
1204
13fc
1204
ENDCHAR
STARTCHAR 1666
ENCODING 43466
SWIDTH 1024 0
DWIDTH 16 0
BBX 15 14 0 -1
BITMAP
1040
1240
1248
5bfc
5640
5440
9440
1840
13f8
1040
1040
1044
1ffe
1000
ENDCHAR
STARTCHAR 1667
ENCODING 43467
SWIDTH 1024 0
DWIDTH 16 0
BBX 15 14 0 -1
BITMAP
1008
13fc
1208
5bf8
5608
5280
9280
12fc
1280
1280
1482
1482
187e
1000
ENDCHAR
STARTCHAR 1668
ENCODING 43468
SWIDTH 1024 0
DWIDTH 16 0
BBX 15 14 0 -1
BITMAP
10a0
10a0
13f8
58a8
54a8
53f8
92a0
12a4
13fe
1124
1134
1228
1420
1820
ENDCHAR
STARTCHAR 1669
ENCODING 43469
SWIDTH 1024 0
DWIDTH 16 0
BBX 15 14 0 -1
BITMAP
1000
1008
13fc
5a08
5608
53f8
9208
1208
13f8
1208
1000
1004
1ffe
1000
ENDCHAR
STARTCHAR 1670
ENCODING 43470
SWIDTH 1024 0
DWIDTH 16 0
BBX 15 14 0 -1
BITMAP
0050
0048
fffe
0040
0240
3f48
2248
2250
3e50
2020
0722
7852
008a
0304
ENDCHAR
STARTCHAR 1671
ENCODING 43471
SWIDTH 1024 0
DWIDTH 16 0
BBX 15 14 0 -1
BITMAP
2450
2448
2440
2444
3c7e
07c0
0440
3c48
2450
2420
2460
4492
850a
0404
ENDCHAR
STARTCHAR 1672
ENCODING 43472
SWIDTH 1024 0
DWIDTH 16 0
BBX 14 14 0 -1
BITMAP
0060
3f80
2000
3ff8
2008
3ff8
2100
2088
3ffc
2200
47f0
4410
8890
3060
ENDCHAR
STARTCHAR 1673
ENCODING 43473
SWIDTH 1024 0
DWIDTH 16 0
BBX 14 14 0 -1
BITMAP
0060
3f80
2000
3ff8
2008
3ff8
2120
2110
3ffc
2100
4280
4460
881c
3008
ENDCHAR
STARTCHAR 1674
ENCODING 43474
SWIDTH 1024 0
DWIDTH 16 0
BBX 15 14 0 -1
BITMAP
0208
071c
78e0
4080
7e84
42fe
4288
7e88
4288
4088
4088
4108
8208
0008
ENDCHAR
STARTCHAR 1675
ENCODING 43475
SWIDTH 1024 0
DWIDTH 16 0
BBX 15 14 0 -1
BITMAP
1fe0
0040
0184
790c
0ff0
0920
1110
17d0
2110
2108
4fe6
8100
0500
0200
ENDCHAR
STARTCHAR 1676
ENCODING 43476
SWIDTH 1024 0
DWIDTH 16 0
BBX 15 14 0 -1
BITMAP
1080
1048
13fc
fc00
1108
1508
1908
3090
d090
10a0
1020
1044
57fe
2000
ENDCHAR
STARTCHAR 1677
ENCODING 43477
SWIDTH 1024 0
DWIDTH 16 0
BBX 15 14 0 -1
BITMAP
1040
1244
1148
fc40
13fc
1440
1840
3044
d7fe
1040
1040
1040
5040
2040
ENDCHAR
STARTCHAR 1678
ENCODING 43478
SWIDTH 1024 0
DWIDTH 16 0
BBX 15 14 0 -1
BITMAP
1040
1020
1004
13fe
fc20
1420
1820
31fc
d020
1020
1020
1024
57fe
2000
ENDCHAR
STARTCHAR 1679
ENCODING 43479
SWIDTH 1024 0
DWIDTH 16 0
BBX 15 14 0 -1
BITMAP
1008
13fc
1208
fe08
13f8
1620
1a24
33fe
d220
1220
1210
1292
530a
2206
ENDCHAR
STARTCHAR 1680
ENCODING 43480
SWIDTH 1024 0
DWIDTH 16 0
BBX 15 14 0 -1
BITMAP
1090
1090
17fe
f892
1092
17fe
1c90
3490
d7fe
1092
1092
1094
5110
2210
ENDCHAR
STARTCHAR 1681
ENCODING 43481
SWIDTH 1024 0
DWIDTH 16 0
BBX 15 14 0 -1
BITMAP
1040
1044
17fe
fc40
1040
1848
13fc
30e0
50d0
9148
114e
1244
3440
1040
ENDCHAR
STARTCHAR 1682
ENCODING 43482
SWIDTH 1024 0
DWIDTH 16 0
BBX 15 14 0 -1
BITMAP
1008
13fc
1100
fd08
11fc
1108
1d08
3108
d1f8
1108
1100
1104
57fe
2000
ENDCHAR
STARTCHAR 1683
ENCODING 43483
SWIDTH 1024 0
DWIDTH 16 0
BBX 15 14 0 -1
BITMAP
1004
13fe
1084
fc84
1084
1524
1918
3200
d5fc
1104
1104
1104
51fc
2104
ENDCHAR
STARTCHAR 1684
ENCODING 43484
SWIDTH 1024 0
DWIDTH 16 0
BBX 15 14 0 -1
BITMAP
1020
1020
13fe
fe22
1224
1620
1bf8
3288
d288
1250
1270
1448
548e
2904
ENDCHAR
STARTCHAR 1685
ENCODING 43485
SWIDTH 1024 0
DWIDTH 16 0
BBX 15 14 0 -1
BITMAP
1004
13fe
1080
fc80
1100
1504
19fe
3304
d504
1904
1104
1104
51fc
2104
ENDCHAR
STARTCHAR 1686
ENCODING 43486
SWIDTH 1024 0
DWIDTH 16 0
BBX 15 14 0 -1
BITMAP
2088
2084
27fe
f880
2080
2080
2910
3210
6510
a8a0
2040
2110
6208
2c06
ENDCHAR
STARTCHAR 1687
ENCODING 43487
SWIDTH 1024 0
DWIDTH 16 0
BBX 15 14 0 -1
BITMAP
2200
2210
2210
fa7c
2fd4
2214
3294
6294
a294
2294
22a4
24ca
a882
407e
ENDCHAR
STARTCHAR 1688
ENCODING 43488
SWIDTH 1024 0
DWIDTH 16 0
BBX 15 14 0 -1
BITMAP
1040
1044
107e
fc40
1040
1440
1844
33fe
d204
1204
1204
1204
53fc
2204
ENDCHAR
STARTCHAR 1689
ENCODING 43489
SWIDTH 1024 0
DWIDTH 16 0
BBX 15 14 0 -1
BITMAP
1008
11fc
1020
fd24
10a4
1428
1820
33fe
d020
1020
1020
1020
5020
2020
ENDCHAR
STARTCHAR 1690
ENCODING 43490
SWIDTH 1024 0
DWIDTH 16 0
BBX 15 14 0 -1
BITMAP
1020
1020
1020
fc24
11fe
1524
1924
3124
d1fc
1124
1124
1124
51fc
2104
ENDCHAR
STARTCHAR 1691
ENCODING 43491
SWIDTH 1024 0
DWIDTH 16 0
BBX 15 14 0 -1
BITMAP
1004
11fe
1124
fd24
11fc
1524
1924
3124
d1fc
1124
1020
1020
5020
2020
ENDCHAR
STARTCHAR 1692
ENCODING 43492
SWIDTH 1024 0
DWIDTH 16 0
BBX 15 14 0 -1
BITMAP
1008
11fc
fd08
1108
15f8
1800
3004
d3fe
1084
1084
1104
1104
5214
2408
ENDCHAR
STARTCHAR 1693
ENCODING 43493
SWIDTH 1024 0
DWIDTH 16 0
BBX 15 14 0 -1
BITMAP
1020
1020
1124
fd24
1124
1524
19fc
3124
d020
1222
1222
1222
53fe
2202
ENDCHAR
STARTCHAR 1694
ENCODING 43494
SWIDTH 1024 0
DWIDTH 16 0
BBX 15 14 0 -1
BITMAP
1008
13fc
1288
fe48
1248
1ffe
3208
d288
1248
1448
17fc
1008
5050
2020
ENDCHAR
STARTCHAR 1695
ENCODING 43495
SWIDTH 1024 0
DWIDTH 16 0
BBX 15 14 0 -1
BITMAP
1020
1020
1044
fdfe
1104
1504
1904
31fc
d104
1104
1104
1104
51fc
2104
ENDCHAR
STARTCHAR 1696
ENCODING 43496
SWIDTH 1024 0
DWIDTH 16 0
BBX 15 14 0 -1
BITMAP
1008
103c
13e0
fe20
1220
17fc
1a20
3220
d220
1290
1710
120a
500a
23e6
ENDCHAR
STARTCHAR 1697
ENCODING 43497
SWIDTH 1024 0
DWIDTH 16 0
BBX 15 14 0 -1
BITMAP
1040
1090
1108
fbfc
1004
1110
1510
1910
37fe
d110
1110
1110
5210
2410
ENDCHAR
STARTCHAR 1698
ENCODING 43498
SWIDTH 1024 0
DWIDTH 16 0
BBX 15 14 0 -1
BITMAP
1080
1084
10fe
fd04
1204
11f4
1d14
3114
d1f4
1104
1118
1102
5102
20fe
ENDCHAR
STARTCHAR 1699
ENCODING 43499
SWIDTH 1024 0
DWIDTH 16 0
BBX 15 14 0 -1
BITMAP
1080
1104
11fe
fe04
1404
11e4
1d24
3124
d124
11e4
1104
1004
5014
2008
ENDCHAR
STARTCHAR 1700
ENCODING 43500
SWIDTH 1024 0
DWIDTH 16 0
BBX 15 14 0 -1
BITMAP
1080
1084
10fe
fd20
1220
1d3c
31e4
d724
1124
1128
1120
1102
5102
20fe
ENDCHAR
STARTCHAR 1701
ENCODING 43501
SWIDTH 1024 0
DWIDTH 16 0
BBX 15 14 0 -1
BITMAP
1020
1120
1220
fa24
14fe
1f24
1124
1a24
3224
d4a4
1fa4
10a4
50d4
2188
ENDCHAR
ENDFONT
